<?xml version="1.0" encoding="UTF-8"?>
<svg xmlns:xlink="http://www.w3.org/1999/xlink" viewBox="0 0 99.21 99.21" xmlns="http://www.w3.org/2000/svg" width="99.21pt" height="99.21pt" xmlns:inkscape="http://www.inkscape.org/namespaces/inkscape" version="1.1">
 <title>Logo_Icarus_ohne_Felder.indd</title>
 <defs>
  <clipPath id="Clip0">
   <path d="M0 0 L83.5899 0 L83.5899 80.2868 L0 80.2868 L0 0 Z"/>
  </clipPath>
 </defs>
 <g id="Background" inkscape:groupmode="layer" inkscape:label="Background">
  <g id="Group1" style="fill:none; stroke:none" transform="translate(8.50391, 6.3752) scale(1, 1)" clip-rule="evenodd" clip-path="url(#Clip0)">
   <path style="fill:#a9003a; fill-rule:nonzero;stroke:none;" transform="translate(45.2406, 42.2196)" d="M0 0 L1.2465 0 L1.2465 8.4765 L0 8.4765 L0 0 "/>
   <path style="fill:#a9003a; fill-rule:nonzero;stroke:none;" transform="translate(48.1547, 42.1735)" d="M3.0148 0 C1.3445 0 0 1.2847 0 2.882 L0 5.7175 C0 7.3144 1.3445 8.6008 3.0148 8.6008 C4.5805 8.6008 5.8602 7.4707 6.0144 6.014 L4.7394 6.014 C4.6379 6.8332 3.9516 7.4636 3.1156 7.4636 L2.8977 7.4636 C1.9914 7.4636 1.2617 6.723 1.2617 5.8035 L1.2617 2.7961 C1.2617 1.8765 1.9914 1.1371 2.8977 1.1371 L3.1156 1.1371 C3.941 1.1371 4.6199 1.7504 4.7348 2.5543 L6.0109 2.5543 C5.8418 1.1129 4.5695 0 3.0148 0 "/>
   <path style="fill:#a9003a; fill-rule:nonzero;stroke:none;" transform="translate(54.7145, 42.22)" d="M3.1164 0 L0 8.4765 L1.325 8.4765 L1.9171 6.7941 L5.3132 6.8093 L5.8742 8.4921 L7.2304 8.4921 L4.114 0 L3.1164 0 Z M3.6152 1.8691 L5.0011 5.7343 L2.2746 5.7343 L3.6152 1.8691 Z"/>
   <path style="fill:#a9003a; fill-rule:nonzero;stroke:none;" transform="translate(63.0977, 42.2356)" d="M0 0 L0 8.4922 L1.2773 8.4922 L1.2773 4.8613 L2.898 4.8613 L4.6906 8.4609 L6.1867 8.4609 L4.2121 4.7273 C5.3523 4.382 6.1191 3.2551 5.9199 2.0344 C5.7316 0.8808 4.7726 0.05 3.664 0 L3.6621 0 L3.5257 0 L0 0 Z M1.2308 1.1219 L3.5398 1.1219 C3.7214 1.1344 3.8863 1.1754 4.0566 1.273 C4.6785 1.6297 4.889 2.4738 4.5468 3.1222 C4.3277 3.5379 3.9277 3.7851 3.5054 3.8148 L3.5054 3.8172 L3.4121 3.8172 L1.2308 3.8172 L1.2308 1.1219 Z"/>
   <path style="fill:#a9003a; fill-rule:nonzero;stroke:none;" transform="translate(70.4371, 42.2356)" d="M0 0 L0 5.9914 C0 7.3984 1.3528 8.5387 3.0223 8.5387 C4.6914 8.5387 6.0453 7.3984 6.0453 5.9914 L6.0453 5.9832 L6.0453 0 L4.8137 0 L4.8137 5.6496 C4.8137 5.6531 4.8137 5.6566 4.8137 5.6601 C4.8141 5.6719 4.8149 5.6832 4.8149 5.6949 C4.8149 6.6801 4.016 7.4793 3.0305 7.4793 C2.0449 7.4793 1.2461 6.6801 1.2461 5.6949 C1.2461 5.6832 1.2473 5.6719 1.2473 5.6601 L1.2461 5.6601 L1.2461 0 L0 0 "/>
   <path style="fill:#a9003a; fill-rule:nonzero;stroke:none;" transform="translate(77.5887, 42.1733)" d="M3.1633 0.000189457 C1.5738 0.0153895 0.325 0.714189 0.25 2.50799 C0.1738 4.32169 2.1804 4.80519 2.7113 4.81459 C3.4285 4.82749 4.8277 4.91769 4.7527 6.16969 C4.6785 7.40519 3.7715 7.44979 2.9922 7.47949 C1.5429 7.53379 0.8109 6.68419 0.8109 6.68419 L0 7.52599 C0 7.52599 0.9523 8.71379 3.0234 8.63219 C4.6644 8.56739 5.9531 7.82169 6 6.09199 C6.0469 4.36229 4.7211 3.81769 3.2722 3.69309 C1.823 3.56809 1.4648 3.08449 1.4961 2.38339 C1.5273 1.68219 1.9637 1.09079 3.0855 1.07519 C4.2074 1.05949 4.6297 1.44039 4.9269 1.72279 L5.7035 0.949789 C5.7035 0.949789 4.7527 -0.0155105 3.1633 0.000189457 "/>
   <path style="fill:#a9003a; fill-rule:nonzero;stroke:none;" transform="translate(45.3231, 12.2653)" d="M37.4007 28.3593 L37.4007 0 L8.6238 0 L6.321 10.6961 L0.0109 9.405 L0.0109 29.1804 L0 29.2226 C2.4019 27.7023 7.4378 23.0312 18.5066 22.8797 C29.8816 22.7238 37.3925 28.3652 37.3925 28.3652 L37.4046 28.3703 L37.4007 28.3593 "/>
   <path style="fill:#f59b00; fill-rule:nonzero;stroke:none;" transform="translate(32.9031, 0)" d="M3.7985 0 L0 17.8703 L17.8703 21.6688 L21.6688 3.7985 L3.7985 0 "/>
   <path style="fill:#c476af; fill-rule:nonzero;stroke:none;" transform="translate(0, 26.3508)" d="M0 3.7078 L3.70779 18.5785 L18.5785 14.8707 L14.8707 0 L0 3.7078 "/>
   <path style="fill:#c0d000; fill-rule:nonzero;stroke:none;" transform="translate(15.6582, 5.8125)" d="M0 0.9524 L0.9524 8.7106 L8.7106 7.7578 L7.7578 0 L0 0.9524 "/>
   <path style="fill:#59c5f2; fill-rule:nonzero;stroke:none;" transform="translate(26.1277, 24.1141)" d="M0.5321 0 L0 10.1473 L10.1473 10.6789 L10.6789 0.5316 L0.5321 0 "/>
   <path style="fill:#555554; fill-rule:nonzero;stroke:none;" transform="translate(0.82773, 75.4086)" d="M2.48286 0.218 C2.47776 0.1828 2.46956 0.1539 2.45706 0.1321 C2.44496 0.1102 2.43086 0.0942 2.41526 0.0844 C2.39926 0.0746 2.38286 0.0696 2.36566 0.0696 L0.23438 0.0696 C0.17813 0.0696 0.125 0.0887 0.075 0.1266 C0.025 0.1645 0 0.2309 0 0.3262 L0 4.7133 C0 4.7305 0.00469 4.7469 0.01445 4.7625 C0.02422 4.7785 0.04141 4.7907 0.06602 4.7992 C0.09024 4.8078 0.12305 4.8153 0.16484 4.8211 C0.20625 4.8274 0.25625 4.8305 0.31484 4.8305 C0.37813 4.8305 0.42969 4.8274 0.46875 4.8211 C0.50781 4.8153 0.53945 4.8078 0.56406 4.7992 C0.58828 4.7907 0.60547 4.7785 0.61524 4.7625 C0.625 4.7469 0.62969 4.7305 0.62969 4.7133 L0.62969 2.7395 L2.27036 2.7395 C2.28746 2.7395 2.30386 2.734 2.31996 2.7231 C2.33596 2.7117 2.34966 2.6961 2.36216 2.6754 C2.37426 2.6547 2.38286 2.6278 2.38746 2.5946 C2.39256 2.5617 2.39496 2.5223 2.39496 2.4758 C2.39496 2.4242 2.39256 2.3824 2.38746 2.3492 C2.38286 2.3164 2.37426 2.2903 2.36216 2.2707 C2.34966 2.2512 2.33596 2.2371 2.31996 2.2285 C2.30386 2.2199 2.28746 2.2157 2.27036 2.2157 L0.62969 2.2157 L0.62969 0.6043 L2.36566 0.6043 C2.38286 0.6043 2.39926 0.5996 2.41526 0.5899 C2.43086 0.5801 2.44496 0.5649 2.45706 0.5442 C2.46956 0.5231 2.47776 0.4957 2.48286 0.4617 C2.48746 0.4274 2.49026 0.3871 2.49026 0.3407 C2.49026 0.2946 2.48746 0.2535 2.48286 0.218 Z M7.51636 1.3645 C7.43206 1.0676 7.30386 0.8188 7.13206 0.6172 C6.95976 0.4157 6.74416 0.2625 6.48556 0.1574 C6.22656 0.0528 5.92266 0 5.57386 0 C5.21216 0 4.89606 0.0582 4.62496 0.1742 C4.35426 0.2903 4.12856 0.4547 3.94766 0.6684 C3.76676 0.8821 3.63166 1.1414 3.54106 1.4465 C3.45076 1.752 3.40546 2.091 3.40546 2.4649 C3.40546 2.8555 3.44726 3.2008 3.53006 3.5012 C3.61326 3.8016 3.73946 4.0528 3.90936 4.2555 C4.07886 4.4582 4.29376 4.6125 4.55386 4.7188 C4.81366 4.825 5.12186 4.8782 5.47856 4.8782 C5.83986 4.8782 6.15586 4.8199 6.42696 4.7039 C6.69806 4.5883 6.92306 4.4223 7.10276 4.2063 C7.28206 3.9899 7.41676 3.7282 7.50746 3.4203 C7.59766 3.1129 7.64256 2.7676 7.64256 2.384 C7.64256 2.0008 7.60076 1.661 7.51636 1.3645 Z M6.90316 3.1571 C6.85426 3.3864 6.77266 3.5883 6.65816 3.7629 C6.54336 3.9375 6.39216 4.0762 6.20426 4.1785 C6.01676 4.2813 5.78516 4.3324 5.50936 4.3324 C5.23166 4.3324 5.00036 4.2856 4.81636 4.1914 C4.63246 4.0977 4.48556 3.9657 4.37576 3.7957 C4.26606 3.6262 4.18786 3.4242 4.14176 3.1899 C4.09536 2.9555 4.07226 2.6992 4.07226 2.4207 C4.07226 2.1696 4.09726 1.9293 4.14726 1.7012 C4.19726 1.4731 4.28006 1.2735 4.39566 1.1024 C4.51176 0.9317 4.66216 0.7949 4.84766 0.6922 C5.03286 0.5899 5.26216 0.5383 5.53516 0.5383 C5.80816 0.5383 6.03746 0.586 6.22266 0.6813 C6.40816 0.7766 6.55626 0.909 6.66716 1.0785 C6.77816 1.2485 6.85746 1.4485 6.90466 1.6793 C6.95236 1.9098 6.97616 2.1594 6.97616 2.4282 C6.97616 2.6844 6.95196 2.9274 6.90316 3.1571 Z M12.0778 4.6309 C12.0676 4.5953 12.0457 4.5336 12.0118 4.4457 L11.5868 3.4024 C11.5379 3.2824 11.4891 3.175 11.4403 3.0801 C11.3914 2.9848 11.3399 2.9004 11.2848 2.8274 C11.2297 2.7539 11.1707 2.691 11.1071 2.6387 C11.0438 2.5864 10.9727 2.543 10.8946 2.5086 C11.034 2.4598 11.1594 2.4 11.2719 2.3293 C11.384 2.2582 11.4805 2.175 11.5614 2.0785 C11.6418 1.9821 11.7036 1.8707 11.7461 1.7449 C11.7887 1.6196 11.8102 1.4774 11.8102 1.3184 C11.8102 1.1551 11.7864 1.0055 11.7387 0.8699 C11.6911 0.7344 11.62 0.6141 11.5247 0.509 C11.4293 0.4043 11.3118 0.3176 11.1711 0.2492 C11.0309 0.1809 10.8692 0.1309 10.686 0.0989 C10.6223 0.0918 10.5512 0.0852 10.4719 0.0789 C10.3922 0.0727 10.293 0.0696 10.1735 0.0696 L9.16606 0.0696 C9.11016 0.0696 9.05706 0.0887 9.00706 0.1266 C8.95666 0.1645 8.93166 0.2309 8.93166 0.3262 L8.93166 4.7133 C8.93166 4.7328 8.93676 4.75 8.94646 4.7645 C8.95626 4.7793 8.97346 4.7907 8.99766 4.7992 C9.02186 4.8078 9.05426 4.8153 9.09496 4.8211 C9.13516 4.8274 9.18556 4.8305 9.24686 4.8305 C9.30786 4.8305 9.35856 4.8274 9.39886 4.8211 C9.43906 4.8153 9.47066 4.8078 9.49416 4.7992 C9.51716 4.7907 9.53436 4.7793 9.54536 4.7645 C9.55626 4.75 9.56176 4.7328 9.56176 4.7133 L9.56176 2.6953 L9.98286 2.6953 C10.127 2.6953 10.25 2.7168 10.3528 2.7594 C10.4551 2.8024 10.5446 2.8621 10.62 2.9391 C10.6957 3.016 10.761 3.1074 10.8161 3.2137 C10.8707 3.3199 10.9239 3.4364 10.9754 3.5633 L11.411 4.6801 C11.4207 4.7098 11.4325 4.734 11.4457 4.7535 C11.4594 4.7731 11.4782 4.7883 11.5028 4.7992 C11.527 4.8102 11.5594 4.8184 11.5997 4.8231 C11.6399 4.8282 11.6918 4.8305 11.7551 4.8305 C11.8286 4.8305 11.8872 4.8282 11.9313 4.8231 C11.975 4.8184 12.009 4.811 12.0336 4.8012 C12.0579 4.7914 12.0739 4.7793 12.0813 4.7645 C12.0887 4.75 12.0922 4.7328 12.0922 4.7133 C12.0922 4.6938 12.0872 4.6664 12.0778 4.6309 Z M11.0872 1.7032 C11.0493 1.8008 10.9899 1.8856 10.9094 1.9574 C10.8289 2.0297 10.7282 2.0856 10.6075 2.1258 C10.4864 2.1664 10.343 2.1864 10.177 2.1864 L9.56176 2.1864 L9.56176 0.5899 L10.0926 0.5899 C10.2172 0.5899 10.318 0.5934 10.395 0.6008 C10.4719 0.6078 10.5407 0.6203 10.602 0.6371 C10.7969 0.6934 10.9364 0.7856 11.0192 0.9137 C11.1024 1.0418 11.1438 1.1989 11.1438 1.3844 C11.1438 1.4992 11.1247 1.6055 11.0872 1.7032 Z M16.952 0.1832 C16.9422 0.1563 16.9286 0.1336 16.9118 0.1157 C16.8946 0.0973 16.87 0.0832 16.8383 0.0735 C16.8067 0.0637 16.7653 0.0571 16.7137 0.0532 C16.6625 0.0496 16.5977 0.0477 16.5196 0.0477 C16.4465 0.0477 16.386 0.0496 16.3383 0.0532 C16.2911 0.0571 16.252 0.0637 16.2211 0.0735 C16.1907 0.0832 16.1676 0.0965 16.1516 0.1137 C16.136 0.1309 16.1231 0.1528 16.1133 0.1797 L14.5239 4.5813 C14.5043 4.6352 14.4942 4.6785 14.4926 4.7114 C14.4914 4.7446 14.5 4.7696 14.5184 4.7864 C14.5368 4.8035 14.5684 4.8153 14.6137 4.8211 C14.6586 4.8274 14.7168 4.8305 14.7875 4.8305 C14.8559 4.8305 14.9114 4.8282 14.9543 4.8231 C14.9969 4.8184 15.0297 4.8102 15.0532 4.7992 C15.0762 4.7883 15.0938 4.775 15.1063 4.759 C15.1184 4.7434 15.1282 4.7242 15.1356 4.7024 L15.5235 3.5633 L17.4938 3.5633 L17.9004 4.7168 C17.9102 4.7391 17.9204 4.7571 17.9317 4.7719 C17.9426 4.7864 17.9594 4.7981 17.9829 4.8067 C18.0059 4.8153 18.0403 4.8211 18.0852 4.825 C18.1305 4.8285 18.1911 4.8305 18.2664 4.8305 C18.3422 4.8305 18.4028 4.8282 18.4477 4.8231 C18.493 4.8184 18.5254 4.8074 18.545 4.7903 C18.5645 4.7731 18.5735 4.7481 18.5723 4.7153 C18.5711 4.6821 18.5606 4.6387 18.5411 4.5852 L16.952 0.1832 Z M17.3289 3.0617 L15.6813 3.0617 L16.4977 0.6996 L16.5012 0.6996 L17.3289 3.0617 Z M22.7711 4.6309 C22.7614 4.5953 22.7391 4.5336 22.7051 4.4457 L22.2801 3.4024 C22.2313 3.2824 22.1825 3.175 22.1336 3.0801 C22.0848 2.9848 22.0329 2.9004 21.9782 2.8274 C21.9231 2.7539 21.8641 2.691 21.8004 2.6387 C21.7372 2.5864 21.6661 2.543 21.5879 2.5086 C21.7274 2.4598 21.8532 2.4 21.9653 2.3293 C22.0778 2.2582 22.1739 2.175 22.2547 2.0785 C22.3352 1.9821 22.3969 1.8707 22.4395 1.7449 C22.4821 1.6196 22.5036 1.4774 22.5036 1.3184 C22.5036 1.1551 22.4797 1.0055 22.4321 0.8699 C22.3844 0.7344 22.3133 0.6141 22.218 0.509 C22.1227 0.4043 22.0047 0.3176 21.8645 0.2492 C21.7243 0.1809 21.5625 0.1309 21.3793 0.0989 C21.3157 0.0918 21.2446 0.0852 21.1653 0.0789 C21.086 0.0727 20.9864 0.0696 20.8668 0.0696 L19.8594 0.0696 C19.8036 0.0696 19.7504 0.0887 19.7004 0.1266 C19.65 0.1645 19.625 0.2309 19.625 0.3262 L19.625 4.7133 C19.625 4.7328 19.6301 4.75 19.6399 4.7645 C19.6497 4.7793 19.6668 4.7907 19.6911 4.7992 C19.7157 4.8078 19.7481 4.8153 19.7883 4.8211 C19.8286 4.8274 19.8789 4.8305 19.9403 4.8305 C20.0012 4.8305 20.052 4.8274 20.0922 4.8211 C20.1325 4.8153 20.1641 4.8078 20.1872 4.7992 C20.2106 4.7907 20.2278 4.7793 20.2387 4.7645 C20.2497 4.75 20.2551 4.7328 20.2551 4.7133 L20.2551 2.6953 L20.6762 2.6953 C20.8204 2.6953 20.9438 2.7168 21.0461 2.7594 C21.1485 2.8024 21.2375 2.8621 21.3133 2.9391 C21.3891 3.016 21.4543 3.1074 21.5094 3.2137 C21.5645 3.3199 21.6172 3.4364 21.6688 3.5633 L22.1043 4.6801 C22.1141 4.7098 22.1258 4.734 22.1391 4.7535 C22.1528 4.7731 22.1715 4.7883 22.1961 4.7992 C22.2204 4.8102 22.2528 4.8184 22.293 4.8231 C22.3332 4.8282 22.3852 4.8305 22.4489 4.8305 C22.5219 4.8305 22.5805 4.8282 22.6247 4.8231 C22.6684 4.8184 22.7028 4.811 22.727 4.8012 C22.7512 4.7914 22.7672 4.7793 22.7747 4.7645 C22.7821 4.75 22.7856 4.7328 22.7856 4.7133 C22.7856 4.6938 22.7805 4.6664 22.7711 4.6309 Z M21.7805 1.7032 C21.7426 1.8008 21.6832 1.8856 21.6028 1.9574 C21.5223 2.0297 21.4215 2.0856 21.3004 2.1258 C21.1797 2.1664 21.0364 2.1864 20.8704 2.1864 L20.2551 2.1864 L20.2551 0.5899 L20.786 0.5899 C20.9106 0.5899 21.0114 0.5934 21.0883 0.6008 C21.1653 0.6078 21.234 0.6203 21.295 0.6371 C21.4903 0.6934 21.6297 0.7856 21.7125 0.9137 C21.7957 1.0418 21.8372 1.1989 21.8372 1.3844 C21.8372 1.4992 21.818 1.6055 21.7805 1.7032 Z M27.0829 3.9992 C27.0793 3.9625 27.0739 3.934 27.0664 3.9129 C27.059 3.8922 27.0493 3.8782 27.0372 3.8711 C27.0247 3.8637 27.0098 3.8602 26.993 3.8602 C26.9559 3.8602 26.9055 3.8832 26.8418 3.9297 C26.7782 3.9758 26.6965 4.0278 26.5969 4.0852 C26.4977 4.1426 26.3774 4.1946 26.2364 4.241 C26.0954 4.2871 25.9301 4.3106 25.7411 4.3106 C25.5176 4.3106 25.3176 4.2707 25.1411 4.1914 C24.9645 4.1121 24.8153 3.9949 24.6938 3.8399 C24.5723 3.6848 24.4789 3.4918 24.4137 3.2614 C24.3489 3.0305 24.3164 2.7649 24.3164 2.4649 C24.3164 2.1621 24.35 1.893 24.4176 1.6571 C24.4852 1.4215 24.5801 1.2219 24.7028 1.0586 C24.8254 0.8949 24.9735 0.7711 25.1465 0.6867 C25.3196 0.6024 25.5118 0.5606 25.7227 0.5606 C25.9164 0.5606 26.0829 0.584 26.2215 0.6317 C26.3602 0.6793 26.4782 0.7321 26.575 0.7895 C26.6719 0.8465 26.7512 0.8992 26.8125 0.9469 C26.8739 0.9946 26.9219 1.0184 26.9563 1.0184 C26.9758 1.0184 26.9922 1.0125 27.0059 1.0016 C27.0192 0.9907 27.0309 0.9739 27.0407 0.9504 C27.0504 0.9274 27.0579 0.8985 27.0629 0.8645 C27.0676 0.8301 27.0704 0.7887 27.0704 0.7399 C27.0704 0.6957 27.0684 0.6582 27.0649 0.6266 C27.061 0.5946 27.0563 0.5672 27.05 0.5442 C27.0442 0.5207 27.036 0.5004 27.0262 0.4836 C27.0164 0.4664 26.9954 0.4414 26.9622 0.4086 C26.9293 0.3754 26.87 0.3332 26.7844 0.2821 C26.6993 0.2309 26.6016 0.1856 26.4918 0.1465 C26.3817 0.1074 26.2622 0.075 26.1329 0.0496 C26.0032 0.0239 25.8704 0.011 25.7336 0.011 C25.4235 0.011 25.1411 0.0672 24.886 0.1797 C24.6305 0.2918 24.4118 0.4547 24.2286 0.6684 C24.0454 0.8821 23.9032 1.1426 23.802 1.4504 C23.7004 1.7578 23.65 2.1082 23.65 2.5016 C23.65 2.8848 23.6969 3.2235 23.7911 3.5176 C23.8848 3.8117 24.0192 4.059 24.1938 4.259 C24.368 4.4594 24.5793 4.6106 24.8274 4.7133 C25.075 4.8157 25.3528 4.8672 25.6606 4.8672 C25.8383 4.8672 26.0028 4.8504 26.1528 4.8176 C26.3032 4.7848 26.436 4.7446 26.552 4.6969 C26.668 4.6492 26.7653 4.6004 26.843 4.5504 C26.9211 4.5004 26.9727 4.4629 26.9969 4.4387 C27.0215 4.4141 27.0383 4.3934 27.0485 4.3766 C27.0579 4.3594 27.0661 4.3399 27.0719 4.3176 C27.0782 4.2957 27.0825 4.2699 27.0848 4.241 C27.0872 4.2117 27.0887 4.1774 27.0887 4.1383 C27.0887 4.0821 27.0868 4.036 27.0829 3.9992 Z M31.6297 0.1649 C31.6297 0.1453 31.6247 0.1282 31.6149 0.1137 C31.6051 0.0989 31.5879 0.0875 31.5637 0.0789 C31.5391 0.0703 31.5071 0.0629 31.4664 0.0571 C31.4262 0.0508 31.377 0.0477 31.3184 0.0477 C31.2547 0.0477 31.2036 0.0508 31.1645 0.0571 C31.1254 0.0629 31.0938 0.0703 31.0692 0.0789 C31.045 0.0875 31.0278 0.0989 31.018 0.1137 C31.0082 0.1282 31.0036 0.1453 31.0036 0.1649 L31.0036 2.0617 L28.8465 2.0617 L28.8465 0.1649 C28.8465 0.1453 28.8414 0.1282 28.8317 0.1137 C28.8219 0.0989 28.8047 0.0875 28.7805 0.0789 C28.7559 0.0703 28.7239 0.0629 28.6832 0.0571 C28.643 0.0508 28.5922 0.0477 28.5317 0.0477 C28.4731 0.0477 28.4227 0.0508 28.3813 0.0571 C28.3399 0.0629 28.3067 0.0703 28.2825 0.0789 C28.2579 0.0875 28.2411 0.0989 28.2313 0.1137 C28.2215 0.1282 28.2164 0.1453 28.2164 0.1649 L28.2164 4.7133 C28.2164 4.7328 28.2215 4.75 28.2313 4.7645 C28.2411 4.7793 28.2579 4.7907 28.2825 4.7992 C28.3067 4.8078 28.3399 4.8153 28.3813 4.8211 C28.4227 4.8274 28.4731 4.8305 28.5317 4.8305 C28.5922 4.8305 28.643 4.8274 28.6832 4.8211 C28.7239 4.8153 28.7559 4.8078 28.7805 4.7992 C28.8047 4.7907 28.8219 4.7793 28.8317 4.7645 C28.8414 4.75 28.8465 4.7328 28.8465 4.7133 L28.8465 2.6114 L31.0036 2.6114 L31.0036 4.7133 C31.0036 4.7328 31.0082 4.75 31.018 4.7645 C31.0278 4.7793 31.045 4.7907 31.0692 4.7992 C31.0938 4.8078 31.1254 4.8153 31.1645 4.8211 C31.2036 4.8274 31.2547 4.8305 31.3184 4.8305 C31.377 4.8305 31.4262 4.8274 31.4664 4.8211 C31.5071 4.8153 31.5391 4.8078 31.5637 4.7992 C31.5879 4.7907 31.6051 4.7793 31.6149 4.7645 C31.6247 4.75 31.6297 4.7328 31.6297 4.7133 L31.6297 0.1649 Z M33.8122 0.1649 C33.8122 0.1453 33.8075 0.1282 33.7977 0.1137 C33.7879 0.0989 33.7707 0.0875 33.7461 0.0789 C33.7219 0.0703 33.6895 0.0629 33.6493 0.0571 C33.609 0.0508 33.5582 0.0477 33.4973 0.0477 C33.4411 0.0477 33.393 0.0508 33.3528 0.0571 C33.3122 0.0629 33.2793 0.0703 33.2536 0.0789 C33.2282 0.0875 33.2098 0.0989 33.1989 0.1137 C33.1879 0.1282 33.1825 0.1453 33.1825 0.1649 L33.1825 4.7133 C33.1825 4.7328 33.1872 4.75 33.1969 4.7645 C33.2067 4.7793 33.2239 4.7907 33.2481 4.7992 C33.2727 4.8078 33.3055 4.8153 33.3469 4.8211 C33.3887 4.8274 33.4387 4.8305 33.4973 4.8305 C33.5582 4.8305 33.609 4.8274 33.6493 4.8211 C33.6895 4.8153 33.7219 4.8078 33.7461 4.7992 C33.7707 4.7907 33.7879 4.7793 33.7977 4.7645 C33.8075 4.75 33.8122 4.7328 33.8122 4.7133 L33.8122 0.1649 Z M38.8254 0.2969 C38.8454 0.243 38.8567 0.1996 38.8606 0.1668 C38.8641 0.1336 38.8579 0.1086 38.8422 0.0918 C38.8262 0.0746 38.7961 0.0629 38.7524 0.0571 C38.7086 0.0508 38.6485 0.0477 38.5731 0.0477 C38.4997 0.0477 38.4411 0.0496 38.3973 0.0532 C38.3532 0.0571 38.3192 0.0637 38.2946 0.0735 C38.2704 0.0832 38.2532 0.0965 38.2434 0.1137 C38.2336 0.1309 38.225 0.1528 38.2176 0.1797 L36.8957 4.1602 L36.8918 4.1602 L35.5332 0.1723 C35.5235 0.1481 35.5133 0.1278 35.5024 0.1117 C35.4914 0.0961 35.4747 0.0832 35.4528 0.0735 C35.4309 0.0637 35.3997 0.0571 35.3594 0.0532 C35.3192 0.0496 35.2649 0.0477 35.1965 0.0477 C35.1133 0.0477 35.0477 0.05 34.9989 0.0551 C34.95 0.0602 34.9145 0.0711 34.8926 0.0879 C34.8707 0.1051 34.8602 0.1301 34.8614 0.1629 C34.8625 0.1961 34.8731 0.2395 34.8926 0.293 L36.4414 4.6949 C36.4489 4.7145 36.4567 4.7309 36.4653 4.7446 C36.4739 4.7578 36.4856 4.7696 36.5 4.7793 C36.5149 4.7891 36.5325 4.7969 36.5532 4.8032 C36.5739 4.809 36.5993 4.8145 36.6286 4.8196 C36.6579 4.8242 36.6926 4.8274 36.7329 4.8285 C36.7731 4.8297 36.82 4.8305 36.8739 4.8305 C36.9446 4.8305 37.0036 4.8285 37.0512 4.825 C37.0989 4.8211 37.1379 4.8145 37.1684 4.8047 C37.1989 4.7949 37.2227 4.7817 37.2399 4.7645 C37.2571 4.7477 37.2704 4.7254 37.2801 4.6985 L38.8254 0.2969 Z M41.5211 0.1832 C41.5114 0.1563 41.4977 0.1336 41.4805 0.1157 C41.4637 0.0973 41.4391 0.0832 41.4075 0.0735 C41.3758 0.0637 41.334 0.0571 41.2829 0.0532 C41.2317 0.0496 41.1668 0.0477 41.0887 0.0477 C41.0157 0.0477 40.9551 0.0496 40.9075 0.0532 C40.8598 0.0571 40.8207 0.0637 40.7903 0.0735 C40.7598 0.0832 40.7368 0.0965 40.7207 0.1137 C40.7047 0.1309 40.6922 0.1528 40.6825 0.1797 L39.093 4.5813 C39.0735 4.6352 39.0629 4.6785 39.0618 4.7114 C39.0606 4.7446 39.0692 4.7696 39.0875 4.7864 C39.1059 4.8035 39.1375 4.8153 39.1829 4.8211 C39.2278 4.8274 39.286 4.8305 39.3567 4.8305 C39.425 4.8305 39.4805 4.8282 39.5235 4.8231 C39.5661 4.8184 39.5989 4.8102 39.6223 4.7992 C39.6454 4.7883 39.6629 4.775 39.6754 4.759 C39.6875 4.7434 39.6973 4.7242 39.7043 4.7024 L40.0926 3.5633 L42.0629 3.5633 L42.4696 4.7168 C42.4793 4.7391 42.4895 4.7571 42.5004 4.7719 C42.5118 4.7864 42.5286 4.7981 42.552 4.8067 C42.575 4.8153 42.609 4.8211 42.6543 4.825 C42.6997 4.8285 42.7598 4.8305 42.8356 4.8305 C42.9114 4.8305 42.9715 4.8282 43.0168 4.8231 C43.0622 4.8184 43.0946 4.8074 43.1141 4.7903 C43.1336 4.7731 43.1426 4.7481 43.1414 4.7153 C43.1403 4.6821 43.1297 4.6387 43.1102 4.5852 L41.5211 0.1832 Z M41.8981 3.0617 L40.25 3.0617 L41.0668 0.6996 L41.0704 0.6996 L41.8981 3.0617 Z M46.6442 4.4094 C46.6395 4.375 46.6313 4.3477 46.6204 4.327 C46.6094 4.3063 46.5961 4.2903 46.5801 4.2793 C46.5645 4.2684 46.5454 4.2629 46.5235 4.2629 L44.8243 4.2629 L44.8243 0.1649 C44.8243 0.1453 44.8192 0.1282 44.8094 0.1137 C44.7997 0.0989 44.7825 0.0875 44.7582 0.0789 C44.7336 0.0703 44.7016 0.0629 44.6614 0.0571 C44.6207 0.0508 44.5704 0.0477 44.509 0.0477 C44.4504 0.0477 44.4004 0.0508 44.359 0.0571 C44.3176 0.0629 44.2844 0.0703 44.2602 0.0789 C44.236 0.0875 44.2188 0.0989 44.209 0.1137 C44.1993 0.1282 44.1942 0.1453 44.1942 0.1649 L44.1942 4.552 C44.1942 4.6473 44.2192 4.7141 44.2696 4.7516 C44.3196 4.7895 44.3727 4.8086 44.4286 4.8086 L46.5235 4.8086 C46.5454 4.8086 46.5645 4.8032 46.5801 4.7918 C46.5961 4.7809 46.6094 4.7641 46.6204 4.7407 C46.6313 4.7176 46.6395 4.6895 46.6442 4.6567 C46.6493 4.6235 46.6516 4.5828 46.6516 4.5336 C46.6516 4.4852 46.6493 4.4434 46.6442 4.4094 Z M52.4817 4.6309 C52.4719 4.5953 52.45 4.5336 52.4157 4.4457 L51.9911 3.4024 C51.9422 3.2824 51.893 3.175 51.8446 3.0801 C51.7957 2.9848 51.7438 2.9004 51.6887 2.8274 C51.634 2.7539 51.5747 2.691 51.5114 2.6387 C51.4477 2.5864 51.377 2.543 51.2989 2.5086 C51.4379 2.4598 51.5637 2.4 51.6758 2.3293 C51.7883 2.2582 51.8848 2.175 51.9653 2.0785 C52.0457 1.9821 52.1075 1.8707 52.15 1.7449 C52.193 1.6196 52.2145 1.4774 52.2145 1.3184 C52.2145 1.1551 52.1907 1.0055 52.143 0.8699 C52.0954 0.7344 52.0239 0.6141 51.9286 0.509 C51.8336 0.4043 51.7157 0.3176 51.5754 0.2492 C51.4348 0.1809 51.2731 0.1309 51.0899 0.0989 C51.0266 0.0918 50.9551 0.0852 50.8758 0.0789 C50.7965 0.0727 50.6969 0.0696 50.5774 0.0696 L49.5704 0.0696 C49.5141 0.0696 49.461 0.0887 49.411 0.1266 C49.361 0.1645 49.336 0.2309 49.336 0.3262 L49.336 4.7133 C49.336 4.7328 49.3407 4.75 49.3504 4.7645 C49.3602 4.7793 49.3774 4.7907 49.402 4.7992 C49.4262 4.8078 49.4586 4.8153 49.4989 4.8211 C49.5391 4.8274 49.5899 4.8305 49.6508 4.8305 C49.7118 4.8305 49.7625 4.8274 49.8028 4.8211 C49.843 4.8153 49.8747 4.8078 49.8981 4.7992 C49.9211 4.7907 49.9383 4.7793 49.9493 4.7645 C49.9602 4.75 49.9657 4.7328 49.9657 4.7133 L49.9657 2.6953 L50.3868 2.6953 C50.5309 2.6953 50.6543 2.7168 50.7567 2.7594 C50.8594 2.8024 50.9485 2.8621 51.0243 2.9391 C51.0997 3.016 51.1653 3.1074 51.22 3.2137 C51.275 3.3199 51.3282 3.4364 51.3793 3.5633 L51.8153 4.6801 C51.825 4.7098 51.8364 4.734 51.85 4.7535 C51.8633 4.7731 51.8825 4.7883 51.9067 4.7992 C51.9313 4.8102 51.9633 4.8184 52.0036 4.8231 C52.0442 4.8282 52.0957 4.8305 52.1594 4.8305 C52.2325 4.8305 52.2911 4.8282 52.3352 4.8231 C52.3789 4.8184 52.4133 4.811 52.4375 4.8012 C52.4622 4.7914 52.4782 4.7793 52.4852 4.7645 C52.4926 4.75 52.4961 4.7328 52.4961 4.7133 C52.4961 4.6938 52.4914 4.6664 52.4817 4.6309 Z M51.4911 1.7032 C51.4532 1.8008 51.3942 1.8856 51.3133 1.9574 C51.2329 2.0297 51.1321 2.0856 51.0114 2.1258 C50.8907 2.1664 50.7469 2.1864 50.5809 2.1864 L49.9657 2.1864 L49.9657 0.5899 L50.4969 0.5899 C50.6211 0.5899 50.7219 0.5934 50.7989 0.6008 C50.8758 0.6078 50.945 0.6203 51.0059 0.6371 C51.2012 0.6934 51.3403 0.7856 51.4235 0.9137 C51.5063 1.0418 51.5477 1.1989 51.5477 1.3844 C51.5477 1.4992 51.5289 1.6055 51.4911 1.7032 Z M56.3305 4.4258 C56.3254 4.3926 56.3172 4.366 56.3047 4.3453 C56.2926 4.3246 56.2786 4.309 56.2629 4.2992 C56.2469 4.2899 56.2293 4.2848 56.2098 4.2848 L54.3309 4.2848 L54.3309 2.5891 L55.9204 2.5891 C55.9399 2.5891 55.9575 2.5852 55.9735 2.5766 C55.9895 2.568 56.0028 2.5539 56.0137 2.5344 C56.0247 2.5149 56.0325 2.4891 56.0375 2.4574 C56.0422 2.4258 56.045 2.3879 56.045 2.3438 C56.045 2.2977 56.0422 2.2571 56.0375 2.2231 C56.0325 2.1891 56.0247 2.1621 56.0137 2.1426 C56.0028 2.1231 55.9895 2.1078 55.9735 2.0965 C55.9575 2.0856 55.9399 2.0801 55.9204 2.0801 L54.3309 2.0801 L54.3309 0.5934 L56.184 0.5934 C56.2036 0.5934 56.2211 0.5883 56.2372 0.5785 C56.2532 0.5692 56.2657 0.5535 56.2754 0.5328 C56.2852 0.5121 56.2934 0.4856 56.2993 0.4524 C56.3055 0.4196 56.3086 0.3809 56.3086 0.3371 C56.3086 0.2883 56.3055 0.2473 56.2993 0.2145 C56.2934 0.1813 56.2852 0.1539 56.2754 0.1321 C56.2657 0.1102 56.2532 0.0942 56.2372 0.0844 C56.2211 0.0746 56.2036 0.0696 56.184 0.0696 L53.9356 0.0696 C53.8793 0.0696 53.8262 0.0887 53.7762 0.1266 C53.7262 0.1645 53.7012 0.2309 53.7012 0.3262 L53.7012 4.552 C53.7012 4.6473 53.7262 4.7141 53.7762 4.7516 C53.8262 4.7895 53.8793 4.8086 53.9356 4.8086 L56.2098 4.8086 C56.2293 4.8086 56.2469 4.8035 56.2629 4.7938 C56.2786 4.784 56.2926 4.7684 56.3047 4.7461 C56.3172 4.7242 56.3254 4.6969 56.3305 4.6637 C56.3356 4.6309 56.3379 4.5922 56.3379 4.5485 C56.3379 4.4996 56.3356 4.4586 56.3305 4.4258 Z M60.0348 2.9903 C59.9727 2.8524 59.8907 2.7328 59.7895 2.6313 C59.6879 2.5301 59.5727 2.4422 59.4434 2.3676 C59.3137 2.2934 59.1821 2.225 59.0477 2.1625 C58.9133 2.1004 58.7817 2.0387 58.6524 1.9778 C58.5231 1.9168 58.4075 1.8496 58.3063 1.7762 C58.2047 1.7032 58.1239 1.6188 58.0625 1.5235 C58.0016 1.4285 57.9711 1.3149 57.9711 1.1828 C57.9711 1.0926 57.9872 1.0071 58.0188 0.9266 C58.0504 0.8461 58.0981 0.7766 58.1618 0.718 C58.225 0.6594 58.3055 0.6121 58.4032 0.577 C58.5008 0.5414 58.6157 0.5239 58.7477 0.5239 C58.8891 0.5239 59.0168 0.5414 59.1301 0.577 C59.2438 0.6121 59.3418 0.6516 59.425 0.6942 C59.5079 0.7367 59.5782 0.7754 59.6356 0.8094 C59.693 0.8438 59.7348 0.8606 59.7618 0.8606 C59.7789 0.8606 59.7942 0.8551 59.8079 0.8442 C59.8211 0.8332 59.8317 0.816 59.8387 0.793 C59.8461 0.7699 59.8516 0.741 59.8551 0.7071 C59.859 0.6727 59.861 0.6336 59.861 0.5899 C59.861 0.5434 59.8594 0.5055 59.8571 0.4762 C59.8547 0.4469 59.8508 0.4219 59.8461 0.4012 C59.8411 0.3805 59.8352 0.3633 59.8278 0.35 C59.8204 0.3364 59.8051 0.3184 59.7821 0.2949 C59.7586 0.2719 59.7106 0.2414 59.6375 0.2035 C59.5641 0.1657 59.4805 0.1313 59.3868 0.1008 C59.2926 0.0703 59.1926 0.0457 59.0864 0.0278 C58.9801 0.0094 58.8743 0 58.7696 0 C58.5645 0 58.3735 0.0278 58.1965 0.0824 C58.0192 0.1375 57.8668 0.2176 57.7387 0.3223 C57.6106 0.4274 57.5102 0.5574 57.4383 0.7125 C57.3664 0.8676 57.3301 1.0438 57.3301 1.2414 C57.3301 1.4344 57.3614 1.6 57.4239 1.7379 C57.486 1.8758 57.5672 1.9961 57.6672 2.0985 C57.7672 2.2012 57.8809 2.2903 58.0079 2.366 C58.1348 2.4414 58.2653 2.5106 58.3997 2.5727 C58.534 2.6352 58.6653 2.6961 58.7934 2.7559 C58.9215 2.8157 59.0356 2.8817 59.1356 2.9535 C59.236 3.0258 59.3164 3.1094 59.3774 3.2043 C59.4383 3.2996 59.4692 3.4145 59.4692 3.5489 C59.4692 3.6731 59.4469 3.7844 59.4032 3.8821 C59.359 3.9797 59.2961 4.0621 59.2145 4.1293 C59.1325 4.1961 59.0352 4.2481 58.9215 4.2848 C58.8079 4.3215 58.6829 4.3399 58.5461 4.3399 C58.3653 4.3399 58.2063 4.3184 58.0684 4.2754 C57.9301 4.2328 57.8125 4.1871 57.7149 4.1383 C57.6172 4.0895 57.5372 4.0446 57.475 4.0028 C57.4125 3.9614 57.3645 3.9407 57.3301 3.9407 C57.3106 3.9407 57.2938 3.9449 57.2789 3.9535 C57.2645 3.9621 57.252 3.9774 57.2422 3.9992 C57.2325 4.0211 57.2254 4.05 57.2204 4.0852 C57.2157 4.1207 57.2129 4.1653 57.2129 4.2188 C57.2129 4.2946 57.22 4.3551 57.2332 4.4 C57.2465 4.4453 57.2672 4.4824 57.2954 4.5117 C57.3235 4.541 57.3735 4.5766 57.4457 4.618 C57.5176 4.6594 57.6067 4.7 57.7129 4.7391 C57.8192 4.7782 57.9399 4.811 58.0754 4.8379 C58.211 4.8645 58.3582 4.8782 58.5168 4.8782 C58.7438 4.8782 58.9555 4.8477 59.1524 4.7864 C59.3489 4.7254 59.5196 4.6344 59.6649 4.5137 C59.8102 4.3926 59.9235 4.2457 60.0055 4.0723 C60.0872 3.8992 60.1282 3.7012 60.1282 3.4789 C60.1282 3.291 60.0969 3.1282 60.0348 2.9903 Z M63.9512 4.4258 C63.9465 4.3926 63.9379 4.366 63.9258 4.3453 C63.9133 4.3246 63.8997 4.309 63.8836 4.2992 C63.8676 4.2899 63.85 4.2848 63.8305 4.2848 L61.952 4.2848 L61.952 2.5891 L63.5411 2.5891 C63.5606 2.5891 63.5786 2.5852 63.5942 2.5766 C63.6102 2.568 63.6235 2.5539 63.6344 2.5344 C63.6457 2.5149 63.6536 2.4891 63.6582 2.4574 C63.6633 2.4258 63.6657 2.3879 63.6657 2.3438 C63.6657 2.2977 63.6633 2.2571 63.6582 2.2231 C63.6536 2.1891 63.6457 2.1621 63.6344 2.1426 C63.6235 2.1231 63.6102 2.1078 63.5942 2.0965 C63.5786 2.0856 63.5606 2.0801 63.5411 2.0801 L61.952 2.0801 L61.952 0.5934 L63.8047 0.5934 C63.8243 0.5934 63.8422 0.5883 63.8579 0.5785 C63.8739 0.5692 63.8868 0.5535 63.8965 0.5328 C63.9063 0.5121 63.9141 0.4856 63.9204 0.4524 C63.9262 0.4196 63.9293 0.3809 63.9293 0.3371 C63.9293 0.2883 63.9262 0.2473 63.9204 0.2145 C63.9141 0.1813 63.9063 0.1539 63.8965 0.1321 C63.8868 0.1102 63.8739 0.0942 63.8579 0.0844 C63.8422 0.0746 63.8243 0.0696 63.8047 0.0696 L61.5563 0.0696 C61.5 0.0696 61.4469 0.0887 61.3969 0.1266 C61.3469 0.1645 61.3219 0.2309 61.3219 0.3262 L61.3219 4.552 C61.3219 4.6473 61.3469 4.7141 61.3969 4.7516 C61.4469 4.7895 61.5 4.8086 61.5563 4.8086 L63.8305 4.8086 C63.85 4.8086 63.8676 4.8035 63.8836 4.7938 C63.8997 4.784 63.9133 4.7684 63.9258 4.7461 C63.9379 4.7242 63.9465 4.6969 63.9512 4.6637 C63.9563 4.6309 63.9586 4.5922 63.9586 4.5485 C63.9586 4.4996 63.9563 4.4586 63.9512 4.4258 Z M67.1555 0.1832 C67.1457 0.1563 67.1325 0.1336 67.1153 0.1157 C67.0985 0.0973 67.0739 0.0832 67.0422 0.0735 C67.0106 0.0637 66.9692 0.0571 66.9176 0.0532 C66.8664 0.0496 66.8016 0.0477 66.7235 0.0477 C66.6504 0.0477 66.5899 0.0496 66.5422 0.0532 C66.4946 0.0571 66.4555 0.0637 66.425 0.0735 C66.3946 0.0832 66.3715 0.0965 66.3555 0.1137 C66.3395 0.1309 66.327 0.1528 66.3172 0.1797 L64.7278 4.5813 C64.7082 4.6352 64.6977 4.6785 64.6965 4.7114 C64.6954 4.7446 64.7039 4.7696 64.7223 4.7864 C64.7407 4.8035 64.7723 4.8153 64.8176 4.8211 C64.8625 4.8274 64.9207 4.8305 64.9914 4.8305 C65.0598 4.8305 65.1153 4.8282 65.1579 4.8231 C65.2008 4.8184 65.2336 4.8102 65.2571 4.7992 C65.2801 4.7883 65.2977 4.775 65.3102 4.759 C65.3223 4.7434 65.3321 4.7242 65.3395 4.7024 L65.7274 3.5633 L67.6977 3.5633 L68.1043 4.7168 C68.1137 4.7391 68.1243 4.7571 68.1352 4.7719 C68.1461 4.7864 68.1633 4.7981 68.1868 4.8067 C68.2098 4.8153 68.2438 4.8211 68.2891 4.825 C68.3344 4.8285 68.3946 4.8305 68.4704 4.8305 C68.5461 4.8305 68.6067 4.8282 68.6516 4.8231 C68.6969 4.8184 68.7293 4.8074 68.7489 4.7903 C68.7684 4.7731 68.7774 4.7481 68.7762 4.7153 C68.775 4.6821 68.7645 4.6387 68.745 4.5852 L67.1555 0.1832 Z M67.5329 3.0617 L65.8852 3.0617 L66.7016 0.6996 L66.7051 0.6996 L67.5329 3.0617 Z M72.9747 4.6309 C72.9649 4.5953 72.943 4.5336 72.909 4.4457 L72.484 3.4024 C72.4352 3.2824 72.3864 3.175 72.3375 3.0801 C72.2887 2.9848 72.2368 2.9004 72.1821 2.8274 C72.127 2.7539 72.0676 2.691 72.0043 2.6387 C71.9407 2.5864 71.87 2.543 71.7918 2.5086 C71.9313 2.4598 72.0567 2.4 72.1692 2.3293 C72.2813 2.2582 72.3778 2.175 72.4586 2.0785 C72.5391 1.9821 72.6008 1.8707 72.6434 1.7449 C72.686 1.6196 72.7075 1.4774 72.7075 1.3184 C72.7075 1.1551 72.6836 1.0055 72.636 0.8699 C72.5883 0.7344 72.5168 0.6141 72.4219 0.509 C72.3266 0.4043 72.2086 0.3176 72.0684 0.2492 C71.9282 0.1809 71.7664 0.1309 71.5832 0.0989 C71.5196 0.0918 71.4485 0.0852 71.3692 0.0789 C71.2895 0.0727 71.1903 0.0696 71.0704 0.0696 L70.0633 0.0696 C70.0071 0.0696 69.9539 0.0887 69.9039 0.1266 C69.8539 0.1645 69.8289 0.2309 69.8289 0.3262 L69.8289 4.7133 C69.8289 4.7328 69.834 4.75 69.8438 4.7645 C69.8536 4.7793 69.8704 4.7907 69.895 4.7992 C69.9196 4.8078 69.9516 4.8153 69.9918 4.8211 C70.0325 4.8274 70.0829 4.8305 70.1442 4.8305 C70.2051 4.8305 70.2559 4.8274 70.2961 4.8211 C70.3364 4.8153 70.368 4.8078 70.3911 4.7992 C70.4145 4.7907 70.4317 4.7793 70.4426 4.7645 C70.4536 4.75 70.459 4.7328 70.459 4.7133 L70.459 2.6953 L70.8801 2.6953 C71.0243 2.6953 71.1473 2.7168 71.25 2.7594 C71.3524 2.8024 71.4414 2.8621 71.5172 2.9391 C71.593 3.016 71.6582 3.1074 71.7133 3.2137 C71.768 3.3199 71.8211 3.4364 71.8727 3.5633 L72.3082 4.6801 C72.318 4.7098 72.3297 4.734 72.343 4.7535 C72.3567 4.7731 72.3754 4.7883 72.4 4.7992 C72.4243 4.8102 72.4567 4.8184 72.4969 4.8231 C72.5372 4.8282 72.5891 4.8305 72.6524 4.8305 C72.7258 4.8305 72.7844 4.8282 72.8282 4.8231 C72.8723 4.8184 72.9063 4.811 72.9309 4.8012 C72.9551 4.7914 72.9711 4.7793 72.9786 4.7645 C72.986 4.75 72.9895 4.7328 72.9895 4.7133 C72.9895 4.6938 72.9844 4.6664 72.9747 4.6309 Z M71.984 1.7032 C71.9461 1.8008 71.8872 1.8856 71.8067 1.9574 C71.7258 2.0297 71.6254 2.0856 71.5043 2.1258 C71.3836 2.1664 71.2403 2.1864 71.0743 2.1864 L70.459 2.1864 L70.459 0.5899 L70.9899 0.5899 C71.1145 0.5899 71.2153 0.5934 71.2922 0.6008 C71.3692 0.6078 71.4379 0.6203 71.4989 0.6371 C71.6942 0.6934 71.8332 0.7856 71.9164 0.9137 C71.9993 1.0418 72.0411 1.1989 72.0411 1.3844 C72.0411 1.4992 72.0219 1.6055 71.984 1.7032 Z M77.2868 3.9992 C77.2832 3.9625 77.2778 3.934 77.2704 3.9129 C77.2629 3.8922 77.2532 3.8782 77.2411 3.8711 C77.2286 3.8637 77.2137 3.8602 77.1965 3.8602 C77.1598 3.8602 77.1094 3.8832 77.0457 3.9297 C76.9821 3.9758 76.9004 4.0278 76.8008 4.0852 C76.7016 4.1426 76.5813 4.1946 76.4403 4.241 C76.2989 4.2871 76.134 4.3106 75.945 4.3106 C75.7215 4.3106 75.5215 4.2707 75.345 4.1914 C75.1684 4.1121 75.0192 3.9949 74.8977 3.8399 C74.7762 3.6848 74.6829 3.4918 74.6176 3.2614 C74.5528 3.0305 74.5204 2.7649 74.5204 2.4649 C74.5204 2.1621 74.5539 1.893 74.6215 1.6571 C74.6891 1.4215 74.784 1.2219 74.9067 1.0586 C75.0293 0.8949 75.1774 0.7711 75.3504 0.6867 C75.5235 0.6024 75.7157 0.5606 75.9266 0.5606 C76.1204 0.5606 76.2868 0.584 76.4254 0.6317 C76.5641 0.6793 76.6821 0.7321 76.7789 0.7895 C76.8758 0.8465 76.9551 0.8992 77.0164 0.9469 C77.0778 0.9946 77.1254 1.0184 77.1602 1.0184 C77.1797 1.0184 77.1961 1.0125 77.2098 1.0016 C77.2231 0.9907 77.2348 0.9739 77.2446 0.9504 C77.2543 0.9274 77.2618 0.8985 77.2668 0.8645 C77.2715 0.8301 77.2743 0.7887 77.2743 0.7399 C77.2743 0.6957 77.2723 0.6582 77.2688 0.6266 C77.2649 0.5946 77.2602 0.5672 77.2539 0.5442 C77.2481 0.5207 77.2399 0.5004 77.2301 0.4836 C77.2204 0.4664 77.1993 0.4414 77.1661 0.4086 C77.1332 0.3754 77.0739 0.3332 76.9883 0.2821 C76.9032 0.2309 76.8055 0.1856 76.6954 0.1465 C76.5856 0.1074 76.4661 0.075 76.3368 0.0496 C76.2071 0.0239 76.0743 0.011 75.9375 0.011 C75.6274 0.011 75.345 0.0672 75.0899 0.1797 C74.8344 0.2918 74.6153 0.4547 74.4325 0.6684 C74.2493 0.8821 74.1071 1.1426 74.0059 1.4504 C73.9043 1.7578 73.8536 2.1082 73.8536 2.5016 C73.8536 2.8848 73.9008 3.2235 73.9946 3.5176 C74.0887 3.8117 74.2231 4.059 74.3977 4.259 C74.5719 4.4594 74.7832 4.6106 75.0313 4.7133 C75.2789 4.8157 75.5567 4.8672 75.8641 4.8672 C76.0422 4.8672 76.2067 4.8504 76.3567 4.8176 C76.5071 4.7848 76.6399 4.7446 76.7559 4.6969 C76.8719 4.6492 76.9688 4.6004 77.0469 4.5504 C77.125 4.5004 77.1766 4.4629 77.2008 4.4387 C77.2254 4.4141 77.2422 4.3934 77.2524 4.3766 C77.2618 4.3594 77.27 4.3399 77.2758 4.3176 C77.2821 4.2957 77.2864 4.2699 77.2887 4.241 C77.2911 4.2117 77.2922 4.1774 77.2922 4.1383 C77.2922 4.0821 77.2907 4.036 77.2868 3.9992 Z M81.8336 0.1649 C81.8336 0.1453 81.8286 0.1282 81.8188 0.1137 C81.809 0.0989 81.7918 0.0875 81.7676 0.0789 C81.743 0.0703 81.711 0.0629 81.6704 0.0571 C81.6301 0.0508 81.5809 0.0477 81.5223 0.0477 C81.4586 0.0477 81.4075 0.0508 81.3684 0.0571 C81.3293 0.0629 81.2973 0.0703 81.2731 0.0789 C81.2489 0.0875 81.2317 0.0989 81.2219 0.1137 C81.2122 0.1282 81.2071 0.1453 81.2071 0.1649 L81.2071 2.0617 L79.0504 2.0617 L79.0504 0.1649 C79.0504 0.1453 79.0454 0.1282 79.0356 0.1137 C79.0258 0.0989 79.0086 0.0875 78.9844 0.0789 C78.9598 0.0703 78.9278 0.0629 78.8872 0.0571 C78.8469 0.0508 78.7961 0.0477 78.7352 0.0477 C78.6766 0.0477 78.6266 0.0508 78.5852 0.0571 C78.5438 0.0629 78.5106 0.0703 78.4864 0.0789 C78.4618 0.0875 78.4446 0.0989 78.4352 0.1137 C78.425 0.1282 78.4204 0.1453 78.4204 0.1649 L78.4204 4.7133 C78.4204 4.7328 78.425 4.75 78.4352 4.7645 C78.4446 4.7793 78.4618 4.7907 78.4864 4.7992 C78.5106 4.8078 78.5438 4.8153 78.5852 4.8211 C78.6266 4.8274 78.6766 4.8305 78.7352 4.8305 C78.7961 4.8305 78.8469 4.8274 78.8872 4.8211 C78.9278 4.8153 78.9598 4.8078 78.9844 4.7992 C79.0086 4.7907 79.0258 4.7793 79.0356 4.7645 C79.0454 4.75 79.0504 4.7328 79.0504 4.7133 L79.0504 2.6114 L81.2071 2.6114 L81.2071 4.7133 C81.2071 4.7328 81.2122 4.75 81.2219 4.7645 C81.2317 4.7793 81.2489 4.7907 81.2731 4.7992 C81.2973 4.8078 81.3293 4.8153 81.3684 4.8211 C81.4075 4.8274 81.4586 4.8305 81.5223 4.8305 C81.5809 4.8305 81.6301 4.8274 81.6704 4.8211 C81.711 4.8153 81.743 4.8078 81.7676 4.7992 C81.7918 4.7907 81.809 4.7793 81.8188 4.7645 C81.8286 4.75 81.8336 4.7328 81.8336 4.7133 L81.8336 0.1649 Z"/>
   <path style="fill:#555554; fill-rule:nonzero;stroke:none;" transform="translate(0.82773, 66.4086)" d="M0.62969 0.1649 C0.62969 0.1453 0.625 0.1282 0.61524 0.1137 C0.60547 0.0989 0.58828 0.0875 0.56406 0.0789 C0.53945 0.0703 0.50703 0.0629 0.4668 0.0571 C0.42656 0.0508 0.37578 0.0477 0.31484 0.0477 C0.25859 0.0477 0.21055 0.0508 0.17031 0.0571 C0.13008 0.0629 0.09688 0.0703 0.07149 0.0789 C0.0457 0.0875 0.02734 0.0989 0.01641 0.1137 C0.00547 0.1282 0 0.1453 0 0.1649 L0 4.7133 C0 4.7328 0.00469 4.75 0.01445 4.7645 C0.02422 4.7793 0.04141 4.7907 0.06602 4.7992 C0.09024 4.8078 0.12305 4.8153 0.16484 4.8211 C0.20625 4.8274 0.25625 4.8305 0.31484 4.8305 C0.37578 4.8305 0.42656 4.8274 0.4668 4.8211 C0.50703 4.8153 0.53945 4.8078 0.56406 4.7992 C0.58828 4.7907 0.60547 4.7793 0.61524 4.7645 C0.625 4.75 0.62969 4.7328 0.62969 4.7133 L0.62969 0.1649 Z M5.76406 0.1758 C5.76406 0.159 5.75896 0.143 5.74886 0.1282 C5.73826 0.1137 5.72146 0.1008 5.69846 0.0899 C5.67496 0.0789 5.64296 0.0711 5.60196 0.066 C5.56056 0.0614 5.51176 0.0586 5.45506 0.0586 C5.39066 0.0586 5.33826 0.0614 5.29846 0.066 C5.25856 0.0711 5.22616 0.0789 5.20196 0.0899 C5.17736 0.1008 5.15976 0.1137 5.14966 0.1282 C5.13946 0.143 5.13396 0.159 5.13396 0.1758 L5.13396 2.7465 C5.13396 2.9395 5.13476 3.1403 5.13596 3.3492 C5.13716 3.5578 5.14026 3.7586 5.14536 3.9516 L5.14136 3.9516 C5.08476 3.8367 5.02776 3.7227 4.96996 3.609 C4.91216 3.4957 4.85356 3.3801 4.79456 3.2629 C4.73556 3.1457 4.67426 3.027 4.61056 2.9059 C4.54686 2.7852 4.48086 2.6614 4.41246 2.5344 L3.30116 0.4543 C3.26096 0.3785 3.22266 0.3157 3.18596 0.2657 C3.14966 0.2157 3.11176 0.1766 3.07266 0.1485 C3.03356 0.1203 2.98946 0.1004 2.94026 0.0879 C2.89136 0.0758 2.83006 0.0696 2.75706 0.0696 L2.44726 0.0696 C2.38166 0.0696 2.32106 0.0907 2.26566 0.1321 C2.21016 0.1735 2.18246 0.243 2.18246 0.3407 L2.18246 4.7133 C2.18246 4.7305 2.18746 4.7469 2.19806 4.7625 C2.20816 4.7785 2.22496 4.7907 2.24846 4.7992 C2.27146 4.8078 2.30316 4.8153 2.34296 4.8211 C2.38286 4.8274 2.43356 4.8305 2.49566 4.8305 C2.55746 4.8305 2.60816 4.8274 2.64806 4.8211 C2.68826 4.8153 2.72036 4.8078 2.74496 4.7992 C2.76916 4.7907 2.78676 4.7785 2.79686 4.7625 C2.80746 4.7469 2.81246 4.7305 2.81246 4.7133 L2.81246 1.8532 C2.81246 1.6727 2.81136 1.4907 2.80856 1.3074 C2.80626 1.1242 2.80276 0.9449 2.79766 0.7692 L2.80506 0.7692 C2.87106 0.9133 2.94256 1.0617 3.01956 1.2141 C3.09606 1.3668 3.17226 1.5125 3.24806 1.6516 L4.69376 4.3469 C4.74296 4.4422 4.79026 4.5203 4.83436 4.5813 C4.87856 4.6426 4.92266 4.6907 4.96676 4.7262 C5.01096 4.7614 5.05786 4.786 5.10706 4.7992 C5.15626 4.8125 5.21366 4.8196 5.27926 4.8196 L5.48746 4.8196 C5.52036 4.8196 5.55316 4.8145 5.58596 4.8047 C5.61916 4.7949 5.64846 4.7793 5.67496 4.7571 C5.70156 4.7352 5.72306 4.7071 5.73946 4.6731 C5.75586 4.6387 5.76406 4.5973 5.76406 4.5485 L5.76406 0.1758 Z M10.2793 0.218 C10.2747 0.1828 10.2668 0.1539 10.2555 0.1321 C10.2446 0.1102 10.2313 0.0942 10.2153 0.0844 C10.1997 0.0746 10.1817 0.0696 10.1622 0.0696 L6.86636 0.0696 C6.84686 0.0696 6.82926 0.0746 6.81326 0.0844 C6.79726 0.0942 6.78436 0.1102 6.77496 0.1321 C6.76526 0.1539 6.75706 0.1828 6.75116 0.218 C6.74496 0.2535 6.74176 0.2946 6.74176 0.3407 C6.74176 0.3871 6.74496 0.4274 6.75116 0.4617 C6.75706 0.4957 6.76526 0.5231 6.77496 0.5442 C6.78436 0.5649 6.79726 0.5801 6.81326 0.5899 C6.82926 0.5996 6.84686 0.6043 6.86636 0.6043 L8.19926 0.6043 L8.19926 4.7133 C8.19926 4.7328 8.20426 4.75 8.21406 4.7645 C8.22386 4.7793 8.24106 4.7907 8.26526 4.7992 C8.28986 4.8078 8.32266 4.8153 8.36406 4.8211 C8.40546 4.8274 8.45586 4.8305 8.51446 4.8305 C8.57536 4.8305 8.62616 4.8274 8.66636 4.8211 C8.70666 4.8153 8.73906 4.8078 8.76326 4.7992 C8.78786 4.7907 8.80466 4.7793 8.81486 4.7645 C8.82426 4.75 8.82926 4.7328 8.82926 4.7133 L8.82926 0.6043 L10.1622 0.6043 C10.1817 0.6043 10.1997 0.5996 10.2153 0.5899 C10.2313 0.5801 10.2446 0.5649 10.2555 0.5442 C10.2668 0.5231 10.2747 0.4957 10.2793 0.4617 C10.2844 0.4274 10.2868 0.3871 10.2868 0.3407 C10.2868 0.2946 10.2844 0.2535 10.2793 0.218 Z M13.8942 4.4258 C13.8891 4.3926 13.8805 4.366 13.8684 4.3453 C13.8563 4.3246 13.8422 4.309 13.8262 4.2992 C13.8102 4.2899 13.7926 4.2848 13.7731 4.2848 L11.8946 4.2848 L11.8946 2.5891 L13.4836 2.5891 C13.5036 2.5891 13.5211 2.5852 13.5368 2.5766 C13.5528 2.568 13.5661 2.5539 13.5774 2.5344 C13.5883 2.5149 13.5961 2.4891 13.6008 2.4574 C13.6059 2.4258 13.6082 2.3879 13.6082 2.3438 C13.6082 2.2977 13.6059 2.2571 13.6008 2.2231 C13.5961 2.1891 13.5883 2.1621 13.5774 2.1426 C13.5661 2.1231 13.5528 2.1078 13.5368 2.0965 C13.5211 2.0856 13.5036 2.0801 13.4836 2.0801 L11.8946 2.0801 L11.8946 0.5934 L13.7473 0.5934 C13.7668 0.5934 13.7848 0.5883 13.8004 0.5785 C13.8164 0.5692 13.8293 0.5535 13.8391 0.5328 C13.8489 0.5121 13.8567 0.4856 13.8629 0.4524 C13.8688 0.4196 13.8719 0.3809 13.8719 0.3371 C13.8719 0.2883 13.8688 0.2473 13.8629 0.2145 C13.8567 0.1813 13.8489 0.1539 13.8391 0.1321 C13.8293 0.1102 13.8164 0.0942 13.8004 0.0844 C13.7848 0.0746 13.7668 0.0696 13.7473 0.0696 L11.4989 0.0696 C11.4426 0.0696 11.3899 0.0887 11.3399 0.1266 C11.2895 0.1645 11.2645 0.2309 11.2645 0.3262 L11.2645 4.552 C11.2645 4.6473 11.2895 4.7141 11.3399 4.7516 C11.3899 4.7895 11.4426 4.8086 11.4989 4.8086 L13.7731 4.8086 C13.7926 4.8086 13.8102 4.8035 13.8262 4.7938 C13.8422 4.784 13.8563 4.7684 13.8684 4.7461 C13.8805 4.7242 13.8891 4.6969 13.8942 4.6637 C13.8989 4.6309 13.9012 4.5922 13.9012 4.5485 C13.9012 4.4996 13.8989 4.4586 13.8942 4.4258 Z M18.3653 4.6309 C18.3555 4.5953 18.3336 4.5336 18.2997 4.4457 L17.8747 3.4024 C17.8258 3.2824 17.777 3.175 17.7282 3.0801 C17.6793 2.9848 17.6274 2.9004 17.5727 2.8274 C17.5176 2.7539 17.4582 2.691 17.395 2.6387 C17.3317 2.5864 17.2606 2.543 17.1825 2.5086 C17.3215 2.4598 17.4473 2.4 17.5598 2.3293 C17.6719 2.2582 17.7684 2.175 17.8493 2.0785 C17.9297 1.9821 17.9914 1.8707 18.034 1.7449 C18.0766 1.6196 18.0981 1.4774 18.0981 1.3184 C18.0981 1.1551 18.0743 1.0055 18.0266 0.8699 C17.9789 0.7344 17.9079 0.6141 17.8125 0.509 C17.7172 0.4043 17.5993 0.3176 17.459 0.2492 C17.3188 0.1809 17.1571 0.1309 16.9739 0.0989 C16.9102 0.0918 16.8387 0.0852 16.7594 0.0789 C16.6801 0.0727 16.5805 0.0696 16.461 0.0696 L15.4539 0.0696 C15.3981 0.0696 15.345 0.0887 15.295 0.1266 C15.2446 0.1645 15.2196 0.2309 15.2196 0.3262 L15.2196 4.7133 C15.2196 4.7328 15.2247 4.75 15.2344 4.7645 C15.2442 4.7793 15.2614 4.7907 15.2856 4.7992 C15.3098 4.8078 15.3422 4.8153 15.3825 4.8211 C15.4231 4.8274 15.4735 4.8305 15.5344 4.8305 C15.5957 4.8305 15.6461 4.8274 15.6868 4.8211 C15.727 4.8153 15.7586 4.8078 15.7817 4.7992 C15.8051 4.7907 15.8219 4.7793 15.8332 4.7645 C15.8442 4.75 15.8497 4.7328 15.8497 4.7133 L15.8497 2.6953 L16.2707 2.6953 C16.4149 2.6953 16.5379 2.7168 16.6407 2.7594 C16.743 2.8024 16.8321 2.8621 16.9079 2.9391 C16.9836 3.016 17.0489 3.1074 17.1039 3.2137 C17.1586 3.3199 17.2118 3.4364 17.2629 3.5633 L17.6989 4.6801 C17.7086 4.7098 17.7204 4.734 17.7336 4.7535 C17.7469 4.7731 17.7661 4.7883 17.7907 4.7992 C17.8149 4.8102 17.8473 4.8184 17.8875 4.8231 C17.9278 4.8282 17.9797 4.8305 18.043 4.8305 C18.1164 4.8305 18.175 4.8282 18.2192 4.8231 C18.2629 4.8184 18.2969 4.811 18.3215 4.8012 C18.3457 4.7914 18.3618 4.7793 18.3692 4.7645 C18.3762 4.75 18.3801 4.7328 18.3801 4.7133 C18.3801 4.6938 18.375 4.6664 18.3653 4.6309 Z M17.3747 1.7032 C17.3372 1.8008 17.2778 1.8856 17.1973 1.9574 C17.1168 2.0297 17.0161 2.0856 16.895 2.1258 C16.7743 2.1664 16.6309 2.1864 16.4649 2.1864 L15.8497 2.1864 L15.8497 0.5899 L16.3805 0.5899 C16.5051 0.5899 16.6059 0.5934 16.6829 0.6008 C16.7594 0.6078 16.8286 0.6203 16.8895 0.6371 C17.0848 0.6934 17.2243 0.7856 17.3071 0.9137 C17.3903 1.0418 17.4317 1.1989 17.4317 1.3844 C17.4317 1.4992 17.4125 1.6055 17.3747 1.7032 Z M23.1664 0.1758 C23.1664 0.159 23.1614 0.143 23.1508 0.1282 C23.1407 0.1137 23.1239 0.1008 23.1008 0.0899 C23.0774 0.0789 23.0454 0.0711 23.0039 0.066 C22.9629 0.0614 22.9137 0.0586 22.8575 0.0586 C22.793 0.0586 22.7407 0.0614 22.7008 0.066 C22.661 0.0711 22.6286 0.0789 22.6043 0.0899 C22.5797 0.1008 22.5622 0.1137 22.552 0.1282 C22.5418 0.143 22.5368 0.159 22.5368 0.1758 L22.5368 2.7465 C22.5368 2.9395 22.5372 3.1403 22.5383 3.3492 C22.5395 3.5578 22.5426 3.7586 22.5477 3.9516 L22.5438 3.9516 C22.4872 3.8367 22.4301 3.7227 22.3723 3.609 C22.3145 3.4957 22.2559 3.3801 22.1969 3.2629 C22.1379 3.1457 22.0766 3.027 22.0129 2.9059 C21.9493 2.7852 21.8832 2.6614 21.8149 2.5344 L20.7036 0.4543 C20.6633 0.3785 20.625 0.3157 20.5883 0.2657 C20.552 0.2157 20.5141 0.1766 20.475 0.1485 C20.436 0.1203 20.3918 0.1004 20.3426 0.0879 C20.2938 0.0758 20.2325 0.0696 20.1594 0.0696 L19.8497 0.0696 C19.784 0.0696 19.7235 0.0907 19.668 0.1321 C19.6125 0.1735 19.5848 0.243 19.5848 0.3407 L19.5848 4.7133 C19.5848 4.7305 19.5903 4.7469 19.6004 4.7625 C19.6106 4.7785 19.6274 4.7907 19.6504 4.7992 C19.6739 4.8078 19.7051 4.8153 19.7454 4.8211 C19.7852 4.8274 19.836 4.8305 19.8981 4.8305 C19.9598 4.8305 20.0106 4.8274 20.0504 4.8211 C20.0907 4.8153 20.1227 4.8078 20.1473 4.7992 C20.1715 4.7907 20.1891 4.7785 20.1993 4.7625 C20.2098 4.7469 20.2149 4.7305 20.2149 4.7133 L20.2149 1.8532 C20.2149 1.6727 20.2133 1.4907 20.211 1.3074 C20.2086 1.1242 20.2051 0.9449 20.2 0.7692 L20.2075 0.7692 C20.2735 0.9133 20.345 1.0617 20.4219 1.2141 C20.4985 1.3668 20.5747 1.5125 20.6504 1.6516 L22.0961 4.3469 C22.1454 4.4422 22.1926 4.5203 22.2368 4.5813 C22.2809 4.6426 22.325 4.6907 22.3692 4.7262 C22.4133 4.7614 22.4602 4.786 22.5094 4.7992 C22.5586 4.8125 22.6161 4.8196 22.6817 4.8196 L22.8899 4.8196 C22.9227 4.8196 22.9555 4.8145 22.9883 4.8047 C23.0211 4.7949 23.0508 4.7793 23.0774 4.7571 C23.1039 4.7352 23.1254 4.7071 23.1418 4.6731 C23.1582 4.6387 23.1664 4.5973 23.1664 4.5485 L23.1664 0.1758 Z M26.6786 0.1832 C26.6688 0.1563 26.6551 0.1336 26.6379 0.1157 C26.6211 0.0973 26.5965 0.0832 26.5649 0.0735 C26.5332 0.0637 26.4918 0.0571 26.4403 0.0532 C26.3891 0.0496 26.3243 0.0477 26.2461 0.0477 C26.1731 0.0477 26.1125 0.0496 26.0649 0.0532 C26.0172 0.0571 25.9782 0.0637 25.9477 0.0735 C25.9172 0.0832 25.8942 0.0965 25.8782 0.1137 C25.8622 0.1309 25.8497 0.1528 25.8399 0.1797 L24.2504 4.5813 C24.2309 4.6352 24.2204 4.6785 24.2192 4.7114 C24.218 4.7446 24.2266 4.7696 24.245 4.7864 C24.2633 4.8035 24.295 4.8153 24.3403 4.8211 C24.3852 4.8274 24.4434 4.8305 24.5141 4.8305 C24.5825 4.8305 24.6379 4.8282 24.6805 4.8231 C24.7235 4.8184 24.7563 4.8102 24.7797 4.7992 C24.8028 4.7883 24.8204 4.775 24.8329 4.759 C24.845 4.7434 24.8547 4.7242 24.8622 4.7024 L25.25 3.5633 L27.2204 3.5633 L27.627 4.7168 C27.6368 4.7391 27.6469 4.7571 27.6579 4.7719 C27.6692 4.7864 27.686 4.7981 27.7094 4.8067 C27.7325 4.8153 27.7664 4.8211 27.8118 4.825 C27.8571 4.8285 27.9172 4.8305 27.993 4.8305 C28.0688 4.8305 28.1293 4.8282 28.1743 4.8231 C28.2196 4.8184 28.252 4.8074 28.2715 4.7903 C28.2911 4.7731 28.3 4.7481 28.2989 4.7153 C28.2977 4.6821 28.2872 4.6387 28.2676 4.5852 L26.6786 0.1832 Z M27.0555 3.0617 L25.4079 3.0617 L26.2243 0.6996 L26.2282 0.6996 L27.0555 3.0617 Z M31.7286 0.218 C31.7235 0.1828 31.7157 0.1539 31.7047 0.1321 C31.6938 0.1102 31.6801 0.0942 31.6645 0.0844 C31.6485 0.0746 31.6309 0.0696 31.6114 0.0696 L28.3153 0.0696 C28.2957 0.0696 28.2782 0.0746 28.2622 0.0844 C28.2465 0.0942 28.2336 0.1102 28.2239 0.1321 C28.2141 0.1539 28.2063 0.1828 28.2 0.218 C28.1938 0.2535 28.1911 0.2946 28.1911 0.3407 C28.1911 0.3871 28.1938 0.4274 28.2 0.4617 C28.2063 0.4957 28.2141 0.5231 28.2239 0.5442 C28.2336 0.5649 28.2465 0.5801 28.2622 0.5899 C28.2782 0.5996 28.2957 0.6043 28.3153 0.6043 L29.6485 0.6043 L29.6485 4.7133 C29.6485 4.7328 29.6532 4.75 29.6629 4.7645 C29.6727 4.7793 29.6899 4.7907 29.7145 4.7992 C29.7387 4.8078 29.7715 4.8153 29.8133 4.8211 C29.8547 4.8274 29.9047 4.8305 29.9633 4.8305 C30.0243 4.8305 30.075 4.8274 30.1153 4.8211 C30.1555 4.8153 30.1879 4.8078 30.2125 4.7992 C30.2368 4.7907 30.2539 4.7793 30.2637 4.7645 C30.2735 4.75 30.2782 4.7328 30.2782 4.7133 L30.2782 0.6043 L31.6114 0.6043 C31.6309 0.6043 31.6485 0.5996 31.6645 0.5899 C31.6801 0.5801 31.6938 0.5649 31.7047 0.5442 C31.7157 0.5231 31.7235 0.4957 31.7286 0.4617 C31.7332 0.4274 31.736 0.3871 31.736 0.3407 C31.736 0.2946 31.7332 0.2535 31.7286 0.218 Z M33.3434 0.1649 C33.3434 0.1453 33.3383 0.1282 33.3289 0.1137 C33.3192 0.0989 33.302 0.0875 33.2774 0.0789 C33.2532 0.0703 33.2207 0.0629 33.1805 0.0571 C33.1403 0.0508 33.0895 0.0477 33.0286 0.0477 C32.9723 0.0477 32.9243 0.0508 32.884 0.0571 C32.8438 0.0629 32.8106 0.0703 32.7852 0.0789 C32.7594 0.0875 32.7411 0.0989 32.7301 0.1137 C32.7192 0.1282 32.7137 0.1453 32.7137 0.1649 L32.7137 4.7133 C32.7137 4.7328 32.7184 4.75 32.7282 4.7645 C32.7379 4.7793 32.7551 4.7907 32.7793 4.7992 C32.8039 4.8078 32.8368 4.8153 32.8786 4.8211 C32.92 4.8274 32.97 4.8305 33.0286 4.8305 C33.0895 4.8305 33.1403 4.8274 33.1805 4.8211 C33.2207 4.8153 33.2532 4.8078 33.2774 4.7992 C33.302 4.7907 33.3192 4.7793 33.3289 4.7645 C33.3383 4.75 33.3434 4.7328 33.3434 4.7133 L33.3434 0.1649 Z M38.7395 1.3645 C38.6555 1.0676 38.5274 0.8188 38.3551 0.6172 C38.1829 0.4157 37.9672 0.2625 37.7086 0.1574 C37.45 0.0528 37.1457 0 36.7969 0 C36.4356 0 36.1192 0.0582 35.8485 0.1742 C35.5774 0.2903 35.3516 0.4547 35.1707 0.6684 C34.9903 0.8821 34.8547 1.1414 34.7645 1.4465 C34.6739 1.752 34.6289 2.091 34.6289 2.4649 C34.6289 2.8555 34.6704 3.2008 34.7536 3.5012 C34.8364 3.8016 34.9625 4.0528 35.1325 4.2555 C35.302 4.4582 35.5168 4.6125 35.777 4.7188 C36.0368 4.825 36.345 4.8782 36.7016 4.8782 C37.0629 4.8782 37.3789 4.8199 37.65 4.7039 C37.9211 4.5883 38.1461 4.4223 38.3258 4.2063 C38.5051 3.9899 38.6403 3.7282 38.7305 3.4203 C38.8207 3.1129 38.8661 2.7676 38.8661 2.384 C38.8661 2.0008 38.8239 1.661 38.7395 1.3645 Z M38.1262 3.1571 C38.0774 3.3864 37.9957 3.5883 37.8813 3.7629 C37.7664 3.9375 37.6153 4.0762 37.4278 4.1785 C37.2399 4.2813 37.0082 4.3324 36.7329 4.3324 C36.4547 4.3324 36.2239 4.2856 36.0399 4.1914 C35.8555 4.0977 35.7086 3.9657 35.5989 3.7957 C35.4891 3.6262 35.4114 3.4242 35.3649 3.1899 C35.3184 2.9555 35.2954 2.6992 35.2954 2.4207 C35.2954 2.1696 35.3204 1.9293 35.3704 1.7012 C35.4204 1.4731 35.5032 1.2735 35.6192 1.1024 C35.7348 0.9317 35.8856 0.7949 36.0707 0.6922 C36.2559 0.5899 36.4852 0.5383 36.7582 0.5383 C37.0313 0.5383 37.2606 0.586 37.4457 0.6813 C37.6313 0.7766 37.7793 0.909 37.8903 1.0785 C38.0012 1.2485 38.0805 1.4485 38.1282 1.6793 C38.1754 1.9098 38.1993 2.1594 38.1993 2.4282 C38.1993 2.6844 38.175 2.9274 38.1262 3.1571 Z M43.7364 0.1758 C43.7364 0.159 43.7313 0.143 43.7211 0.1282 C43.711 0.1137 43.6942 0.1008 43.6707 0.0899 C43.6477 0.0789 43.6153 0.0711 43.5743 0.066 C43.5329 0.0614 43.484 0.0586 43.4274 0.0586 C43.3629 0.0586 43.311 0.0614 43.2707 0.066 C43.2309 0.0711 43.1989 0.0789 43.1743 0.0899 C43.1497 0.1008 43.1325 0.1137 43.1219 0.1282 C43.1118 0.143 43.1067 0.159 43.1067 0.1758 L43.1067 2.7465 C43.1067 2.9395 43.1071 3.1403 43.1086 3.3492 C43.1098 3.5578 43.1125 3.7586 43.1176 3.9516 L43.1141 3.9516 C43.0575 3.8367 43 3.7227 42.9422 3.609 C42.8844 3.4957 42.8262 3.3801 42.7672 3.2629 C42.7082 3.1457 42.6469 3.027 42.5832 2.9059 C42.5192 2.7852 42.4532 2.6614 42.3848 2.5344 L41.2735 0.4543 C41.2332 0.3785 41.195 0.3157 41.1586 0.2657 C41.1219 0.2157 41.084 0.1766 41.045 0.1485 C41.0063 0.1203 40.9622 0.1004 40.9129 0.0879 C40.8637 0.0758 40.8028 0.0696 40.7293 0.0696 L40.4196 0.0696 C40.3539 0.0696 40.2938 0.0907 40.2379 0.1321 C40.1829 0.1735 40.1551 0.243 40.1551 0.3407 L40.1551 4.7133 C40.1551 4.7305 40.1602 4.7469 40.1704 4.7625 C40.1805 4.7785 40.1973 4.7907 40.2207 4.7992 C40.2438 4.8078 40.2754 4.8153 40.3153 4.8211 C40.3551 4.8274 40.4063 4.8305 40.468 4.8305 C40.5297 4.8305 40.5805 4.8274 40.6207 4.8211 C40.6606 4.8153 40.6926 4.8078 40.7172 4.7992 C40.7418 4.7907 40.759 4.7785 40.7696 4.7625 C40.7797 4.7469 40.7848 4.7305 40.7848 4.7133 L40.7848 1.8532 C40.7848 1.6727 40.7836 1.4907 40.7813 1.3074 C40.7786 1.1242 40.775 0.9449 40.7704 0.7692 L40.7774 0.7692 C40.8438 0.9133 40.9153 1.0617 40.9918 1.2141 C41.0688 1.3668 41.145 1.5125 41.2204 1.6516 L42.6661 4.3469 C42.7157 4.4422 42.7625 4.5203 42.8067 4.5813 C42.8508 4.6426 42.895 4.6907 42.9395 4.7262 C42.9836 4.7614 43.0301 4.786 43.0793 4.7992 C43.1286 4.8125 43.186 4.8196 43.252 4.8196 L43.4602 4.8196 C43.493 4.8196 43.5258 4.8145 43.5586 4.8047 C43.5914 4.7949 43.6211 4.7793 43.6477 4.7571 C43.6739 4.7352 43.6954 4.7071 43.7118 4.6731 C43.7282 4.6387 43.7364 4.5973 43.7364 4.5485 L43.7364 0.1758 Z M47.2485 0.1832 C47.2387 0.1563 47.2254 0.1336 47.2082 0.1157 C47.1911 0.0973 47.1668 0.0832 47.1352 0.0735 C47.1032 0.0637 47.0618 0.0571 47.0106 0.0532 C46.959 0.0496 46.8946 0.0477 46.8164 0.0477 C46.743 0.0477 46.6829 0.0496 46.6352 0.0532 C46.5875 0.0571 46.5485 0.0637 46.518 0.0735 C46.4872 0.0832 46.4641 0.0965 46.4485 0.1137 C46.4325 0.1309 46.4196 0.1528 46.4098 0.1797 L44.8204 4.5813 C44.8008 4.6352 44.7907 4.6785 44.7895 4.7114 C44.7879 4.7446 44.7965 4.7696 44.8149 4.7864 C44.8332 4.8035 44.8649 4.8153 44.9102 4.8211 C44.9555 4.8274 45.0133 4.8305 45.084 4.8305 C45.1524 4.8305 45.2082 4.8282 45.2508 4.8231 C45.2934 4.8184 45.3266 4.8102 45.3497 4.7992 C45.3731 4.7883 45.3907 4.775 45.4028 4.759 C45.4149 4.7434 45.4247 4.7242 45.4321 4.7024 L45.8204 3.5633 L47.7907 3.5633 L48.1969 4.7168 C48.2067 4.7391 48.2172 4.7571 48.2282 4.7719 C48.2391 4.7864 48.2563 4.7981 48.2793 4.8067 C48.3028 4.8153 48.3368 4.8211 48.3821 4.825 C48.427 4.8285 48.4875 4.8305 48.5633 4.8305 C48.6387 4.8305 48.6993 4.8282 48.7446 4.8231 C48.7895 4.8184 48.8219 4.8074 48.8414 4.7903 C48.861 4.7731 48.8704 4.7481 48.8692 4.7153 C48.8676 4.6821 48.8575 4.6387 48.8379 4.5852 L47.2485 0.1832 Z M47.6258 3.0617 L45.9778 3.0617 L46.7946 0.6996 L46.7981 0.6996 L47.6258 3.0617 Z M52.3719 4.4094 C52.3668 4.375 52.359 4.3477 52.3481 4.327 C52.3372 4.3063 52.3235 4.2903 52.3079 4.2793 C52.2918 4.2684 52.2731 4.2629 52.2508 4.2629 L50.5516 4.2629 L50.5516 0.1649 C50.5516 0.1453 50.5469 0.1282 50.5372 0.1137 C50.5274 0.0989 50.5102 0.0875 50.486 0.0789 C50.4614 0.0703 50.4289 0.0629 50.3887 0.0571 C50.3485 0.0508 50.2977 0.0477 50.2368 0.0477 C50.1782 0.0477 50.1282 0.0508 50.0868 0.0571 C50.045 0.0629 50.0122 0.0703 49.9879 0.0789 C49.9633 0.0875 49.9461 0.0989 49.9364 0.1137 C49.9266 0.1282 49.9219 0.1453 49.9219 0.1649 L49.9219 4.552 C49.9219 4.6473 49.9469 4.7141 49.9969 4.7516 C50.0469 4.7895 50.1 4.8086 50.1563 4.8086 L52.2508 4.8086 C52.2731 4.8086 52.2918 4.8032 52.3079 4.7918 C52.3235 4.7809 52.3372 4.7641 52.3481 4.7407 C52.359 4.7176 52.3668 4.6895 52.3719 4.6567 C52.3766 4.6235 52.3789 4.5828 52.3789 4.5336 C52.3789 4.4852 52.3766 4.4434 52.3719 4.4094 Z M60.7129 3.9992 C60.7094 3.9625 60.7039 3.934 60.6965 3.9129 C60.6891 3.8922 60.6793 3.8782 60.6672 3.8711 C60.6547 3.8637 60.6399 3.8602 60.6231 3.8602 C60.586 3.8602 60.5356 3.8832 60.4719 3.9297 C60.4082 3.9758 60.3266 4.0278 60.227 4.0852 C60.1278 4.1426 60.0075 4.1946 59.8664 4.241 C59.725 4.2871 59.5602 4.3106 59.3711 4.3106 C59.1477 4.3106 58.9477 4.2707 58.7711 4.1914 C58.5946 4.1121 58.4454 3.9949 58.3239 3.8399 C58.2024 3.6848 58.109 3.4918 58.0442 3.2614 C57.9789 3.0305 57.9465 2.7649 57.9465 2.4649 C57.9465 2.1621 57.9801 1.893 58.0477 1.6571 C58.1153 1.4215 58.2102 1.2219 58.3329 1.0586 C58.4555 0.8949 58.6036 0.7711 58.7766 0.6867 C58.9497 0.6024 59.1418 0.5606 59.3528 0.5606 C59.5465 0.5606 59.7129 0.584 59.8516 0.6317 C59.9903 0.6793 60.1082 0.7321 60.2051 0.7895 C60.302 0.8465 60.3813 0.8992 60.4426 0.9469 C60.5039 0.9946 60.552 1.0184 60.586 1.0184 C60.6059 1.0184 60.6223 1.0125 60.636 1.0016 C60.6493 0.9907 60.661 0.9739 60.6707 0.9504 C60.6805 0.9274 60.6879 0.8985 60.693 0.8645 C60.6977 0.8301 60.7004 0.7887 60.7004 0.7399 C60.7004 0.6957 60.6985 0.6582 60.695 0.6266 C60.6911 0.5946 60.6864 0.5672 60.6801 0.5442 C60.6739 0.5207 60.6661 0.5004 60.6563 0.4836 C60.6465 0.4664 60.625 0.4414 60.5922 0.4086 C60.5594 0.3754 60.5 0.3332 60.4149 0.2821 C60.3293 0.2309 60.2317 0.1856 60.1215 0.1465 C60.0118 0.1074 59.8922 0.075 59.7629 0.0496 C59.6332 0.0239 59.5004 0.011 59.3637 0.011 C59.0536 0.011 58.7707 0.0672 58.5161 0.1797 C58.2606 0.2918 58.0414 0.4547 57.8586 0.6684 C57.6754 0.8821 57.5332 1.1426 57.4321 1.4504 C57.3305 1.7578 57.2797 2.1082 57.2797 2.5016 C57.2797 2.8848 57.327 3.2235 57.4207 3.5176 C57.5149 3.8117 57.6493 4.059 57.8239 4.259 C57.9981 4.4594 58.2094 4.6106 58.4575 4.7133 C58.7051 4.8157 58.9829 4.8672 59.2903 4.8672 C59.4688 4.8672 59.6329 4.8504 59.7829 4.8176 C59.9332 4.7848 60.0661 4.7446 60.1821 4.6969 C60.2981 4.6492 60.395 4.6004 60.4731 4.5504 C60.5512 4.5004 60.6028 4.4629 60.627 4.4387 C60.6512 4.4141 60.6684 4.3934 60.6782 4.3766 C60.6879 4.3594 60.6961 4.3399 60.702 4.3176 C60.7082 4.2957 60.7125 4.2699 60.7149 4.241 C60.7172 4.2117 60.7188 4.1774 60.7188 4.1383 C60.7188 4.0821 60.7168 4.036 60.7129 3.9992 Z M64.4758 4.4258 C64.4711 4.3926 64.4625 4.366 64.4504 4.3453 C64.4379 4.3246 64.4239 4.309 64.4082 4.2992 C64.3922 4.2899 64.3747 4.2848 64.3551 4.2848 L62.4762 4.2848 L62.4762 2.5891 L64.0657 2.5891 C64.0852 2.5891 64.1032 2.5852 64.1188 2.5766 C64.1348 2.568 64.1481 2.5539 64.159 2.5344 C64.1704 2.5149 64.1782 2.4891 64.1829 2.4574 C64.1879 2.4258 64.1903 2.3879 64.1903 2.3438 C64.1903 2.2977 64.1879 2.2571 64.1829 2.2231 C64.1782 2.1891 64.1704 2.1621 64.159 2.1426 C64.1481 2.1231 64.1348 2.1078 64.1188 2.0965 C64.1032 2.0856 64.0852 2.0801 64.0657 2.0801 L62.4762 2.0801 L62.4762 0.5934 L64.3293 0.5934 C64.3489 0.5934 64.3664 0.5883 64.3825 0.5785 C64.3985 0.5692 64.4114 0.5535 64.4211 0.5328 C64.4305 0.5121 64.4387 0.4856 64.445 0.4524 C64.4508 0.4196 64.4539 0.3809 64.4539 0.3371 C64.4539 0.2883 64.4508 0.2473 64.445 0.2145 C64.4387 0.1813 64.4305 0.1539 64.4211 0.1321 C64.4114 0.1102 64.3985 0.0942 64.3825 0.0844 C64.3664 0.0746 64.3489 0.0696 64.3293 0.0696 L62.0809 0.0696 C62.0247 0.0696 61.9715 0.0887 61.9215 0.1266 C61.8715 0.1645 61.8465 0.2309 61.8465 0.3262 L61.8465 4.552 C61.8465 4.6473 61.8715 4.7141 61.9215 4.7516 C61.9715 4.7895 62.0247 4.8086 62.0809 4.8086 L64.3551 4.8086 C64.3747 4.8086 64.3922 4.8035 64.4082 4.7938 C64.4239 4.784 64.4379 4.7684 64.4504 4.7461 C64.4625 4.7242 64.4711 4.6969 64.4758 4.6637 C64.4809 4.6309 64.4832 4.5922 64.4832 4.5485 C64.4832 4.4996 64.4809 4.4586 64.4758 4.4258 Z M69.3832 0.1758 C69.3832 0.159 69.3782 0.143 69.3676 0.1282 C69.3575 0.1137 69.3407 0.1008 69.3176 0.0899 C69.2942 0.0789 69.2622 0.0711 69.2207 0.066 C69.1797 0.0614 69.1305 0.0586 69.0739 0.0586 C69.0094 0.0586 68.9575 0.0614 68.9176 0.066 C68.8778 0.0711 68.8454 0.0789 68.8207 0.0899 C68.7965 0.1008 68.7789 0.1137 68.7688 0.1282 C68.7582 0.143 68.7532 0.159 68.7532 0.1758 L68.7532 2.7465 C68.7532 2.9395 68.7539 3.1403 68.7551 3.3492 C68.7563 3.5578 68.7594 3.7586 68.7645 3.9516 L68.7606 3.9516 C68.7039 3.8367 68.6465 3.7227 68.5887 3.609 C68.5313 3.4957 68.4727 3.3801 68.4137 3.2629 C68.3547 3.1457 68.2934 3.027 68.2297 2.9059 C68.1661 2.7852 68.1 2.6614 68.0317 2.5344 L66.9204 0.4543 C66.8801 0.3785 66.8418 0.3157 66.8051 0.2657 C66.7688 0.2157 66.7309 0.1766 66.6918 0.1485 C66.6528 0.1203 66.6086 0.1004 66.5594 0.0879 C66.5102 0.0758 66.4493 0.0696 66.3762 0.0696 L66.0661 0.0696 C66.0008 0.0696 65.9403 0.0907 65.8848 0.1321 C65.8293 0.1735 65.8016 0.243 65.8016 0.3407 L65.8016 4.7133 C65.8016 4.7305 65.8067 4.7469 65.8172 4.7625 C65.8274 4.7785 65.8442 4.7907 65.8672 4.7992 C65.8907 4.8078 65.9219 4.8153 65.9622 4.8211 C66.002 4.8274 66.0528 4.8305 66.1145 4.8305 C66.1762 4.8305 66.2274 4.8274 66.2672 4.8211 C66.3071 4.8153 66.3395 4.8078 66.3637 4.7992 C66.3883 4.7907 66.4059 4.7785 66.4161 4.7625 C66.4262 4.7469 66.4317 4.7305 66.4317 4.7133 L66.4317 1.8532 C66.4317 1.6727 66.4301 1.4907 66.4278 1.3074 C66.4254 1.1242 66.4215 0.9449 66.4168 0.7692 L66.4243 0.7692 C66.4903 0.9133 66.5618 1.0617 66.6383 1.2141 C66.7153 1.3668 66.7914 1.5125 66.8672 1.6516 L68.3125 4.3469 C68.3622 4.4422 68.409 4.5203 68.4532 4.5813 C68.4977 4.6426 68.5418 4.6907 68.586 4.7262 C68.6301 4.7614 68.677 4.786 68.7258 4.7992 C68.7754 4.8125 68.8329 4.8196 68.8985 4.8196 L69.1067 4.8196 C69.1395 4.8196 69.1723 4.8145 69.2051 4.8047 C69.2379 4.7949 69.2676 4.7793 69.2942 4.7571 C69.3207 4.7352 69.3422 4.7071 69.3586 4.6731 C69.375 4.6387 69.3832 4.5973 69.3832 4.5485 L69.3832 0.1758 Z M73.8985 0.218 C73.8938 0.1828 73.8856 0.1539 73.8747 0.1321 C73.8637 0.1102 73.8504 0.0942 73.8344 0.0844 C73.8184 0.0746 73.8008 0.0696 73.7813 0.0696 L70.4856 0.0696 C70.4661 0.0696 70.4481 0.0746 70.4325 0.0844 C70.4164 0.0942 70.4036 0.1102 70.3938 0.1321 C70.384 0.1539 70.3762 0.1828 70.37 0.218 C70.3641 0.2535 70.361 0.2946 70.361 0.3407 C70.361 0.3871 70.3641 0.4274 70.37 0.4617 C70.3762 0.4957 70.384 0.5231 70.3938 0.5442 C70.4036 0.5649 70.4164 0.5801 70.4325 0.5899 C70.4481 0.5996 70.4661 0.6043 70.4856 0.6043 L71.8184 0.6043 L71.8184 4.7133 C71.8184 4.7328 71.8235 4.75 71.8332 4.7645 C71.8426 4.7793 71.8598 4.7907 71.8844 4.7992 C71.9086 4.8078 71.9418 4.8153 71.9832 4.8211 C72.0247 4.8274 72.0747 4.8305 72.1332 4.8305 C72.1946 4.8305 72.245 4.8274 72.2856 4.8211 C72.3258 4.8153 72.3579 4.8078 72.3825 4.7992 C72.4067 4.7907 72.4239 4.7793 72.4336 4.7645 C72.4434 4.75 72.4485 4.7328 72.4485 4.7133 L72.4485 0.6043 L73.7813 0.6043 C73.8008 0.6043 73.8184 0.5996 73.8344 0.5899 C73.8504 0.5801 73.8637 0.5649 73.8747 0.5442 C73.8856 0.5231 73.8938 0.4957 73.8985 0.4617 C73.9036 0.4274 73.9059 0.3871 73.9059 0.3407 C73.9059 0.2946 73.9036 0.2535 73.8985 0.218 Z M78.0293 4.6309 C78.0196 4.5953 77.9977 4.5336 77.9633 4.4457 L77.5387 3.4024 C77.4899 3.2824 77.4411 3.175 77.3922 3.0801 C77.3434 2.9848 77.2914 2.9004 77.2368 2.8274 C77.1817 2.7539 77.1223 2.691 77.059 2.6387 C76.9954 2.5864 76.9247 2.543 76.8465 2.5086 C76.9856 2.4598 77.1114 2.4 77.2239 2.3293 C77.336 2.2582 77.4325 2.175 77.5129 2.0785 C77.5938 1.9821 77.6551 1.8707 77.6981 1.7449 C77.7407 1.6196 77.7622 1.4774 77.7622 1.3184 C77.7622 1.1551 77.7383 1.0055 77.6907 0.8699 C77.643 0.7344 77.5715 0.6141 77.4762 0.509 C77.3813 0.4043 77.2633 0.3176 77.1231 0.2492 C76.9825 0.1809 76.8207 0.1309 76.6379 0.0989 C76.5743 0.0918 76.5028 0.0852 76.4235 0.0789 C76.3442 0.0727 76.2446 0.0696 76.125 0.0696 L75.118 0.0696 C75.0618 0.0696 75.0086 0.0887 74.9586 0.1266 C74.9086 0.1645 74.8836 0.2309 74.8836 0.3262 L74.8836 4.7133 C74.8836 4.7328 74.8883 4.75 74.8985 4.7645 C74.9079 4.7793 74.925 4.7907 74.9497 4.7992 C74.9739 4.8078 75.0063 4.8153 75.0465 4.8211 C75.0868 4.8274 75.1375 4.8305 75.1985 4.8305 C75.2594 4.8305 75.3102 4.8274 75.3504 4.8211 C75.3911 4.8153 75.4227 4.8078 75.4457 4.7992 C75.4692 4.7907 75.486 4.7793 75.4969 4.7645 C75.5079 4.75 75.5133 4.7328 75.5133 4.7133 L75.5133 2.6953 L75.9348 2.6953 C76.0786 2.6953 76.202 2.7168 76.3043 2.7594 C76.4071 2.8024 76.4961 2.8621 76.5719 2.9391 C76.6477 3.016 76.7129 3.1074 76.7676 3.2137 C76.8227 3.3199 76.8758 3.4364 76.927 3.5633 L77.3629 4.6801 C77.3727 4.7098 77.384 4.734 77.3977 4.7535 C77.411 4.7731 77.4301 4.7883 77.4543 4.7992 C77.4789 4.8102 77.5114 4.8184 77.5516 4.8231 C77.5918 4.8282 77.6438 4.8305 77.7071 4.8305 C77.7805 4.8305 77.8391 4.8282 77.8829 4.8231 C77.927 4.8184 77.961 4.811 77.9856 4.8012 C78.0098 4.7914 78.0258 4.7793 78.0332 4.7645 C78.0403 4.75 78.0442 4.7328 78.0442 4.7133 C78.0442 4.6938 78.0391 4.6664 78.0293 4.6309 Z M77.0387 1.7032 C77.0008 1.8008 76.9418 1.8856 76.8614 1.9574 C76.7805 2.0297 76.6797 2.0856 76.559 2.1258 C76.4383 2.1664 76.295 2.1864 76.1289 2.1864 L75.5133 2.1864 L75.5133 0.5899 L76.0446 0.5899 C76.1692 0.5899 76.27 0.5934 76.3465 0.6008 C76.4235 0.6078 76.4926 0.6203 76.5536 0.6371 C76.7489 0.6934 76.8879 0.7856 76.9711 0.9137 C77.0539 1.0418 77.0957 1.1989 77.0957 1.3844 C77.0957 1.4992 77.0766 1.6055 77.0387 1.7032 Z M81.8782 4.4258 C81.8735 4.3926 81.8649 4.366 81.8528 4.3453 C81.8403 4.3246 81.8262 4.309 81.8106 4.2992 C81.7946 4.2899 81.777 4.2848 81.7575 4.2848 L79.8789 4.2848 L79.8789 2.5891 L81.468 2.5891 C81.4875 2.5891 81.5051 2.5852 81.5211 2.5766 C81.5372 2.568 81.5504 2.5539 81.5614 2.5344 C81.5727 2.5149 81.5805 2.4891 81.5852 2.4574 C81.5903 2.4258 81.5926 2.3879 81.5926 2.3438 C81.5926 2.2977 81.5903 2.2571 81.5852 2.2231 C81.5805 2.1891 81.5727 2.1621 81.5614 2.1426 C81.5504 2.1231 81.5372 2.1078 81.5211 2.0965 C81.5051 2.0856 81.4875 2.0801 81.468 2.0801 L79.8789 2.0801 L79.8789 0.5934 L81.7317 0.5934 C81.7512 0.5934 81.7692 0.5883 81.7848 0.5785 C81.8008 0.5692 81.8137 0.5535 81.8235 0.5328 C81.8332 0.5121 81.8411 0.4856 81.8469 0.4524 C81.8532 0.4196 81.8563 0.3809 81.8563 0.3371 C81.8563 0.2883 81.8532 0.2473 81.8469 0.2145 C81.8411 0.1813 81.8332 0.1539 81.8235 0.1321 C81.8137 0.1102 81.8008 0.0942 81.7848 0.0844 C81.7692 0.0746 81.7512 0.0696 81.7317 0.0696 L79.4832 0.0696 C79.427 0.0696 79.3739 0.0887 79.3239 0.1266 C79.2739 0.1645 79.2489 0.2309 79.2489 0.3262 L79.2489 4.552 C79.2489 4.6473 79.2739 4.7141 79.3239 4.7516 C79.3739 4.7895 79.427 4.8086 79.4832 4.8086 L81.7575 4.8086 C81.777 4.8086 81.7946 4.8035 81.8106 4.7938 C81.8262 4.784 81.8403 4.7684 81.8528 4.7461 C81.8649 4.7242 81.8735 4.6969 81.8782 4.6637 C81.8832 4.6309 81.8856 4.5922 81.8856 4.5485 C81.8856 4.4996 81.8832 4.4586 81.8782 4.4258 Z"/>
  </g>
 </g>
</svg>
