<?xml version="1.0" encoding="UTF-8" standalone="no"?>
<!DOCTYPE svg PUBLIC "-//W3C//DTD SVG 1.1//EN" "http://www.w3.org/Graphics/SVG/1.1/DTD/svg11.dtd">
<svg width="100%" height="100%" viewBox="0 0 314 312" version="1.1" xmlns="http://www.w3.org/2000/svg" xmlns:xlink="http://www.w3.org/1999/xlink" xml:space="preserve" xmlns:serif="http://www.serif.com/" style="fill-rule:evenodd;clip-rule:evenodd;stroke-linejoin:round;stroke-miterlimit:2;">
    <g transform="matrix(1,0,0,1,-159.833,-445.8)">
        <path d="M464.6,686.6L464.6,601.6C464,602 463.3,602.2 462.6,602.3L462.6,684.8C463.4,685.3 464.1,685.9 464.6,686.6Z" style="fill:rgb(176,178,181);fill-rule:nonzero;"/>
    </g>
    <g transform="matrix(1,0,0,1,-159.833,-445.8)">
        <path d="M364.7,719.9C365.1,718.8 365.8,718.1 366.8,717.6L366.8,619.4L381.7,619.4L381.7,617.4L366.8,617.4L366.8,613.4C366.3,613.6 365.7,613.7 365.1,613.8L364.7,613.8L364.7,617.4L269.2,617.4L269.2,612.3C268.8,612.4 268.4,612.4 268,612.4C267.6,612.4 267.2,612.4 266.8,612.3L266.8,617.4L254.3,617.4C254.5,618 254.7,618.7 254.6,619.4L266.8,619.4L266.8,678C267.3,678.7 267.6,679.6 267.7,680.5C268.3,680.9 268.8,681.4 269.2,682L269.2,619.3L364.7,619.3L364.7,719.9Z" style="fill:rgb(176,178,181);fill-rule:nonzero;"/>
    </g>
    <g transform="matrix(1,0,0,1,-159.833,-445.8)">
        <path d="M362.8,730.5L281.4,730.5C280.7,731.5 279.6,732.3 278.1,732.5L363.7,732.5C363.3,731.9 363,731.2 362.8,730.5Z" style="fill:rgb(176,178,181);fill-rule:nonzero;"/>
    </g>
    <g transform="matrix(1,0,0,1,-159.833,-445.8)">
        <path d="M266.8,598.8C267.4,598.4 268.3,598.2 269.2,598.1L269.2,447.8L364.7,447.8L364.7,596.4C364.8,596.4 364.9,598.4 365.1,598.4C365.7,598.4 366.3,598.5 366.8,598.7L366.8,447.8L462.7,447.8L462.7,577.4C463.4,577.5 464.1,577.7 464.7,578L464.7,445.8L169.3,445.8L169.3,673.6L168.3,677.6C169,677.6 170.7,675.7 171.3,676L171.3,447.8L266.8,447.8L266.8,598.8Z" style="fill:rgb(176,178,181);fill-rule:nonzero;"/>
    </g>
    <g transform="matrix(1,0,0,1,-159.833,-445.8)">
        <path d="M176.4,730.5L171.2,730.5L171.2,695.2C170.6,695.4 170,695.6 169.2,695.6L169.2,732.5L176.7,732.5C176.6,731.9 176.4,731.2 176.4,730.5Z" style="fill:rgb(176,178,181);fill-rule:nonzero;"/>
    </g>
    <g transform="matrix(1,0,0,1,-159.833,-445.8)">
        <path d="M169.6,672.2C169.3,671.3 169.2,670.5 168.6,669.8C168.1,669.1 168,668.3 168,667.4C168,660.6 168.1,653.8 168.1,647C168.1,644.9 168.6,642.9 169,640.8C169.4,638.7 169.6,636.6 169.4,634.5C169,631.2 168.9,627.9 168.9,624.6C168.9,623.8 168.7,623.1 168.3,622.5C166.1,619.4 164.2,616.2 162.2,612.9C161.2,611.2 161,609.6 161.8,607.7C164.7,600.4 167.5,593 170.7,585.7C171.1,584.7 171.1,583.9 170.5,583.1C168.3,580.4 167.6,577.1 166.5,573.9C166.1,572.6 165.7,571.3 165.3,570C164,565.7 164.2,561.4 166.4,557.4C168.6,553.4 170.6,549.4 172.5,545.3C175,539.8 177.6,534.4 180,528.9C181.8,524.7 183.9,520.7 185.7,516.6C186.5,514.7 188.2,513.6 190,513.2C192,512.7 194.1,512.2 195.9,511.3C199,509.8 202.3,510 205.6,510C205.9,510 206.2,510.1 206.5,510.2C210.1,512.2 213.8,513.9 217.2,516.3C217.6,516.6 218,516.9 218.1,517.3C219.3,520.4 221.3,523 222.5,526.1C223.2,528 223.9,530 224,532.1C224,532.6 224.3,533.2 224.4,533.7C226.3,539.2 228.8,544.4 231.5,549.6C232.8,552.1 233.8,554.9 234.8,557.5C235.4,559 234.8,560.5 234.6,562C234.2,564.5 233.7,567 233.2,569.5C233.1,570.2 233.1,570.9 232.6,571.5C232.3,571.8 232.5,572.2 232.7,572.5C234.4,576.3 235.8,580.3 237.5,584.2C238.1,585.5 238.5,586.8 238.9,588.2C239.5,590.5 240.9,592.1 243.1,592.9C245.6,593.9 247.7,595.8 250.3,596.4C250.5,596.4 250.7,596.6 250.8,596.7C251.6,598.1 252.8,597.9 253.9,597.6C254.5,597.5 254.8,597.4 254.8,598.1C254.9,598.6 255.3,598.7 255.7,598.7C256.9,598.8 258.1,599.2 259.2,598.9C260.4,598.6 261.5,598.4 262.7,598.5C263,598.5 263.2,598.1 263.4,598C265.1,596.7 267,595.7 269,594.9C268.7,594.1 268.6,593.3 267.2,593.9C266.2,594.3 264.3,592.9 264.1,591.6C264,590.8 263.6,590.3 263.1,589.8C262.5,589.2 261.6,588.8 261.4,587.8C261.4,587.5 261.1,587.5 260.9,587.4C260.3,587.2 259.5,587.2 260.1,586.1C260.2,585.9 260.1,585.6 259.9,585.4C258.7,584.6 258.5,583.2 257.8,582C257.4,581.3 257.7,581.1 258.3,581C258.8,580.9 259.3,581 259.8,581.1C260.4,581.3 260.9,581.4 261.7,581.7C261.2,580.8 260.3,580.4 259.8,580.3C258.1,580 257.2,578.7 256.1,577.6C254.4,575.8 253,573.8 251.3,572.1C250.7,571.6 250.2,571 249.6,570.5C248.8,569.9 248.8,569.2 249.5,568.6C250,568.2 249.9,567.9 249.7,567.4C249.2,566.4 248.6,565.4 248.2,564.4C247.7,563.4 247.2,562.3 247.9,561.1C248.2,560.7 247.8,560.5 247.6,560.2C247.2,559.6 247.1,558.9 247.7,558.4C248.3,557.9 248.9,558 249.5,558.5C250.2,559.2 250.9,559.8 251.4,560.6C252.3,561.8 253.5,562.1 254.8,561.9C255.9,561.8 256.7,562.2 257.4,563C258.5,564.5 259.5,566 260.3,567.7C261.2,569.6 262.4,571.3 264.1,572.5C267.5,574.8 269.2,578.1 269.1,582.4C269.1,582.9 269,583.4 269.3,583.8C270.2,583.2 270.3,582.3 270.3,581.1C271.3,581.8 272,582.5 272.9,583C273.2,583.2 273.2,583.5 273.2,583.8L273.2,586.2C273.2,587 273,587.9 273.9,588.4C274.3,588.6 274.3,589.2 274.3,589.6L274.3,592.2C274.3,593.2 274.5,594 275,595C275.7,596.6 276.9,596.8 278,597.3C279.4,597.9 280.9,598.5 282.1,599.4C283.8,600.7 284,602.4 282.8,604.1C282.6,604.4 282.3,604.8 282.4,605.2C282.8,606.4 282.6,607.5 282.3,608.6C282,609.8 282.7,611 282.8,612.2C282.8,612.6 283.1,612.8 283.3,613.1C284.6,614.2 285.2,615.7 285,617.7C283.9,616.9 282.9,616.2 281.9,615.5C281,614.9 280.1,614.2 279.1,613.6C278.5,613.2 278,613.1 277.5,613.8C277.2,614.3 276.8,614.5 276.3,614.4C273.5,613.9 270.7,614.4 267.8,614.2C266.2,614.1 265.1,613 264,612C263.2,611.2 262.4,611.1 261.5,611.3C259.8,611.6 258.1,612 256.4,612.3C255.7,612.4 255.4,612.7 255.7,613.4C256,614.3 255.5,615.2 255.6,616.1C256.1,620.1 255.7,624.2 256.1,628.3C256.2,629.4 255.8,630.4 255.3,631.4C254,633.8 252.7,636.2 251.4,638.6C250.6,640.2 250.7,640.7 252,641.8C252.3,642.1 252.6,642.4 253,642.6C256.1,644.5 258.2,647.2 259.4,650.7C259.8,652 260.6,653 261.5,654C263,655.7 264.3,657.7 265.8,659.5C266.4,660.3 266.6,661.1 266.7,662C267.7,667.6 268.6,673.3 269.7,678.8C270.4,682.1 271.3,685.4 272.3,688.6C273.3,691.6 273.4,694.7 273.3,697.8C273.3,698.8 273.5,699.6 274,700.4C276.4,704 278.7,707.6 281,711.2C282.1,712.9 283,714.7 283.7,716.6C284.4,718.8 285.3,721 286,723.2C286.6,724.9 286.4,725.5 285,726.5C284.4,726.9 284.1,727.5 283.9,728.1C283.5,729.1 282.8,729.7 282.1,730.3C280.1,732.2 277.9,732.8 275.2,732.8C273.3,732.8 271.3,733.5 269.8,735.3C268.2,737.3 266.4,739.2 264.9,741.3C264.5,741.8 264.1,742.3 263.6,742.6C260.8,744 258.1,745.4 254.9,745.4C253.3,745.4 251.9,745.9 251,747.4C249.9,749.1 248.1,750 247,751.7C246.7,752.2 246.4,752.6 246.2,753.1C245.2,755.8 243.4,757.3 240.6,757.3L229.1,757.3C227.4,757.3 225.9,756.6 224.4,755.9C221.1,754.2 217.5,753.2 214,752C210.2,750.7 206.2,751 202.3,751.6C202.2,751.6 202,751.7 201.9,751.8C200,753.1 197.9,753.1 195.8,753.1C193.7,753.1 191.9,751.8 189.9,751.5C189.6,751.5 189.4,751.3 189.1,751.2C184.3,749.8 181.4,746.6 180.6,741.5C180.5,740.6 180,739.9 179.3,739.3C177.4,737.7 176.4,735.6 176.7,733.1C176.8,731.8 176.3,731.6 175.3,731.6L171.7,731.6C170.6,731.6 170.2,731.2 170.2,730.1L170.2,697.1C170.2,695.9 169.9,695.6 168.8,695.7C167.3,695.8 163.7,695.7 162.2,695.7C161.2,695.7 160.7,695.2 160.8,694.2L160.8,686.3C160.8,686 160.9,685.6 160.5,685.5C159.7,685.3 159.8,684.8 159.9,684.1C160.5,679.7 162.3,675.9 164.8,672.4C164.9,672.2 165.1,672 165.3,671.9C166.5,672.2 167.9,671.9 169.6,672.2ZM252.5,679.6C252.2,680 252.3,680.3 252.3,680.6C252.3,682.6 252.1,684.7 251.6,686.6C251.3,687.5 251.2,688.5 251.4,689.3C251.6,689.9 251.6,690.3 251.6,690.9C251.4,692.2 251.2,693.5 251,694.8C250.2,699.7 248.9,704.5 247.9,709.4C247.8,709.7 247.9,710.2 247.3,709.9C246.5,709.6 246.2,710.1 245.9,710.7C244.4,713.3 243.3,716.2 241.1,718.3C240.9,718.5 240.6,718.7 240.7,719C240.9,719.5 241.2,718.8 241.5,718.9C240.5,721.2 239.7,723.6 236.6,723.1C237.7,719.6 239.5,716.4 241.5,713.3C239.5,714.4 237.9,715.9 236.9,717.9C236.2,719.2 235.8,720.6 235.2,721.9C234.5,723.6 233.7,725.2 232.8,726.8C231.9,728.3 230.2,729.2 229.5,730.8C229.5,730.9 229.3,731 229.2,731C228.1,731.2 227.8,732.1 227.3,733C227,733.5 226.7,734.1 226.1,734.1C223.5,734.3 221,736.2 218.2,734.8L218,734.8C216.9,735 215.9,735.1 214.9,735.6C214.7,735.7 214.4,735.6 214.3,735.9C214.2,736.2 214.6,736.4 214.8,736.5C215.6,736.8 216.4,737.2 217.3,737.5L217.3,737.8C216.2,738.1 215.4,738.7 214.2,738.9C212.7,739.1 211.1,738.7 210.2,740.5C209.4,738.9 208.9,738.8 207.6,739.6C207.3,739.8 207,739.8 206.7,739.8C202.6,740.3 198.4,740.4 194.3,740.3C192.5,740.3 190.8,740.2 189.4,741.6C189.3,741.7 189.2,741.7 189,741.7C189.1,741.4 189.4,741 188.9,740.8C187.8,740.3 186.6,739.8 185.4,739.7C184.9,739.7 184.5,739.9 184.3,740.4C184.2,741 184.5,741.3 184.9,741.5C185.3,741.7 185.8,741.8 186.2,741.9C187.1,742.1 187.6,742.6 187.4,743.7C187.3,744.4 188.4,745.5 189,745.4C190.3,745.1 191.6,744.8 193.2,744.5C191.8,744.1 190.5,744.7 189.2,744C190.7,742.4 192.4,741.7 194.5,741.8C197.4,742 200.1,742.6 202.8,743.4C203.4,743.6 203.8,743.9 204.2,744.5C204.9,745.7 206,746.7 207.4,746.8C208.8,746.9 210.2,746.9 211.5,746.8C212.3,746.8 213,746.5 213.7,746.3C213.7,746.2 213.7,746 213.8,745.9C211.4,745.5 209.1,744.7 207.2,742.9C208.2,742.6 209.1,742.1 209.8,741.4C210.3,741 210.9,740.9 211.5,740.8C213,740.6 214.5,740.7 215.9,740.1C216.6,739.8 216.6,740.3 216.5,740.6C216.1,742.7 217,744 218.9,744.6C219.1,744.6 219.2,744.8 219.4,744.9C219.7,745.1 220,745.1 220.3,744.8C218.9,744.3 218.2,743 218.4,741.6C218.8,741.7 218.6,742.3 219.1,742.6C219.8,739 222.4,737.9 225.4,737.4C224.6,737 223.9,736.9 223.3,736.3C223.9,736.1 224.4,736 224.9,735.9C225.9,735.6 226.9,735.7 227.7,734.9C228.2,734.3 228.6,733.5 229.6,733.8C229.8,733.9 230.3,733.5 230.4,733.3C231,732 232.2,731.4 233.4,730.9C233.5,730.9 233.6,730.8 233.7,730.7C235.1,729.3 236.8,728.2 238.2,726.6C239.6,725 241.4,724 242.8,722.4C242.9,722.3 243.1,722.2 243.3,722.1C244.3,721.9 244.7,721.2 244.6,720.2C244.6,719.6 244.9,719.3 245.4,719C245.5,719.8 245.3,720.4 245.1,721C244.7,722.8 244.7,724.8 243.7,726.4C243,727.6 242.3,728.7 242.8,730.2C244.6,729.9 245,729.6 245.4,727.9C245.7,726.6 246.3,725.4 246.9,724.2C246.9,724.1 247,724 247.1,723.9C247.2,724.1 247.2,724.3 247.3,724.6C248.1,722.6 248.5,720.7 248.8,718.7C248.3,718.9 248.4,719.8 247.7,719.5C246.9,719.1 247.4,718.6 247.5,718.2C248,716 248,713.7 249.6,712C249.7,712 249.7,711.8 249.7,711.8C249.5,709.9 250.7,708.4 250.7,706.6C250.7,705.6 251,704.7 252.2,704.6C252.4,704.6 252.6,704.5 252.6,704.3C252.9,702.4 253.5,700.6 253.5,698.6C252.6,700.2 251.8,701.8 250.6,703.5C250.6,703.1 250.6,703 250.7,702.8C252.5,695.9 253.3,688.9 252.9,681.7C253.2,681.1 253.1,680.3 252.5,679.6ZM203.5,569.4C203.6,569.6 203.6,569.7 203.7,569.9C204.3,571.2 204.5,572.3 204.1,573.9C203.6,575.7 203.9,577.6 205.4,579.1C208,581.7 210.6,584.4 212.7,587.5C212.9,587.8 213.1,588 213.5,587.9C215,587.4 216.6,587 218,586.1C219.4,585.3 220.2,584.1 220.1,582.3C220,579.7 220.1,577.1 220.1,574.5C220.1,573.9 220,573.3 219.6,572.8C219.2,572.3 219.1,571.9 219.2,571.3C219.5,569.6 219.1,568.1 218.2,566.6C216.9,564.5 215.1,562.7 214.1,560.4C213.9,559.9 213.5,559.6 213.2,560.4C212.7,561.6 211.7,562.4 210.7,563.1C210.2,563.5 206.2,563.7 205.8,563.2C204.7,561.8 203,561 202.5,559.1C202.2,558 201.6,557 201.1,555.9C200.8,555.3 200.5,554.7 199.9,554.1C199.7,555.3 199.3,556.3 199.5,557.3C199.8,558.6 200.2,560 201.2,561.1C203.3,563.5 205.2,565.9 207.2,568.4C207.5,568.8 208,569.2 208.2,569.7C206.7,570.3 205.2,568.7 203.5,569.4ZM230.6,713.7C230.2,715 229.4,716.1 228.8,717.3C228.6,717.7 228.3,718.2 228.9,718.6C229.4,719 229.6,718.5 229.9,718.2C231.7,716.4 232.9,714.2 234.3,712.1C237.2,707.6 239.2,702.7 241.7,698C242.5,696.6 243,695.1 243.2,693.5C243.5,691.4 244,689.4 244.3,687.3C244.2,687.3 244.2,687.3 244.2,687.2C243.2,689.2 242.2,691.3 241.1,693.4C240.5,692.3 240.2,693 239.9,693.6C239.1,695.4 238.5,697.1 237.7,698.9C234.9,704.7 231.4,710.2 227.3,715.1C226.9,715.6 226.4,716.2 226.1,716.9C225.9,717.6 225.5,717.9 224.8,717.8C224.1,717.8 223.5,718 223,718.6C221.7,720.1 220.6,721.7 219.8,723.6C219.2,725.1 217.9,726.1 216.1,726.1C218.9,718.2 220.9,710.1 223.6,702.2C223.4,702.4 223.2,702.7 223.1,703C221.1,708 219.4,713 217.8,718.2C217.7,718.6 217.7,719.1 217.3,719.2C215.9,719.8 215.3,721.2 214.4,722.4C213.6,723.5 213.3,724.8 213,726.1C212.8,727 212.4,727.9 211.4,728.1C210.5,728.3 209.5,728.1 208.5,728.1C208.9,727.1 209.3,726.5 210,726C210.9,725.4 211.7,724.7 211.7,723.5C211.7,722.5 212,721.5 212.3,720.6C212.8,718.7 213.3,716.9 213.8,715C212.8,716.6 211,717.5 210.3,719.4C210.1,720.1 209.6,720.6 209.2,721.2C209,721.6 208.6,721.8 208.2,721.9C205.6,722.7 203.7,724.3 202.5,726.8C201.5,729 200.1,730.9 198,732.1C197.8,732.2 197.7,732.3 197.7,732.5C198.7,733.3 199.9,731.9 201,733.1C199.5,733 198.3,733.1 197.3,733.9C197.1,734.1 196.6,734 196.3,734C194.9,734.2 193.5,734.4 191.7,734.3C192.5,735.1 193,735.7 193.7,735.8C195.8,736.2 197.8,735.7 199.8,735.1C201,734.8 202,734.6 203.2,735.1C204.4,735.5 205.7,735.2 206.4,734.2C205.6,733.7 204.5,733.9 203.6,733.1C204.6,732.9 205.4,732.7 206.2,732.5C206.4,732.5 206.7,732.4 206.7,732.1C206.7,731.8 206.4,731.8 206.2,731.8C205.2,731.8 204,731.5 203.3,732.8C203.1,733.1 202.7,733 202.3,732.8C202.9,732 203.5,731.2 204.1,730.4C204.5,729.8 205,729.6 205.7,729.7C207.8,729.9 209.8,729.6 211.9,730.1C214.5,730.7 217.1,730.5 219.7,730.4C220.5,730.4 220.8,730.5 220.5,731.3C220.2,732 220.6,732.1 221.1,732.2C221.7,732.3 222,732.2 222.2,731.4C222.5,730.5 222.2,729 223.8,729C223.9,729 223.9,728.8 224,728.7C224.4,727.2 224.9,725.7 225.3,724.2C225.2,724.2 225.2,724.2 225.2,724.1C224.6,725.4 223.9,726.6 223.3,727.9C223.2,727.9 223.2,727.9 223.2,727.8C223.4,726.9 223.5,726.1 223.7,725C222.4,725.7 221.9,726.7 221.4,727.8C221.3,728 221.4,728.4 221,728.4L215.1,728.4C215.7,727.8 216.3,727.6 217,727.4C219,726.8 220.6,725.6 221.3,723.6C221.9,721.9 222.9,720.5 224.2,719.4C223.7,720.4 223,721.3 222.6,722.4C223.6,722.5 223.7,721.6 223.9,721.1C224.6,719.5 226.4,719 227.2,717.3C228,716.2 229.5,715 230.6,713.7ZM212.1,552.5L212.8,552.5C213.6,552.3 213.7,551.5 213.9,550.9C214,550.6 214,550.3 213.6,550.2C212.7,550.1 212.2,549.4 211.4,549.2C210.3,548.8 210.2,548.2 210.9,547.2C211.2,546.8 211.8,546.7 211.8,546.2C212,545.1 212.7,544.7 213.6,544.5C214,544.4 214.5,544.3 214.5,543.7C214.5,542.8 215,542.7 215.6,542.5C216.4,542.3 217,541.7 216.4,541C215.5,540 215.3,538.8 214.7,537.8C213.7,535.9 213.1,534 214.7,532.1C214.9,531.8 215.1,531.5 215.2,531.2C215.3,531 215.4,530.7 215,530.7L212.4,530.7C211.8,530.8 212.1,531.5 211.8,531.9C211.7,532 211.7,532.1 211.6,532.2C210.2,533.1 208.8,534 207.2,533.9C206.3,533.9 205.8,534.3 205.8,535C205.7,535.9 206.5,536 207.2,536L209.5,536C210.2,536 210.4,536.2 210.2,537C209.7,538.7 208.5,539.3 206.9,539.5C205.6,539.7 204.3,540.3 203.7,541.4C203.1,542.6 202.1,543.4 201.9,544.9C201.6,547.5 202.2,549.7 204,550.5C206.6,551.6 209.3,552.1 212.1,552.5ZM267.1,720.9C267,722 267.3,722.9 266.8,723.9C265.5,726.3 263.8,728.1 261.4,729.3C260.4,729.8 260.3,730.8 259.9,731.9C261.3,731.6 262.3,730.2 263.7,731.3L264,731.3C265.5,730.8 267.1,730.5 268.7,730.3C269.2,730.3 269.6,729.8 270,729.5C270.9,728.8 271.3,727.5 273.1,728.1C274.6,728.6 276.4,728.3 278,728.1C279.3,727.9 280.7,727.3 280.9,725.7C281,724.7 280.9,723.7 280.9,722.3C279.9,724.2 278.2,725 276.8,725.2C274.8,725.5 272.6,725.6 270.5,725.1C270,725 269.8,725.2 269.5,725.5C268.4,726.6 267.7,727.1 266.5,727.4C268.6,725.1 269.1,722.5 268.9,719.7C268.9,719.5 268.9,719.3 269,719.2C270,718.1 270,716.7 269.6,715.5C269,713.6 268.6,711.7 268,709.8C267.7,708.8 267.6,707.8 267.1,706.9C267,710.3 267,713.6 267,717C267,717.6 267,718.1 266.7,718.6C265.1,720.8 263,722.3 260.9,723.9C260.7,724 260.5,724.2 260.2,724C260.7,723.1 261.3,722.2 261.6,721.2C262.2,719.1 262.5,716.9 263.6,715C263.8,714.7 263.8,714.1 263.8,713.7C263.8,711.4 263.8,709.1 263.7,706.7C263.7,706.2 263.6,705.7 264,705.3C264.7,704.7 264.6,703.9 264.6,703.1C264.6,701.5 264.6,700.1 263.7,698.6C263.1,697.6 263,696.3 262.1,695.1C262,696.9 261.9,698.4 262.9,699.8C263.1,700.1 263.2,700.5 263.2,700.9C263.5,703.2 263.3,705.4 263.4,707.7C263.4,708 263.4,708.4 262.9,708.5C262.2,708.6 262.1,709.2 262,709.9C261.9,712.1 261.7,714.3 260.5,716.3C260.1,717.1 260,718 260,718.9C259.9,721 258.9,722.6 257.5,723.9C257.2,724.2 257,726.2 257.2,726.5C257.7,726.9 258.2,726.6 258.7,726.4C262.2,725.5 264.5,723.2 267.1,720.9ZM280.3,607.5C279.7,607 279,607.1 278.3,607C277.8,606.9 277.4,607 277.4,606.3C277.4,605.8 277.3,605.5 277.8,605.1C278.5,604.5 279.1,604.3 280,604.5C280.2,604.6 280.5,604.7 280.6,604.3C280.7,604.1 280.6,603.9 280.6,603.7C280,602.8 279.5,601.9 278.4,601.5C277.2,601.1 276.1,600.3 274.9,600C273.2,599.5 271.3,598.8 269.8,600C268.2,601.2 266.5,601.8 264.8,602.5C264.2,602.7 263.2,602.7 262.9,603.2C262.5,603.7 263.2,604.5 263.4,605.1C263.4,605.2 263.3,605.4 263.4,605.6C263.7,606.4 263.7,607.4 264.6,607.7C265.8,608 266.6,608.9 267.5,609.7C268.3,610.4 269.2,611.1 270.3,611.4C272.2,611.9 274.1,612.3 276,612.8C276.6,613 276.9,612.7 277,612.2C277.5,610.1 278.8,608.9 280.3,607.5ZM165.4,690C165.5,689.5 165.8,689.5 166.1,689.5C169.4,689.1 172.7,689.2 176,689.4C179.7,689.6 183.4,690.4 187.1,689.6C187.5,689.5 188,689.8 188,689C188,688.3 187.7,688.1 187.2,687.9C185.9,687.5 184.6,687.5 183.2,687.5C178.6,687.4 173.9,686.9 169.3,686.8C168.1,686.8 166.3,686.2 165.5,688.1C165.4,688.4 165,688.6 164.7,688.5C163.8,688.3 163.9,688.9 163.8,689.6C163.7,690.5 164.1,691.6 163.4,692.3C163.1,692.6 162.8,692.8 163,693.3C163.2,693.8 163.7,693.6 164,693.6C167.6,693.5 171.2,693.9 174.8,693.7C177.1,693.6 179.5,693.8 181.9,693.8C184,693.8 186.2,693.5 188.4,692.9C185.5,692.7 182.9,692.5 180.3,692.4C176.3,692.2 172.3,691.7 168.4,692.4C167.5,692.6 166.6,692.3 165.7,691.9C168.1,691.1 170.5,691.3 173,690.8C170.3,689.8 167.8,690 165.4,690ZM175.8,579.2C177.1,574.4 178.1,569.7 179.5,565.2C182.3,556.3 185.3,547.4 187.5,538.4C188.1,536.2 187.7,534 187.7,531.7C186.7,534.2 185.8,536.8 184.9,539.4C181.9,547.9 179.8,556.6 177.4,565.3C176.2,569.7 175.2,574.2 175.8,579.2ZM231.5,748.7C230.8,747.9 230.1,747.2 229,746.9C227.6,746.5 226.5,745.2 225,744.9C224.4,744.8 223.8,744.5 223.5,745.2C223.2,745.7 223.3,746.4 223.8,746.7C225.1,747.7 226.1,748.9 227.5,749.8C229.6,751.1 231.6,752.5 233.6,754.1C231.8,754.1 230.3,754.2 228.7,754.1C227.2,754 225.7,753.8 224,753.6C226.2,755 227.8,755.5 230.1,755.5C233.4,755.5 236.6,755.4 239.9,755.5C242.6,755.6 243.6,753.5 243.9,751.3C244.1,749.7 242.8,748.6 243.1,747.1C243,747.1 242.9,747.1 242.9,747.2C241.9,749 241.1,751 238.8,751.7C237.8,752 237,752.3 236.1,751.9C235.5,751.6 234.8,751.4 234.2,751.1C232.9,750.6 231.7,750.1 230.4,749.6C230.8,749 231.4,749.2 231.5,748.7ZM255,716.3C254.9,718.3 254.8,720.5 253.7,722.3C253.2,723.2 252.8,724.1 252.7,725.1C252.5,727 251.4,728.6 250.9,730.4C250.8,730.7 250.6,730.8 250.3,731C248.1,732.6 246,734.3 246.2,737.5C246.2,738.1 246.2,738.8 246.1,739.4C246.1,739.6 246.2,739.9 245.9,740C245.5,740.1 245.5,739.8 245.4,739.5C245.3,738.7 244.9,738.1 244,738C243.3,737.9 243.8,737.3 243.6,737C242.4,738.9 240.6,739.4 238.6,739.1C237.7,738.9 236.4,739.1 236,739.5C235.6,740 235.1,740.1 234.6,740.1C233.9,740.1 233.2,740.3 232.4,740.5C233.4,741.5 234.3,742.3 235.8,742C235.4,743.1 234.7,743.8 234.4,744.8C236.4,744.3 238,743.5 239.3,742C239.7,741.5 240.3,741.4 240.8,741.6C241.2,741.8 241,742.4 241,742.8L241,744.6L241.3,744.6C242.1,743.1 242.9,741.7 243.7,740.1C244.5,741.8 245.5,742.3 247,741.9C248.3,741.5 247.8,740.4 247.9,739.5L247.9,738.9C248.1,736.8 248.3,734.7 250.3,733.3C251,732.9 251.9,732.6 252.3,731.7C253,730 253.9,728.4 254.3,726.7C255,723.3 255.6,719.7 255,716.3ZM215.9,527.6C215.2,525.3 214.2,523.7 213.1,522.1C213,521.9 212.9,521.8 212.7,521.8C211.1,521.8 209.5,521.6 207.9,521.8C206.1,522 205.7,523.8 205.2,525.1C204.6,526.8 203.7,528.1 202.6,529.4C202.2,529.9 201.8,530.3 201.5,531.1C202.6,530.5 204,530.8 204.9,529.9C205.7,529.1 206.8,528.6 207.9,528.4C209.7,528 211.4,527.7 213.2,527.4C214,527.1 214.8,527 215.9,527.6ZM193.3,728C193.1,726.7 192.9,726.5 192.2,726.6C189.4,726.9 186.7,727.4 183.9,726.6C183.4,726.4 183,726.5 183.2,727.3C183.5,728.5 184.3,728.8 185.3,728.8C186.1,728.9 187,728.8 187.8,728.8C187.7,729.2 186.9,729.3 187.1,729.8C187.4,730.2 188,730.5 188.5,730.5C188.8,730.5 189.2,730.4 189.5,730.4C190.2,730.3 190.9,730.1 191.6,730.1C193.2,730.3 194.5,729.5 195.9,729.1C196.6,728.9 197.3,727.3 197,726.9C196.5,726.4 196.9,726.3 197.1,726C198,725.1 199,724.2 199.9,723.3C198,724.1 196.2,725.2 194.5,726.2C194.3,726.3 194.1,726.4 194.2,726.7C194.7,727.8 193.8,727.8 193.3,728ZM202.2,519.5C200.6,522 198.7,524.1 196.8,526.3C196.4,526.7 196.3,527.2 196.2,527.8C196,530.2 195.8,532.7 195.4,535.1C194.1,543.1 192.2,551 191.3,559C191.2,559.5 190.9,560.3 191.4,560.4C192.1,560.5 192.1,559.6 192.1,559L192.1,558.6C192.4,553.8 193.5,549.2 194,544.5C194.4,541.4 195.3,538.4 196.1,535.4C196.5,534.1 196.2,532.5 197.5,531.6C197.6,531.6 197.6,531.3 197.5,531.2C197.1,530.5 197.5,530 197.6,529.4C197.8,528.7 198.1,528.1 198.2,527.5C198.7,525.3 199.9,523.6 201.6,522.3C201.9,522.1 202.1,521.8 202.1,521.4C202.1,520.8 202.2,520.1 202.2,519.5ZM253.3,609.1C254.5,608.6 255.3,607.7 256.4,607.4C256.9,607.3 257.2,606.4 257.2,605.8C257.2,605.5 257.1,605.2 257.4,604.8C258.1,605.9 258.4,607.1 258.6,608.3C258.8,609.3 259.5,609.1 260.1,609.1C260.9,609.1 260.5,608.4 260.5,608C260.6,607.4 260.2,607 260,606.5C259.4,605.2 258.5,604 258.6,602.4C258.6,602.2 258.6,602 258.3,602C257.2,601.8 256,601.5 254.9,601.9C254,602.3 253.3,602.7 253.3,604C253.6,605.6 253.4,607.2 253.3,609.1ZM182.9,741.4C182.9,741.7 182.9,741.8 183,742C183,742.2 183.1,742.4 183.1,742.6C183.2,745.1 184.5,746.9 186.4,748.3C189.1,750.3 192.2,750 195.3,749.8C195.5,749.8 195.7,749.7 195.8,749.5C196.3,748.5 197.2,748.3 198.1,748.4C198.3,748.4 198.6,748.5 198.7,748.2C198.7,748 198.6,747.8 198.5,747.7C197.9,746.9 195.6,746.5 195.1,747.3C194.4,748.3 193.5,748.1 192.7,748.1C190.6,748.3 188.8,747.9 187.1,746.6C185.7,745.5 185,743.7 185.6,742.5C184.6,742.1 183.8,741.8 182.9,741.4ZM259.9,664.2C263.4,671.4 265.3,679.1 267.7,686.8C267.9,686.1 267.7,685.6 267.7,685.1C267.2,681.5 265.9,678.1 264.7,674.7C264.2,673.2 263.6,671.6 263.7,669.9C263.9,668.1 263.2,666.5 262.7,664.8C262.6,664.5 262.6,664.1 262.2,664.2C261.6,664.4 260.8,664 259.9,664.2ZM272.6,719.2C273.8,718.8 274.6,718.5 275.2,718C275.7,717.6 276.5,717.6 276.2,716.6C276,716 276.3,715.2 275.8,714.7C275.3,714.2 274.6,713.8 276,713.7C276.4,713.7 276.2,713.3 276.1,713.1C275.4,711.3 274.6,709.5 273.9,707.7C273.7,707.3 273.4,707.2 273,707.3C272.6,707.5 272.9,707.8 272.9,708.1C273.1,708.8 273.6,709.5 273.4,710.3C272.9,713.2 273.8,716.1 272.6,719.2ZM186.1,737.3C184.8,736.4 183.5,735.9 183,734.7C182.2,732.7 181.1,733.1 179.7,733.7C179.1,733.9 179,734.1 179,734.7C179.1,736.6 180.5,737.7 181.8,738.7C181.9,738.8 182.1,738.9 182.2,738.7C183.2,737.9 184.6,737.8 186.1,737.3ZM226.9,681C229.3,679.1 231.7,677.3 234.1,675.3C234.7,674.8 235.4,675.1 235.8,674.5C236.7,673.3 237.5,672.1 238.4,670.9C237.8,670.9 237.3,671.3 236.8,671.3C236.1,671.4 236.4,672.2 235.7,672.3C234.1,672.6 232.6,673 232,674.9C231.7,675.6 230.9,676.1 230.4,676.7C229.1,678.2 227.7,679.3 226.9,681ZM234.6,617.2C236.1,612.4 238.6,608.2 239.6,603.5C239.2,604.6 238.2,605.2 237.6,606.3C236.3,608.8 235.2,611.3 234.1,613.8C233.8,614.8 233.8,615.9 234.6,617.2ZM188.6,583.9C191.5,580 191.6,575.3 191.7,570.5C191.5,570.9 191.4,571.2 191.3,571.4C190.6,574.2 189.7,577 188.5,579.6C188,581.2 188.1,582.5 188.6,583.9ZM199.6,704.3C196.6,707.9 193.5,711.4 191.1,715.5C195.6,713.2 197.6,708.8 199.6,704.3ZM176.5,617.8C177.2,614.6 177.8,611.7 178.5,608.8C178.7,608 178.6,607.3 178.1,606.5C178,606.9 177.9,607.2 177.8,607.4C177.2,609.4 177.1,611.5 176.4,613.4C175.8,615 176.1,616.2 176.5,617.8ZM172.2,712.6C172.6,712.3 172.5,712 172.5,711.6C172.6,709.5 172.7,707.4 172.7,705.3C172.7,703.5 173.1,701.8 173.1,700.1C173.1,699.7 173.2,699.2 172.6,699.2L170.3,699.2C170.8,699.5 171.4,699.4 171.7,699.7C172.1,700.1 172.6,703.4 172.2,703.8C171.8,704.2 171.8,704.6 171.8,705.1L171.8,711.4C171.8,711.8 171.6,712.3 172.2,712.6ZM253.3,740.5C254.5,739.4 255.6,738.4 256.8,737.6C257.2,737.3 257.2,736.9 257.1,736.6C256.8,735.8 256.1,735.4 255.3,735.2C254.9,735.1 254.7,735.4 254.5,735.8C254.2,737.2 253.6,738.7 253.3,740.5ZM187.1,724.7C189.2,724.9 191,724.8 192.8,724.2C194.4,723.7 194.6,723.5 194.2,721.5C192.1,723 189.7,723.7 187.1,724.7ZM175.6,699.2C176.9,699.8 178.6,700.1 179.2,699.7C179.9,699.2 180.4,699.4 181,700C181.6,700.5 182.3,701 183,700.1C183.5,699.5 184.2,699.6 184.7,700.1C184.9,700.3 185,700.7 185.4,700.5C186.1,700.1 186.8,699.8 187.5,699.5C187.5,699.4 187.5,699.4 187.4,699.3C183.7,699.2 179.8,699.2 175.6,699.2ZM195.3,695.4C191.8,695.3 188.5,695.7 185.3,696.4C187.9,696.5 190.6,696.4 193.2,696.7C194.1,696.9 194.8,696.5 195.3,695.4ZM230.7,613.9C230.1,615.2 229.7,616.2 229.8,617.4C229.9,618.7 229.8,620.1 229.8,621.4C229.8,621.7 229.8,622.1 229.9,622.4C230,622.6 230.2,622.8 230.4,622.5C230.8,621.9 231.3,621.3 231.1,620.6C230.6,618.5 230.7,616.4 230.7,613.9ZM258.4,716.3C259,711.9 259.1,707.5 258.9,703.1C257.7,707.4 258.8,711.9 258.4,716.3ZM200.6,627C198.9,624.3 197.8,621.3 196,618.4C196.5,621.6 198.7,625.9 200.6,627ZM195.9,714.7C193.2,717.2 190.1,718.9 187.3,721.6C188.3,721.4 189,721.3 189.5,720.6C190.1,719.8 190.9,719.2 191.8,718.7C192.7,718.2 193.6,717.6 194.6,717C195.4,716.5 195.8,715.7 195.9,714.7ZM253.9,674.9C254.9,673.8 255.4,672.4 256.8,671.9C257.2,671.7 257,671.4 256.9,671.1C256.8,670.9 256.8,670.5 256.3,670.6C254,670.9 254,670.8 253.9,673.3L253.9,674.9ZM205.7,712.7C203.6,714 201.5,715.5 199.3,716.7C198.7,717.1 198.4,717.7 198.1,718.5C200.9,716.8 203.4,714.9 205.7,712.7ZM239.9,707.4C241.4,707.5 243.4,703.3 242.6,701.8C241.7,703.7 240.8,705.5 239.9,707.4ZM194.4,568.3C194.5,567.1 194.8,565.9 195,564.6C195.2,563.4 195.4,562.2 195.5,561.1C195.6,560.6 195.3,560.1 194.7,560.1C194.1,560.1 194.4,560.6 194.4,560.9L194.4,568.3ZM167.6,682.8C166.8,681.6 165.6,682 164.6,681.8C163.6,681.7 163.1,682.2 162.7,683.1C162.6,683.3 162.4,683.4 162.6,683.6C162.8,683.8 163,683.8 163.2,683.5C163.8,682.7 164.6,682.8 165.4,682.8L167.6,682.8ZM183.3,625.2C183.4,626.1 181.6,626 182.4,627.3C183,628.1 183.6,628.7 184.5,628.7C184.8,627.2 183.8,626.3 183.3,625.2ZM172.9,672.1C172.1,669.7 170.9,667.4 170.5,664.6C169.9,667.9 171.4,670 172.9,672.1ZM215.9,698.8C217.7,697.6 219.7,696.7 220.4,694.1C218.5,695.5 217.1,697 215.9,698.8ZM194.9,721.3C195.7,721 196.4,720.6 197.2,720.4C197.6,720.3 198,720.1 198,719.5C198,719.1 197.9,718.8 197.5,718.7C196.9,718.5 196.6,718.8 196.3,719.2C195.8,719.9 195.5,720.7 194.9,721.3ZM178.9,606C179.4,604.1 179.7,602.2 179.6,600.3C179.3,602.2 178.1,603.9 178.9,606ZM233.8,597.8C235.4,598.7 236.2,597.3 237.3,596.5C235.8,596.2 234.6,596.5 233.8,597.8ZM219.1,751.7C218.6,751.1 217.9,750.9 217.8,750.1C217.6,749.1 216.8,749.5 216.3,749.4C216.1,749.4 215.9,749.8 215.8,750.1C215.7,750.4 216,750.5 216.2,750.6C217.1,751 218,751.5 219.1,751.7ZM212,629.1C213.5,629.9 214.8,629.5 216.1,628.8C214.6,627.5 213.4,629.3 212,629.1ZM195.6,690.7C194.5,690.2 193.5,689.7 192.4,689.2C192,689 191.8,689.3 191.6,689.7C191.5,690 191.6,690.2 191.9,690.3C193.2,690.5 194.3,690.9 195.6,690.7ZM261.3,660.5C260.9,659.8 260.5,659.2 260,658.6C259.7,658.2 259.3,658.3 259,658.5C258.6,658.7 258.9,659.1 259,659.3C259.4,660.3 260.4,660.2 261.3,660.5ZM211.8,705.1C214.2,705 214.7,704.6 215.3,702.6C214.1,703.4 213,704.2 211.8,705.1ZM257.8,570.5C258,569.6 256.7,566.6 256.1,566.4L255.8,566.4C255.6,566.5 255.7,566.7 255.8,566.8C256.4,568.1 257,569.3 257.8,570.5ZM254.1,569.7C253.7,568.4 252.1,566 251.3,565.4C252,567.5 253.3,569.5 254.1,569.7ZM232.5,668.4C233.6,667.7 234.7,667.1 236,666.4C233.8,665.3 233.6,667.6 232.5,668.4ZM249.9,605.7C250.2,604.7 250.6,603.7 250.9,602.7C249.4,602.8 249.4,602.8 249.9,605.7ZM232.2,607.2C231.4,607.7 231.1,608.4 230.7,608.9C230.3,609.4 230.6,609.9 231,610.1C231.4,610.3 231.7,609.9 231.8,609.5C231.9,608.8 232,608 232.2,607.2ZM246.7,671.7C247.3,671.2 247.8,670.8 248.6,670.8C249,670.8 248.9,670.4 248.9,670.2C248.9,669.9 249,669.5 248.6,669.4C248.3,669.2 248.1,669.4 247.9,669.7C247.6,670.3 246.9,670.8 246.7,671.7ZM185.4,616.2C184.8,616.8 184.6,617.5 184.5,618.3C184.4,618.6 184.4,619 184.9,619C185.3,619 185.4,618.7 185.4,618.5L185.4,616.2ZM243.5,642.1C243.6,641.7 243.3,641.5 243.1,641.3C242.8,640.9 242.6,640.3 242,640.3C241.9,640.3 241.8,640.6 241.7,640.8C241.6,641.6 242.3,641.7 242.7,642.1C242.9,642.1 243.2,642.3 243.5,642.1ZM249.9,744.4C249.3,744.4 248.9,744.5 248.5,744.5C248,744.5 248,744.9 248,745.3C248,745.6 247.9,745.9 248.2,746C248.6,746.1 248.7,745.7 248.9,745.5C249.2,745.3 249.4,745 249.9,744.4ZM177.3,675.9C177,675.6 176.8,675.2 176.5,674.9C176.3,674.7 176.2,674.3 175.8,674.4C175.7,674.4 175.7,674.7 175.7,674.8C175.7,675.2 175.7,675.5 176.1,675.7C176.4,675.9 176.8,676.2 177.3,675.9ZM188,627.7C187.9,629.2 188.4,629.7 189.8,629.7C189.1,629.1 188.6,628.5 188,627.7ZM259.7,742C261.8,741.4 262.2,741.1 262.8,739.9C261.8,740.6 260.8,741.3 259.7,742Z" style="fill-rule:nonzero;"/>
        <path d="M395,598.8C396.4,597.6 396,596.1 395.9,594.8C395.8,594 395.9,593.3 396.4,592.7C399.8,588.3 402,583.3 405,578.7C405.3,578.3 405.8,577.7 404.9,577.3C404.5,577.1 404.6,576.7 404.9,576.4C407.4,572.9 409.3,569 412.9,566.5C414.4,565.5 415.7,564.1 417.1,563C417.6,562.6 418,562 418.5,561.9C420.1,561.7 419.6,560.7 419.4,559.8C419.2,559.1 419.2,558.4 419.2,557.7C419.2,555 419.2,555 416.7,554C415.9,553.7 415.2,553.5 414.3,553.6C412.6,554 411,553.5 409.5,553.1C407.6,552.6 406.6,551.1 406.2,549.2C405.8,547.4 406.1,545.5 405.7,543.6C405.4,542.3 405.1,541 404.7,539.7C404.3,538 404.1,536.2 404.1,534.5C404.1,533.9 404.2,533.3 404.7,532.9C405.9,531.9 406,531.1 405.1,529.9C404.7,529.4 404.6,528.9 404.9,528.2C405.5,526.9 406,525.7 406.6,524.4C407.1,523.3 406.8,522.6 405.7,522.3C404.2,521.9 403.7,520.7 404.3,519.2C404.4,518.9 404.6,518.7 404.7,518.5C405,517.8 405.3,517.2 405,516.2C404.6,515.2 405.3,514.3 406.2,513.7C406.5,513.5 407,513.5 407,512.9C407,511.7 407.9,511.3 409,511.3L410.7,511.3C411.2,511.3 411.7,511.3 411.7,510.6C411.7,509.9 412.8,510.8 412.7,509.9C412.6,509.4 412.5,508.9 412.9,508.5C413.2,508 413.7,507.9 414.3,507.9C415.5,508 416.6,508 417.8,508.1C418.5,508.2 419.1,508.5 419.4,509.2C419.9,510.3 420.8,510.6 421.9,510.7C423.6,510.8 425.3,510.4 427,510.7C429.1,511 430.8,512.1 432.6,512.9C433.8,513.4 434.8,514.2 436,514.8C437.4,515.6 438.4,516.7 438.8,518.2C438.9,518.5 439.2,518.7 439.4,518.9C440.3,519.9 441.2,520.9 441.4,522.3C441.6,523.8 442.4,524.1 444.5,524.1C445.9,524.1 446.3,524.4 446.2,525.7C446,527.6 446.7,529.2 447.5,530.8C448.3,532.2 448.7,533.7 447.3,535.1C447,535.4 447.1,535.7 447.1,536C447.1,536.7 447,537.3 446.5,537.9C446,538.5 446.3,539.4 446.3,540.1C446.4,541.1 445.9,541.5 445,541.7C443.9,542 442.8,541.8 441.7,541.9C440.8,541.9 439.9,542.6 439,541.6C438.7,541.3 438.2,542.3 438.3,542.7C438.7,544 438,544.5 437.1,545.1C436.1,545.7 435.7,546.6 435.3,547.7C435.2,548.1 435.3,548.4 435.5,548.7C436.3,550 437.1,551.2 438.1,552.3C438.4,552.6 438.7,552.7 439,552.7C439.9,552.7 440.9,552.6 441.8,552.7C443.3,552.9 444.6,552.4 445.8,551.5C447.1,550.6 448.1,551 448.7,552.5C449.4,554.4 450.4,555.6 452.7,555.7C454,555.7 455.1,556.9 456.1,557.8C458.6,560 460.6,562.7 462.6,565.3C464,567.2 464.8,569.6 464,572.2C463.8,572.8 464,573.4 464.4,573.9C465.7,575.6 467,577.4 468.1,579.1C470.1,582.2 472,585.6 471,589.6C470.3,592.4 470.3,595.4 469.2,598.1C468.4,600.1 467,601.6 465.8,603.3C464.9,604.5 464,605.6 463.9,607.3C463.3,613 463.8,618.7 463.7,624.4C463.7,626.6 462.5,628.2 461.4,629.9C461.2,630.2 460.8,630.5 460.7,630.9C460.1,632.7 459.2,634.3 458.3,636C458,636.5 457.8,637.1 458.2,637.6C460.1,640 460.4,643 461,645.8C462.2,652 462.9,658.2 462.5,664.5C462.3,668 462.6,671.5 461.8,675C461.6,675.9 460.8,676.8 461,677.5C461.2,678.2 462.2,678.7 462.8,679.4C464.7,681.7 466,684.4 468.4,686.3C468.8,686.7 468.8,687.2 468.9,687.8C469.4,694 469.6,700.3 469.4,706.5C469.3,708.7 469.3,710.9 469.6,712.9C470.1,716 468.1,718.1 467.2,720.5C467.1,720.9 466.8,721.2 466.5,721.6C467.2,721.8 467.8,721.8 468.4,721.5C470.3,720.7 471.7,721.8 473,722.7C474,723.4 473.7,724.6 473.5,725.7C473,728.4 472.5,731 472.8,733.8C472.9,735.1 472.5,736 471.5,736.9C469.9,738.2 468.3,739.6 467,741.2C465.9,742.7 464.4,743.4 462.8,743.9C458.4,745.4 453.9,746 449.4,744.3C447.4,743.5 445.3,743.3 443.1,743.8C442,744 440.7,743.7 439.6,744C439.4,744.1 439.1,744 439,744.1C437.7,745.6 436,745.2 434.4,745.2L419.5,745.2C418.3,745.2 417.3,745.5 416.4,746.2C413.4,748.4 410.2,748.2 406.9,747.4C406.2,747.2 405.6,747.1 404.9,747.4C402.9,748.4 400.7,748.1 398.6,748.3C394.9,748.6 391.2,748.8 387.5,749C386.6,749 385.7,748.6 384.9,748.4C381.1,747.6 379,744.9 377.1,741.9C376.3,740.6 375.4,740 373.9,739.7C371.1,739.2 368.6,738 365.9,737.1C364.4,736.5 363.3,735.3 362.1,734.3C361.7,734 361.6,733.5 361.6,733C361.5,729.6 361.3,726.3 361.1,722.9C361,721.5 361.7,720.4 362.4,719.4C363.8,717 365.2,714.6 366.7,712.2C367,711.8 366.9,711.4 366.8,710.9C366.5,709.1 366.3,707.3 366,705.4C365.9,704.7 366,704 366.2,703.3C368.7,693.8 371.2,684.2 373.7,674.7C374.5,671.8 374.4,668.8 374.7,665.9C375.3,659.9 375.8,653.9 376.3,647.9C376.6,644.1 376.7,640.3 377.4,636.6C378,633.2 377.6,629.8 377.9,626.3C378,625.1 378,623.8 379.2,623.1C381.3,621.9 381.4,620.1 381.1,618.1C380.8,616.1 380.8,616.2 378.9,615.9C377,615.6 375,615.3 373.1,615C372,614.8 370.9,615.2 369.7,615.2C367.6,615.2 365.6,615 363.5,615.4C362,615.7 360.6,615.4 359.8,613.7C359.5,613 358.5,612.6 358,612C357.6,611.6 357.5,612.1 357.4,612.4C357,613.9 356.1,615.1 355.3,616.4C355,616.8 354.8,617.1 354.3,617.2C352.9,617.7 352.4,617.3 352.4,615.9C352.5,614 353,612.2 354,610.6C354.2,610.3 354.4,609.9 354.8,609.7C355.4,609.5 356.3,609.5 355.7,608.4C355.4,607.9 355.8,607.1 354.9,606.7C354,606.3 354,605.1 354.6,603.9C355.5,602.3 356.4,600.7 356.9,598.9C357.3,597.3 359,596.5 360.6,597C361.6,597.3 363.3,596.7 363.6,595.9C365.4,591.5 368,587.5 370.1,583.2C371.8,579.7 373.6,576.1 375.6,572.7C375.8,572.4 376,572 376.3,571.7C375.4,575.2 374.8,578.9 373.8,582.4C373.6,583.2 373,584 372.5,584.7C370.4,587.9 369.3,591.5 368.2,595.1C368.1,595.6 368.1,595.9 368.7,596C369.5,596.2 370.3,596.5 371.2,596.5C372.1,596.5 373.4,597.7 373.7,598.6C374,599.7 374.5,600.5 375.7,600.8C376.3,600.9 376.7,601.5 377.3,601.8C378.8,602.8 380,602.4 380.9,600.8C381.6,599.6 382.8,598.8 383.8,597.9L384.1,597.9C385.6,598.3 387.3,598.6 388.7,599.2C390.2,599.9 391.7,599.8 393.2,600.1C394.3,600.3 395.4,600.5 396.5,600.7C398,601 398.6,600 399,599C400.2,595.8 402.3,593 403.8,589.9C404.3,588.9 405,588 405.5,587C406.1,585.8 406.9,584.5 406.5,583C406.4,582.8 406.3,582.6 406.2,582.4C405.9,582.4 405.7,582.7 405.7,582.8C405.9,584.3 404.9,585.3 404.2,586.5C402.4,589.3 400.6,592.2 398.8,595C398.7,595.2 398.5,595.4 398.4,595.7C398.2,597.6 397.3,598.5 395,598.8ZM431,540.8C430.2,541.2 429.5,541 429.2,540.3C428.9,539.6 429.4,538 429.9,537.8C430.8,537.4 431.3,536.7 432,536C432.3,535.7 432.2,535.5 431.9,535.4C431.6,535.3 431.3,535.1 431.1,534.9C430.5,534.5 430.1,534.3 430.1,535.3C430.1,535.8 429.7,536.5 429.1,536.2C428.4,535.8 427.6,535.8 427,535.1C426.5,534.5 425.7,534.3 424.8,534.2C423.6,534.2 422.5,533.7 422.1,532.4C421.9,531.8 421.6,532 421.1,531.9C419.9,531.8 418.7,531.8 417.7,530.9C416.9,530.2 416.4,529.2 415.5,528.7C415.3,528.6 415.3,528.4 415.4,528.2C415.8,527.4 415.3,526.7 415.5,525.6C413.3,527.5 411.9,526.7 410.9,524.4C410.4,525.1 410,525.5 409.3,525.7C408.5,525.9 408.2,527 408.7,527.1C409.7,527.4 410.1,528.4 411.1,528.8C411.6,529 412.1,529.5 412.1,530.1C412.1,531 412.3,531.9 412.1,532.8C411.9,533.7 411.4,534.3 411,534.9C410,536.5 409.9,538.6 408.8,540.1C408.5,540.5 408.4,541.2 409,541.2C410,541.2 410.8,541.9 411.8,541.8C412.6,541.7 412.6,542 412.4,542.7C411.9,544.1 412.6,545.4 414,545.8C414.5,546 415,546.1 415.3,546.8C414.1,546.9 413,546.8 412.1,547.7C411.4,548.4 410.7,548.3 410.3,547.4C410.2,547.1 410.4,546.7 409.9,546.6C408.6,549.1 409.4,550.6 412.1,550.7L414.3,550.7C415.4,550.8 416.5,550.9 417.6,551.3C418.2,551.5 418.7,551.7 419.4,551.6C420.4,551.4 420.8,551.9 420.8,552.8C420.8,553.9 421.2,555 421.8,556C422.4,557.2 423.3,558.3 423.3,559.7C423.3,560.5 423.6,560.7 424.4,560.7L428.4,560.7C428.6,560.7 428.9,560.7 429.1,560.6C430.8,559.5 432.3,558.1 433.6,556.6C435.3,554.6 435.5,552.7 433.7,550.7C432.9,549.8 433.1,548.3 431.7,547.5C430.9,547.1 430.2,546.5 429.3,546.3C428.6,546.2 427.4,544.7 427.7,544.2C428,543.6 428.8,544 429.3,543.9L429.8,543.9C431.7,543.9 432,543.7 432.7,541.8C432.4,541.6 432.2,541.7 431.9,541.8C431.6,541.9 431.2,542.1 431,541.8C430.8,541.5 431.2,541.3 431.3,541C431,541.1 431,541 431,540.8C432,541 433.1,541.6 433.5,540C433.6,539.7 434.1,539.5 433.7,539.2C433.4,538.9 433.1,539.2 432.8,539.5C432.4,540.2 431.9,540.8 431,540.8ZM406.5,577.7C407.1,577.8 407.7,577.8 407.7,578.7C407.7,579.2 407.9,579.8 408.2,580.3C408.8,581.7 409.7,583.1 410,584.6C410.4,586.3 411.4,587.1 412.7,587.8C414.3,588.7 416.1,589.5 417.7,590.3C418.4,590.6 419,590.8 419.8,590.7C422.5,590.4 425.3,590.1 428,589.9C429.1,589.8 430.2,589.7 431.3,589.6C431.8,589.6 432.3,589.6 432.5,590.1C432.8,590.7 432.1,590.8 431.8,591C430.7,591.8 429.5,592.6 428.4,593.5C427.6,594.1 426.8,594.3 425.7,594.2C421.6,593.6 417.7,592.5 413.8,591C413.3,590.8 412.8,590.5 412.5,591.4C411.7,593.4 410.7,595.3 409.9,597.3C409.7,597.8 409.4,598.4 409.6,598.8C410.1,599.4 409.7,599.7 409.5,600.1C408.7,601.5 409,602.5 410.4,603.4C411.4,604 411.5,603.6 411.7,602.7C412.2,600.4 412.7,598.2 413.2,595.9C413.2,595.7 413.2,595.3 413.7,595.3C413.6,596.9 413.5,598.5 414.6,599.8C414.7,600 414.6,600.3 414.6,600.6C414.2,603.1 414.2,603.1 416.7,603.4L417.3,603.4C417.9,603.3 418.1,603.6 418.2,604.1C418.3,604.5 418.6,604.8 418.7,605.2C419.2,606.1 419.7,606.3 420.7,605.6C423.7,603.6 426.6,601.5 430.2,600.7C430.8,600.6 431.5,599.8 431.9,600.3C432.4,601 431.6,601.6 431.1,602.1C429.9,603.5 428.7,604.9 427.4,606.5C428.8,606.7 430.1,607 431,606.4C432.1,605.7 433.1,605.9 434.2,606C436.6,606.2 438.9,605.8 440.8,604.3C442.4,603.1 444.3,603.3 446.1,603.2C444.7,603.2 444,603.8 443.8,605.1C443.7,605.6 443.2,605.9 442.8,606.2C440.5,607.7 438.1,608.8 435.2,608.6C435.4,609.2 435.8,609.3 436.1,609.6C438.2,611.4 440.4,612.9 442.4,614.8C443,615.4 443.5,616 443.8,616.7C444.4,618 443.8,619.1 442.4,619.4C441.2,619.6 440.1,619.6 439,619.2C434.9,617.9 430.8,616.6 426.8,614.9C426.5,614.8 426.2,614.7 426.1,614.5C424.7,612.8 422.7,611.6 421.6,609.6C421.3,609.1 421,609.1 420.4,609.2C416.9,609.7 413.4,609.9 410,608.8C408.1,608.2 406.2,607.4 404.5,606.4C402.8,605.4 400.4,606.3 399.1,604.4C399,604.3 398.7,604.2 398.6,604.2C397.9,604.1 397.4,603.8 396.9,603.3C396.4,602.8 395.4,602.6 394.7,603.1C393.9,603.6 393.2,603.5 392.5,603.2C390.1,602.2 387.6,601.7 385.2,600.9C384.6,600.7 384.4,600.8 384.3,601.5C384.2,608 384.4,614.5 386.2,620.9C386.4,621.6 386.5,622.3 386.7,623C387.3,625.2 387.5,627.5 388.1,629.7C388.6,631.4 389.7,632.7 390.1,634.4C390.3,635.1 390.7,635.4 391.5,635.5C394,636 396.6,636.6 399.1,637.1C400.2,637.3 401.2,638 402.4,638C406.8,637.8 411.1,638.2 415.4,639.3C416.9,639.6 419.2,640.3 420.2,637.8C420.2,637.7 420.4,637.6 420.5,637.6C421.5,637.6 422,637 422.3,636.1C423,637 423.9,637.1 424.9,637.2C424.7,636.9 424.6,636.7 424.5,636.6C423.9,635.7 423.2,634.9 422.4,634.1C422.2,633.9 422,633.6 422.2,633.4C422.4,633.2 422.6,633.4 422.8,633.5C423.7,633.8 424.5,634.1 425.4,634.4C427.4,635 429.3,635.7 431.8,636C430.3,634.6 429.2,633.2 427.3,633C426,632.8 424.5,632.8 423.7,631.3C423.6,631.1 423.3,631 423.1,630.9C420.9,630.5 419.2,629 417,628.6C416.2,628.5 415.5,628.3 415.1,627.1C414.2,624.5 412.3,622.4 410.9,620.1C409.9,618.5 410.5,617.2 410.4,615.7C411.2,617 412.7,617.7 413.3,619.1C413.8,620.1 414.4,620.8 415.2,621.5C417.9,623.6 420.9,625.2 423.4,627.5C423.6,627.7 423.9,627.8 424.2,627.8C426.6,628.4 428.9,629.1 431.3,629.4C432.2,629.5 433.2,629.6 433.7,630.6C433.8,630.8 434.1,630.8 434.5,630.6C431.9,627.9 428.9,625.8 426.3,622.9C428.3,622.7 429.8,623.1 431,623.9C432.8,625.1 434.2,626.9 436.4,627.5C437.4,627.8 438.2,628.8 439.1,629.5C439.9,630.1 441.6,629.9 442.1,629.1C443,627.9 444.1,627.9 445.1,629.2C445.8,630.1 446.6,629.8 447.4,629.7C448.1,629.6 447.6,628.8 447.7,628.4C447.8,628.1 447.6,627.9 447.9,627.5C448.5,628.5 450.1,628.3 450.6,629.8C450.7,630 452.1,630.3 452.7,629.5C453.1,628.9 453.4,628.2 453.6,627.5C453.7,627.2 453,627.2 452.6,626.9C452.5,626.8 452.3,626.7 452.3,626.6C452,625.3 451,624.2 450.7,622.9C451.3,622.7 451.8,622.9 452.3,623.1C454,623.6 455.7,624.3 457.6,624C458,624 458.3,624.1 458.5,624.5C458.8,625 459,624.9 459.2,624.4C460,623.1 460.5,621.7 461,620.2C461.1,619.8 461.1,619.5 460.8,619.2C460,618.5 460.1,617.7 460.7,617C461,616.6 461.4,616.3 461.5,615.8L461.5,611.5C460.9,611.8 460.9,612.3 460.7,612.6C460.4,613.1 458.9,613.4 458.3,613.1C457.6,612.7 458,612.1 458.2,611.6C458.7,610.6 459.2,609.6 459.6,608.6C459.8,608.2 460.2,607.8 460.1,607.3C459.8,606.1 460,604.8 460,603.6C460,603 460.1,602.4 459.7,601.9C459,601 459.5,600.3 460.3,599.8C461.1,599.3 461.8,598.8 462.6,598.5C465.4,597.5 466.5,595.5 467,592.6C467.5,589.6 467.9,586.7 468.5,583.8C468.7,582.9 468.5,581.9 467.7,581.2C466.3,580 464.5,579.5 462.8,579.1C462.1,578.9 461.6,578.6 461.7,577.8C461.8,574.6 461.1,571.5 461.6,568.4C461.7,567.6 461.6,566.9 461,566.3C459.8,565 458.7,563.7 457.5,562.4C456.6,561.4 455.6,560.5 454.7,559.5C454.6,559.6 454.5,559.7 454.5,559.7C455.5,561.2 456.8,562.5 458,563.9C459.2,565.3 459.3,566.7 459,568.4C458.8,568.4 458.7,568.4 458.5,568.3C456.3,567.7 454.7,565.7 452.4,565.3C452.2,565.3 452.2,565 452.1,564.9C451.8,564.2 451.4,563.6 451.4,562.7C451.4,562.4 450.8,562.4 450.5,562.4L448.6,562.4C448.3,562.4 447.9,562.6 447.8,562.1C447.7,561.7 447.8,561.4 448.2,561.2C448.7,560.9 449.2,560.5 449.7,560.3C450.3,560 450.4,559.4 450.4,558.9C450.4,558.4 449.8,558.5 449.5,558.4C447.8,558.1 446.6,557.3 446.4,555.4C446.3,554.7 446,554.7 445.4,554.9C444.3,555.3 443.8,556.2 443.3,557.1C442.9,557.7 442.6,558.1 442,558.4C440.7,558.9 439.6,559.7 438.5,560.5C437.2,561.4 435.9,562.2 434.5,562.8C433.5,563.2 432.5,562.8 431.6,563.4C429.6,564.7 427.3,565.3 425.5,566.9C424.5,567.7 423.5,568 422.4,567C422.2,566.8 421.9,566.7 421.6,566.7C420.8,566.5 420.5,566 420.4,565.2C420.3,564.9 420.5,564.5 420.1,564.2C419.4,564.8 418.2,565.1 419.4,566.3C419.5,566.4 419.5,566.7 419.4,566.9C419,567.5 419.3,568.1 419.4,568.6C419.4,569 419.5,569.6 419.3,569.9C418.3,571.2 418.9,573.1 417.8,574.4C418.2,574.1 418.5,573.8 418.9,573.5C419.2,573.9 419.4,574.5 419.7,574.7C420.7,575.3 420.8,576.2 421,577.2C421,577.5 421.1,577.8 421.2,578.1C421.4,578.9 421.4,579.9 422.6,579.7C422.9,579.7 423.1,579.9 423.1,580.2C423.2,581.6 421.6,582.9 420.2,582.6C418.5,582.2 416.9,581.7 415.2,581.4C414.3,581.2 413.7,580.7 413,580C412.3,579.2 412.5,578.9 413.4,578.8C413.1,578 412.4,578.2 411.7,578C412.7,576.5 413.6,575.2 414.5,573.8C413.2,574.3 412,575 410.9,575.7C410.3,576.1 409.6,576.3 409,575.8C408.2,575.1 407.8,575.8 407.4,576.2C407,576.8 406.8,577.2 406.5,577.7ZM426.4,708.4C427.3,709.5 428.1,710.4 429.7,710.2C429.9,710.2 430.2,710.2 430.4,710.4C432.6,711.9 435.4,712 437.6,713.5C439.8,715 442.3,716 444.7,717.2C446.4,718 447.9,719 449,720.5C449.4,721.1 450,721.2 450.6,721.2L457,721.2C457.5,721.2 458,721.1 458.4,720.7C460.5,718.9 462.6,717.2 464.6,715.4C467,713.3 467.9,709.7 466.8,707.2C465.6,704.6 465.3,701.8 464.9,699C464.8,698.6 464.8,697.9 465,697.7C465.7,697.1 465.3,696.4 465.3,695.7C465.2,692.4 464.6,689.3 463,686.6C463,686.5 463,686.6 463,686.7L463,687.7C463.2,694.6 460.5,700.5 456.5,705.9C455.7,707 454.7,707.9 453.7,708.9C451.9,710.6 449.5,711.2 447.3,711.5C445.4,711.8 443.5,711.9 441.8,712.8C441.4,713 440.9,713.1 440.4,713.2C439.6,713.4 438.7,713.5 438,712.9C437.4,712.3 437.7,711.6 438.1,710.8C437.5,711.1 437,711.3 436.6,711.4C435.3,711.8 434.7,711.5 434.5,710.2C434.4,709.8 434.2,709.7 433.9,709.6C433.5,709.4 433,709.1 433.1,708.7C433.2,708.2 433.7,708.3 434.1,708.2C436.6,707.4 439.2,706.7 439.4,703.3C439.4,703 439.6,702.6 439.8,702.3C440.8,700.6 441.1,698.7 441,696.8L441,690.4C441,689.5 441.3,688.6 440,688.2C439.6,688.1 439.6,687.5 439.4,687.2C438.9,688.3 438.4,689.3 438,690.3C437.6,691.4 436.9,692.1 436,692.8C435.7,693 435.4,693.4 435.1,693.3C434.7,693.1 434.9,692.7 434.9,692.3C434.7,691 435.3,689.7 435.3,688.4C435.3,686.7 435.1,685 435.2,683.3C435.3,681.6 435.3,679.9 434.8,678.2C434.4,676.7 434.7,675 434.7,673.4C434.8,669.7 434.6,666.3 433,662.8C431.7,660 430.4,657.3 428,655.2C427.5,654.8 427,654.2 426.4,654.5C425.9,654.8 426.3,655.5 426.3,656.1C426.4,657.3 427.1,658.5 427,659.8C425.5,659.1 424.2,658.3 423.3,656.9C422.8,656.2 422.2,655.6 421.5,655.2C419.6,654.2 418.2,652.7 417,650.9C416.4,650 416,648.8 414.8,648.4C413.4,648 412.1,647.2 411.5,646.2C410.5,644.5 408.7,644.2 407.3,643.6C405.7,642.9 404,642.5 402.6,641.4C402.5,641.3 402.3,641.4 402.2,641.3C402.1,641.7 402.7,642 402.2,642.4C400,640.8 397.3,640.6 394.7,640.1C394,640 393.2,640 392.6,639.7C390.9,639.1 389.3,638.3 388.5,636.5C387,633.4 385,630.6 383.7,627.4C383.3,631.4 383,635.4 382.9,639.3C382.7,644.1 382.8,648.8 382.7,653.6C382.7,654.1 382.7,654.6 382.5,655.1C381.9,657.4 381.5,659.7 380.6,661.9C379.9,663.7 379.6,665.8 379.2,667.7C378.2,672.6 376.4,677.4 377.6,682.5C378.1,684.4 378.1,686.4 378.5,688.4C379.6,693.7 381.5,698.7 383.6,703.6C383.8,704 384,704.4 384.3,704.7C387.1,708 389.9,711.2 392.7,714.5C392.9,714.7 393,715.1 393.3,715C393.6,714.9 393.6,714.5 393.6,714.3C393.6,711.6 392.8,709.1 391.6,706.8C390.8,705.5 389.7,704.4 389.2,702.8C388.5,700.6 387.4,698.5 385.9,696.7C385.1,695.7 384.4,694.6 384.2,693.3C383.9,690.5 383.6,687.7 383.4,685C383.1,680.3 384,675.7 385.2,671.1C385.4,670.4 385.4,669.6 385.9,668.8C386.8,673 387.1,677.1 387.2,681.1C387.3,684.3 387.7,687.4 388.5,690.4C389.6,694.7 391.4,698.7 394.1,702.2C397.5,706.6 401,710.8 404.3,715.2C406.1,717.5 408.7,718.4 411.1,720C411.4,718.4 411.2,717.1 410.2,716C409.6,715.3 409,714.6 408.6,713.8C408.2,713.1 407.8,712.8 407,712.8C406.1,712.8 405.5,712.3 404.9,711.6C402.5,709.1 400.9,706 399.2,703C399.1,702.8 399,702.7 399.2,702.4C400.6,703.7 402,705 403.4,706.3C404.3,707.1 405,708.1 406.3,708.5C408,709 409.8,709.5 411.3,710.7C411.8,711.1 412.3,711.4 412.8,711.7C416.2,713.9 419.7,716.1 423.1,718.2C423.4,718.4 423.7,718.6 424,718.3C424.3,717.9 423.8,717.8 423.6,717.6C422,716.1 420.4,714.6 419.9,712.3C419.8,712 419.5,711.9 419.3,711.8C417.6,710.7 415.9,709.5 414.3,708.4C414,708.2 413.6,708 413.7,707.6C413.8,706.9 413.3,706.7 412.9,706.4C410.1,704.5 407.5,702.4 405.3,699.8C405.1,699.5 404.8,699.2 404.5,699.1C403,698.6 402.2,697.3 401.5,696C400.9,695 400.2,694 399.6,693C399.1,692.2 398.5,691.5 398.2,690.7C401.9,691.7 405,694.2 408.5,696C408.1,694.9 407.7,694 407.4,693.1C407.3,692.7 407.3,692.2 406.8,692.1C405.8,692 405.5,691.2 405.1,690.6C404.3,689.2 403.3,688 402.4,686.7C400.3,683.7 398.2,680.7 397.3,677C397,675.8 396.8,674.7 396.1,673.6C395.7,672.9 395.2,672.1 395.2,671.3C395.3,669.4 395.1,667.6 394.7,665.7C394,661.6 393.3,657.6 392.6,653.5C392.6,653.3 392.4,653 392.7,652.8C393,652.6 393.2,652.9 393.3,653.1C394.5,655.3 396,657.4 396,660.2C396,662.6 397.1,664.8 397.8,667C398,667.5 398.3,668 398.7,668.4C399.2,668.9 399.4,669.4 399.7,670C400.3,671.1 400,672.8 401.9,673.1C402.1,673.1 402.2,673.6 402.3,673.9C402.7,675 403,676.1 403.4,677.4C403.5,674.9 403.2,672.7 403.7,670.4C404.3,667.8 403.7,665.1 404.4,662.4C404.8,660.7 405,658.9 404.9,657.1C404.9,656.8 404.9,656.4 405.4,656.3C405.4,656.8 405.3,657.3 405.3,657.8C405.3,657.9 405.2,658.3 405.5,658.2C406.2,657.8 406,658.4 406,658.6C406.3,661.2 406.4,663.8 405.9,666.5C405.4,669.1 405.9,671.6 406.7,674.1L406.7,664.4C407.1,665.5 407.7,666.4 408.2,667.4C408.9,668.7 409.1,670 409.1,671.4L409.1,683.4C409.1,684.2 409.7,684.9 409.4,685.7C409.2,686.4 409.4,687 409.8,687.6C409.4,685.2 410.3,682.9 410.2,680.5C410.2,679.8 410.6,679.4 411.3,679.3C412.1,679.2 412,679.7 412.1,680.2C412.3,681.6 412.6,683 412.7,684.5C412.8,685.7 413.2,686.7 414,687.7C416.6,691.3 419.2,695 421.8,698.6C422.2,699.1 422.7,699.7 422.7,700.4C422.7,700.7 422.9,701.1 423.3,700.9C423.9,700.6 424.6,700.4 424.6,699.4C424.6,698.4 424.4,697.5 424,696.5C422,692.6 420,688.7 418,684.8C417.9,684.5 417.5,684.3 417.8,683.9C418,683.6 418.4,683.7 418.7,683.9C419.3,684.3 419.8,684.8 420.5,685L420.5,679C420.5,678.1 420.3,677.4 419.7,676.7C418,674.6 417,672.2 416.4,669.6C415.8,667.1 415.5,664.5 414.7,662C414.1,659.8 414,657.6 414,655.4C414,655 414.1,654.5 414.7,654.2C415.4,656.1 416.4,657.9 416.8,659.8C417.3,661.7 419.3,662.8 418.8,665.3C419.3,664.8 420.1,664.9 420.1,664.1C420,662.5 420.3,660.9 419.6,659.3C419.3,658.6 419.3,657.9 419.1,656.9C421.4,659.1 423.2,661.4 425.2,663.5C426.7,665 427.4,667.2 428,669.3C428.4,671.1 428.9,672.8 429.8,674.5C430.3,675.3 430.4,676.3 430.4,677.3L430.4,684.7C430.4,685.1 430.4,685.5 430.2,685.9C430.1,686.2 429.8,686.5 429.5,686C428.9,684.8 428,683.6 427.7,682.2C427.3,680.2 426.9,678.3 426.5,676.3C426.5,676.1 426.5,675.7 426.1,675.7C425.7,677 426.2,678.5 425.7,680C424.8,679.2 424.6,678.2 423.9,677.3C424.2,679.5 424.6,681.5 425.3,683.4C426.3,686 427.1,688.6 428.3,691.1C429,692.5 429.3,694 429.3,695.5C429.3,697.3 429.2,699.2 431.1,700.4C431.3,700.2 431.7,699.9 432,699.6C431.7,699.3 431.5,699 431.2,698.7C430.9,698.4 430.8,698 431,697.7C431.3,697.3 431.8,697.6 432,697.8C432.4,698.1 432.9,698.5 433,698.9C433.3,700.1 434.1,700.4 435.3,700.1C434.5,701.6 433.9,702.9 433,704.1C432.3,705 432.1,706.2 430.6,706.6C429,706.9 427.8,707.9 426.4,708.4ZM450,681.8L450,678.5C450,677.5 449.9,676.5 449,675.8C448.6,675.5 448.5,675.1 448.5,674.6C448.6,673.7 448.2,672.9 448,672.2C447.4,670.5 446.6,668.8 446.2,667C446,665.9 445.4,665.3 444.6,664.9C443,664 440.9,663.7 440.1,661.6C440.1,661.5 439.9,661.5 439.8,661.4C438.7,660.3 437.3,659.6 436.5,658.2C436.4,657.9 436.1,657.7 435.5,657.9C437.5,661 437.8,664.7 439.5,667.8C440.7,669.9 441.6,672.1 442,674.6C442.4,677.4 443,680.1 443.6,682.8C443.7,683.2 443.9,683.7 443.7,684.1C443.1,685 443.3,686 443.3,687C443.3,690.5 443.2,694 443.3,697.4C443.3,698.6 442.7,699.7 442.9,700.9C443.2,700.2 443.4,699.5 443.7,698.8C444.7,696.6 444.8,694 447.3,692.8C447.5,692.7 447.7,692.4 447.8,692.2C448.4,691.2 449.6,690.5 449.8,689.2C448.7,692.4 447.3,695.4 446.8,699.1C448.2,697.7 449.4,695.5 449.8,694.2C450.2,692.6 450.6,691.1 451.7,689.9C452.1,689.5 452.3,689 452.3,688.4L452.3,673.1C452.3,672.5 452.2,671.8 451.4,671.2C451.4,674.8 451.4,678.4 450,681.8ZM392.5,725.8C396.5,728.3 405.1,730.6 410.7,730.8C415.1,731 419.5,731.4 423.7,732.6C425.9,733.2 428.1,733.6 430.4,733.4C430.8,733.4 431.1,733.5 431.4,733.2C432.5,732 434,731.2 435.4,730.3C435.9,729.9 436,729.7 435.5,729.2C434.4,728.1 433,727.6 431.7,726.9C430.7,726.3 429.8,726.2 428.8,726.6C426.1,727.7 423.3,727.9 420.4,727.7C420.1,727.7 419.7,727.9 419.5,727.5C419.4,727.1 419.8,726.9 420.1,726.7C421.5,725.9 422.8,725.1 424.1,724.3C424.6,724 424.9,723.7 425,723C425.1,722 425.8,721.7 426.7,721.8C427.1,721.9 427.5,722 427.8,722.1C427.4,721.4 426.8,720.9 426.3,720.4C426,720.1 425.7,720.2 425.3,720.4C422.4,722.3 419.3,723.6 416,724.3C413.3,724.9 410.6,725.6 407.9,725.8C402.9,726.5 397.8,726.5 392.5,725.8ZM376.6,705.9C378.5,707.5 380.3,709.1 382.1,710.7C382.7,711.3 382.9,711.1 383.3,710.4C383.6,709.9 383.2,709.6 383.1,709.2C382.3,706.4 380.2,704.2 379.4,701.3C378.2,696.8 376.4,692.6 375.5,688C374.8,690.9 374.2,693.8 373.7,696.7C373.3,698.8 372.6,700.9 372.6,702.9C372.6,705.2 372.7,707.5 372.7,709.8C372.7,712.3 373.9,714.4 374.8,716.6C375,717.2 375.7,717.4 376.2,717.6C377.9,718.3 379.6,718.9 381.3,719.5C382,719.7 382.5,720.5 383.1,720.6C385.3,720.7 387.5,720.6 390.1,720.6C388.4,719.1 387.2,717.6 385.6,716.5C382.6,714.6 379.8,712.3 377.3,709.8C377,709.5 376.7,709.2 376.7,708.7C376.6,707.8 376.6,706.9 376.6,705.9ZM374.8,612.4C376.2,612.6 377.6,612.9 379.1,613.1C379.7,613.2 380,613.1 379.8,612.4C379.5,611 379.1,609.6 379.1,608.2C379.1,606.9 378.5,606.4 377.5,605.8C375.9,605 374.4,604.1 373.4,602.6C372.4,601.3 370.2,600.7 368.7,601.4C368,601.7 367.3,601.7 366.6,601.5C364.9,601.1 363.3,600.4 361.8,599.4C361.3,599.1 360.7,599 360.1,598.9C359.3,598.8 359,599.2 358.9,599.9C358.8,600.6 358.8,601 359.6,601.4C361.1,602.1 362.3,603.2 363,605C360.7,604.7 358.9,603 356.5,603.5C357.1,604 357.9,604 358.4,604.5C359.7,605.8 361,607 362.3,608.2C363.2,609 363.1,609.9 361.9,610.3C361.4,610.5 361.5,610.7 361.6,611.1C361.8,611.8 362.2,612.1 362.9,612.1C364.1,612.1 365.4,612 366.6,612.2C368.1,612.5 369.6,612.1 370.5,611.3C371.8,610.1 373.2,610 374.8,610C375.7,610 376,610.5 375.5,611.3C375.4,611.8 375,612.1 374.8,612.4ZM391.4,743C389.9,742.1 388.5,741.3 387.2,740.5C386.8,740.2 386.5,740 386.9,739.4C387.7,738.2 387.1,737 385.7,736.6C385.1,736.4 384.6,736.2 384.1,735.8C383.5,735.3 382.9,735.1 382.1,735.1C381.3,735.1 380.6,734.8 380.3,734C379.8,731.9 379.3,729.8 378.8,727.7C378.7,727.1 378.5,726.9 377.9,726.9C374.3,726.9 370.5,727.4 367,725.8C366.4,725.5 366.2,725.8 366.2,726.4C366.2,727.4 366.1,728.4 365.8,729.4C365.6,730.2 365.9,730.5 366.6,730.8C368.8,731.7 371.1,732.6 373.4,733.2C374.9,733.6 376.4,734 377.8,734.7C378.3,734.9 378.6,735.2 378.8,735.8C379.3,737.5 379.9,739.2 380.2,741C380.5,742.9 381.3,744.3 383.1,745.1C384.5,745.7 385.9,746.6 387.5,746.5C389.9,746.5 392.4,746.2 394.8,746.1C397.2,745.9 399.5,745.8 401.9,745.6C399.4,745 396.9,745.4 394.4,745.5C391.9,745.7 389.4,746 387,744.9C386.3,744.6 385.8,744.2 386,743.4C386.2,742.5 386.9,742.3 387.6,742.4C388,742.4 388.5,742.6 388.9,742.8C389.7,743.1 390.4,743.2 391.4,743ZM407.9,735.5C406.8,734.6 405.9,733.2 404.3,733.2C403.6,733.2 402.9,732.9 402.2,732.7C400.4,732.1 398.7,731.6 396.9,731C398.5,732.7 400.7,733.6 402,735.5C394.9,732.6 388.6,728.3 381.6,725.1C381.5,726 381.9,726.6 382.5,727.1C385,729.2 387.4,731.4 389.9,733.4C392.6,735.4 395.3,737.5 398.9,737.9C403.4,738.5 407.9,739.2 412.5,739.9C412.4,738.8 411.8,737.9 411.8,736.9C411.8,736.4 411.7,735.7 412.6,735.8C414.1,735.9 415.7,736 416.7,737.5C416.9,737.8 417.2,738 417.5,738.2C417.8,738.4 418.2,738.6 418.5,738.2C418.8,737.7 418.4,737.6 418.1,737.4C417,736.5 415.7,735.9 414.5,735.3C412.7,734.4 409.8,734.8 408.4,736.3C408.1,736.6 407.9,736.9 407.4,736.7C407.2,736.6 407,736.6 406.9,736.4C407,735.8 407.6,736 407.9,735.5ZM426.2,512.9C425.3,513 424.4,513.1 423.4,513.2C422.7,513.3 422.7,514 422.6,514.4C422.6,514.9 422.2,515.6 422.9,515.9C424.1,516.3 424.4,517.2 424.4,518.4C424.4,519 424.3,519.6 425.2,519.7C429.7,520.6 433.8,522.2 437,525.8C437.7,526.6 438.2,525.4 438.8,525.3C439.2,525.3 439.3,525 439.1,524.6C438.5,523.4 438.2,522.2 437.6,521C437.1,519.9 436.6,518.8 436.2,517.6C435.9,516.8 435.6,516.2 434.9,515.8C432.3,514.1 429.4,513.1 426.2,512.9ZM448.4,729.5C449.2,729.4 450,729.3 450.8,729.3C451.3,729.3 451.7,729.6 451.8,730.1C451.9,730.6 451.3,730.4 451.1,730.5C450.7,730.7 450.3,730.9 450.1,731.3C449.8,731.8 449.5,732.5 449.8,733C450.1,733.5 450.7,733 451.1,733C451.5,733 451.9,733 452.3,732.9C452.7,732.8 453.4,732.8 453.4,732.4C453.5,731.3 454.4,730.9 455,730.1C456,728.8 457.1,727.4 457.6,725.6C455.8,726.2 454.1,726.4 453,727.8C452.2,728.8 451.4,729 450.3,728.3C449.6,727.8 448.9,727.3 448.2,726.8C447.8,727.1 448.3,727.8 447.7,727.8C447.1,727.8 447.4,727.2 447.4,726.8C447.4,726.1 447,725.8 446.6,725.6C444.6,724.8 443.1,722.8 440.6,723.3C439.3,722.3 437.7,722.6 436.3,722.1C434.9,721.6 433.5,720.9 431.8,721C432.5,722.1 433.3,723 434.2,723.9C436.6,726.3 439.1,728.8 442.7,729.4C443,729.5 443.5,729.6 443.7,729.9C444.8,731.2 446.3,730.9 447.7,731.2C448.4,731.4 448.7,730.6 449,730.1C449.3,729.7 448.3,730 448.4,729.5ZM451.1,654.5C451,658 453,661.1 452.8,664.7C453.9,666.4 454.2,668.3 454.6,670.2C455.2,672.5 456,674.9 456.9,677.1C457.3,678.2 457.3,679.1 456.9,680.2C456.6,681 456.4,681.9 456.4,682.7C456.6,684.9 456.5,686.8 455.3,688.8C453.8,691.3 452.9,694.2 451.7,696.9C451.6,697.2 451.3,697.5 451.4,697.9C454.4,696.1 455,695.5 456.3,692.4C457.1,690.6 457.8,688.9 458.7,687.1C459,686.5 458.8,685.7 459.3,685.2C459.9,684.6 460,683.8 460.1,683C460.3,681.4 459.2,679.9 459.9,678.3C459.9,678.2 459.8,678 459.8,677.8C458.2,673.6 457.3,669.1 455.6,665C454.1,661.4 452.8,657.8 451.1,654.5ZM453.3,742.4C455.4,742.6 457.5,742.9 459.6,742C460.5,741.6 461.4,741.2 462.3,741.1C463.6,740.9 464.1,740.1 464.5,739.1C465,737.9 464.7,736.7 464.8,735.4C464.8,734.7 464.9,734 465.7,733.9C466.7,733.7 467.2,732.8 467.5,732.2C468.5,730.3 469.3,728.3 470,726.3C470.2,725.8 470.3,725.1 469.9,724.6C469.7,724.4 465.9,724.4 465.6,724.6C465.5,724.6 465.5,724.7 465.5,724.8C465.6,726.1 464.5,726.8 464.4,728C464,730.4 461,733.2 458.8,733.3C459.9,734.3 460,734.8 459.3,736.4C458.1,739 456.4,741.3 453.3,742.4ZM428.7,737.4C429.4,738.2 429.6,739.6 430.9,739.9C433,740.5 435.1,741.1 437.4,741C437.6,741 438,741.1 437.9,740.8C437.6,739.9 438.3,740.3 438.6,740.2C439.3,740.1 440,740.1 440.7,740C442.9,739.8 445,739.1 447.4,738.4C446.7,739.2 446.2,739.7 445.5,740.4C448.2,740.5 450.7,740.3 453,739.4C455.3,738.5 456.2,736.4 457,734C454.9,734.9 453,735.6 451,735.8C446.7,736.3 442.4,736.5 438.1,737.3C435.3,737.8 432.5,738.2 429.7,737.1C429.5,737 429,737.1 428.7,737.4ZM369.6,716.5C369.3,717.6 368.3,718 367.7,718.7C367,719.5 366.6,720.6 366.9,721.7C367.2,722.7 368.2,722.8 369,723C369.8,723.2 370.6,723.2 371.4,723.6C372.5,724.1 373.7,724.4 374.9,724.1C373,721.6 370.9,719.5 369.6,716.5ZM437.8,614.5C437.1,613.9 436.4,613.2 435.6,612.7C434.1,611.7 433.1,609.9 431,609.9C430.8,609.9 430.7,609.7 430.5,609.6C428.9,608.3 428.9,608.3 427.6,609.8C427.5,609.9 427.4,610.1 427.3,610.2C426.8,610.6 426.7,610.9 427.5,611.3C430.1,612.4 432.7,613.6 435.2,614.8C435.5,615 435.8,615.1 436.2,614.8C436.6,614.3 437.2,614.5 437.8,614.5ZM442.3,654C439.8,651.2 438.9,647.2 435.2,645.3C436.6,649.1 438.1,652.5 442.3,654ZM455.8,656.9C454.9,653 454.1,649.3 453.3,645.3C452,648.5 453.5,655.2 455.8,656.9ZM426.7,642.7C426.2,645.7 427.3,648.1 429.2,650.2C429.5,650.5 429.8,650.5 430.1,650.3C430.6,650 430.3,649.8 430.3,649.4C429.7,646.9 427.5,645.1 426.7,642.7ZM440.2,556.2C439.7,555.8 439.2,555.6 438.7,556.1C438.4,556.4 438,556.5 437.7,556.3C436.8,555.8 436.4,556.3 436,557C435.5,558.1 434.9,559.1 434,559.9C436,558.7 438.1,557.5 440.2,556.2ZM434.5,529.6C433.7,528.6 432.8,528 431.9,527.6C431.4,527.4 430.8,527.1 430.4,527.8C430.1,528.4 430.4,529 431.1,529.3C432.1,529.7 433.2,529.8 434.5,529.6ZM410.1,590.4C410,590.4 410,590.3 409.9,590.3C408.9,591.9 407.9,593.4 406.8,595C406.5,595.4 406.5,595.9 406.5,596.4C406.5,596.6 406.4,596.9 406.8,597C407.1,597 407.2,596.9 407.3,596.6C408.2,594.5 409.2,592.5 410.1,590.4ZM426.2,524.9C425.8,524.4 425.5,524.3 425.1,524.2C424,524 422.9,523.9 421.8,524C421.5,524 421,523.8 421.1,524.3C421.1,524.7 421.5,524.9 421.9,524.9L426.2,524.9ZM423.5,653.1L423.5,651.3C423.6,650.4 423.1,649.7 422.5,649.1C422.4,649 422.2,648.8 422,649C421.8,649.1 421.9,649.3 422,649.4C422.6,650.6 422.8,651.9 423.5,653.1ZM412.9,744.9C411,744.7 409.1,745 407.2,744.6C409,745.4 410.9,745.4 412.9,744.9ZM407.1,517.3C406.8,517.5 406.7,517.9 406.6,518.2C406.5,518.8 406.3,519.4 406.7,519.9C406.7,519.9 407,519.9 407.1,519.8C407.5,519.3 407.8,518.6 407.6,517.9C407.5,517.7 407.4,517.4 407.1,517.3ZM448.3,648.1C448,646.8 446.6,646.1 447.5,644.5C446.1,645.5 446.5,647 448.3,648.1ZM421,519.4C421.3,519.2 422,519.7 422,519C421.9,518.1 421,518.5 420.4,518.3C420,518.1 419.9,518.4 419.9,518.7C419.9,519.6 420.5,519.3 421,519.4ZM417.1,514.2C417.2,515 416.8,515.6 417.4,516.1C417.6,516.2 418,516.2 418.2,515.8C418.4,515 417.9,514.7 417.1,514.2ZM425.4,527.6C424.8,527.9 424.7,528.3 424.8,528.8C425.1,529.5 425.7,529.4 426.3,529.5C425.8,529 425.5,528.3 425.4,527.6ZM413.1,517.9C413.3,517.6 413.6,517.4 413.7,517C413.8,516.7 413.6,516.5 413.2,516.5C412.7,516.4 412.6,516.7 412.5,517.1C412.4,517.5 412.6,517.7 413.1,517.9ZM407,536.6C407.5,535.3 408,534.4 408.4,533.5C408.3,533.5 408.2,533.4 408.1,533.4C407.7,534.4 406.9,535.1 407,536.6ZM420.4,742.2C420.9,742.1 421.5,742.6 421.8,742C421.9,741.8 421.6,741.3 421.4,741.2C420.7,741 420.8,741.8 420.4,742.2ZM430.9,742.6C430.4,742.4 429.7,741.3 429.3,742.8C429.9,742.8 430.4,742.8 430.9,742.6ZM405,680.4C405,679.4 405,679.4 403.4,678.9C403.8,679.7 404.4,680 405,680.4ZM442.7,537.7C442.3,538.2 442.1,538.7 442.2,539.1C442.3,539.5 442.8,539.3 443.2,539.2C443,538.7 442.9,538.3 442.7,537.7ZM406.4,600.2C406.8,599.3 406.7,598.4 406.7,597.6L406.4,597.6L406.4,600.2ZM425.4,608.1C424.8,608 424.3,607.7 423.9,608.3C423.8,608.5 424.1,609 424.4,609C425,609.1 425,608.5 425.4,608.1ZM437.5,732.1C438.7,732.3 438.8,732.3 439.6,731.9C438,731.7 438,731.7 437.5,732.1Z" style="fill-rule:nonzero;"/>
        <path d="M234.9,728.3C235.8,726.9 236.4,725.5 238.1,725.2C237.8,727.2 236.9,728 234.9,728.3Z" style="fill-rule:nonzero;"/>
        <path d="M212.3,568.3C211.6,568.3 211.1,568 211,567.3C210.8,566.6 211.1,566 211.7,565.7C212.2,565.4 212.8,565.2 213.4,565C214,564.8 214.5,565 214.9,565.5C215.2,566 215.1,566.6 214.8,567C214.1,567.9 213.2,568.1 212.3,568.3Z" style="fill-rule:nonzero;"/>
        <path d="M216.5,722.8C216.1,724.1 216.4,725.8 215,726.7C214.9,725.2 215.7,724 216.5,722.8Z" style="fill-rule:nonzero;"/>
        <path d="M203.7,728.5C204.3,727.3 205.1,726.2 206.2,725.5C205.5,726.6 204.7,727.6 203.7,728.5Z" style="fill-rule:nonzero;"/>
        <path d="M386.9,611.1C390.5,612.3 392.6,615.1 394.2,618.3C394.8,619.4 395.4,620.5 396.5,621.2C398.1,622.2 399.5,623.6 399.9,625.2C400.4,626.8 401.5,626.5 402.4,627.1C402.3,626.1 402.8,625.3 402.5,624.4C402.3,623.8 402.6,623.3 403.2,623C403.9,622.7 404.7,622.7 405.1,623.3C405.9,624.5 406.9,624.8 408.3,624.7C408.5,624.7 408.8,624.7 408.9,624.8C410.1,626 411.5,627.1 412.4,628.5C413,629.4 412.1,629.8 411.7,630.2C413.4,631.8 415.3,633 417.3,634.1C417.9,634.4 418.4,634.9 418.2,635.8C418,636.5 417.3,636.7 416.7,636.7C415.5,636.7 414.1,637.1 413.3,635.6C413.2,635.4 413,635.5 412.8,635.6C411.9,636.4 411.2,636 410.6,635.2C409.7,634 408.8,632.9 407.9,631.7C407.7,631.4 407.6,631.2 407.4,630.9C407.2,630.7 406.9,630.4 406.6,630.6C406.3,630.8 406.5,631.1 406.5,631.4L406.5,635.8C406.5,636.5 406.4,637.1 405.7,637.4C405,637.7 404.5,637.3 404.1,636.7C404,636.5 403.9,636.3 403.7,636.3C401.5,635.6 400.8,633.5 399.6,631.9C399.1,631.2 398.6,630.4 398.6,629.4C398.5,628.5 398.2,627.6 398,626.7C397.4,624.9 396.4,623.7 394.4,623.2C389.8,621.9 390.7,622.7 389.4,618.2C388.8,616.2 388.4,614.1 387.5,612.2C387,611.8 386.8,611.4 386.9,611.1Z" style="fill-rule:nonzero;"/>
        <path d="M443.1,574.9C443,574.7 442.3,574.7 442.6,574.2C443,573.5 443.4,572.7 444.3,572.5C446,572 447.7,572.4 449.4,572.2C451.9,571.9 454.1,572.7 456.5,573C457.9,573.2 458.5,573.5 458.7,574.9C458.8,575.8 459.1,576.6 459.4,577.4C459.5,577.8 459.7,578.2 459.1,578.4C458.7,578.5 458.4,578.4 458.1,578C457.2,576.4 456.1,575.1 454.2,574.5C453.7,574.4 453.5,574.2 452.9,574.5C451.9,575 450.8,574.7 449.8,575C448.1,575.5 446.5,576.2 444.9,576.9C443.4,577.6 441.9,578.1 440.5,578.7C441.2,579.7 441.6,579.9 442.3,579.2C443.1,578.5 443.9,578.2 444.9,578.2C444.6,578.2 444.2,578.1 443.9,578.1C445.7,576.8 447.8,576.7 449.7,576.9C451.7,577.1 453,579.1 455,579.8C454.5,580.5 453.8,580.6 453.2,580.7C451.6,581.1 449.9,581.5 448.8,582.9C448.5,583.3 448.2,583.3 447.7,583.1C445.5,582.4 443.3,581.5 440.8,581.8C440.5,581.8 440.2,581.8 440,581.6C438.1,579.9 435.8,580.5 433.6,580.4L431.6,580.4C432,579.7 432.4,579.4 432.9,579.1C434.2,578.3 435.5,577.7 436.5,576.4C437,575.8 437.7,575.8 438.3,575.9C440.1,576.6 441.6,576.1 443.1,574.9Z" style="fill-rule:nonzero;"/>
        <path d="M427.6,583.9C431.7,584.4 436,585.4 440.2,586.5C441.3,586.8 442.4,587.2 443.5,587.4C446.9,588.2 449.6,590.3 452.7,591.6C454.3,592.3 455.7,593.3 456.9,594.5C457.8,595.4 458.5,596.5 458.4,597.9C458.3,599 459.3,599.9 458.8,601.1C458.5,601.8 458.3,602.6 457.4,602.6C456.5,602.7 456.1,602.1 455.8,601.4C455.2,600.1 454.5,598.9 453.4,597.8C452.6,597 452.3,595.8 451.3,595.1C448.8,593.4 446.2,591.9 443.5,590.6C441.2,589.4 438.7,588.8 436.1,588.2C432.6,587.4 429.2,586.1 425.8,585C425.6,584.9 425.2,584.9 425.2,584.5C425.2,584.2 425.5,584 425.8,584C426.3,584 426.8,584 427.6,583.9Z" style="fill-rule:nonzero;"/>
        <path d="M459.2,582.1C458.8,582.6 458.4,582.7 457.9,582.7C457.3,582.7 456.7,582.9 456.7,583.6C456.7,584.4 457.3,584.6 458,584.6L458.9,584.6C458.9,585.1 458.4,585.7 459,586.1C459.5,586.5 460.1,586.3 460.6,586.1C461.8,585.9 463,585.3 464.5,585.6C463,586.9 464,588.1 464.4,589.4C464.7,590.2 465,591 465.3,591.8C465.7,593 465,593.8 463.8,593.6C462.9,593.4 462.7,593.7 462.9,594.5C463,595.1 463,595.7 462.7,596.3C462.4,596.9 461.9,597.2 461.2,597C460.6,596.9 460.1,596.5 460.2,595.8C460.4,594 459.3,592.8 458.3,591.5C457.9,591 457.4,590.5 456.9,590C456.2,589.1 456.4,588.4 457.2,587.8C457.4,587.7 457.8,587.7 457.6,587.3C457.5,587 457.2,586.9 456.9,586.9L454.1,586.9C453.2,586.9 452.5,586.6 452.4,585.6C452.4,585.1 452,585 451.7,584.7C451.3,584.4 450.7,584.2 450.7,583.8C450.8,583.3 451.5,583.3 452,583.1C453.5,582.5 455.1,582.2 456.8,582.3C457.7,582.1 458.4,582.1 459.2,582.1Z" style="fill-rule:nonzero;"/>
        <path d="M434.9,602.1C436.2,601.4 437.4,600.2 439.1,600.2C440,600.2 440.2,599.4 440.4,598.7C440.6,598.1 442.6,596.2 443.2,596.1C443.8,596.1 444,596.6 443.9,597C443.7,598 444.2,597.8 444.8,597.8C445.7,597.8 446.6,597.7 447.6,597.8C448.7,597.9 448.9,598.6 448.2,599.4C447.2,600.7 445.8,601.1 444.2,601.4C441.7,601.9 439,601.5 436.5,602.2C436.1,602.3 435.6,602.2 435.1,602.2C435,602.3 434.9,602.2 434.9,602.1Z" style="fill-rule:nonzero;"/>
        <path d="M403.6,617.9L400.3,617.9C400.1,617.9 399.8,617.9 399.7,617.6C398.8,616.4 397.6,615.5 396.6,614.4C396.4,614.2 396.2,613.9 396,613.6C395.6,612.9 395.4,612.2 395.3,611.4C395.2,610.7 394.4,610.2 394.5,609.1C397.9,611.8 400.7,614.8 403.6,617.9Z" style="fill-rule:nonzero;"/>
        <path d="M455.5,569.7L448,569.7C448.3,567.7 449.5,566.9 451.5,567.3C452.9,567.6 454.4,568.5 455.5,569.7Z" style="fill-rule:nonzero;"/>
        <path d="M434.8,591.4C433.8,593.9 431.5,594.9 429.3,596C430.5,593.8 432.8,592.7 434.8,591.4Z" style="fill-rule:nonzero;"/>
        <path d="M421.9,616.1C421,616.4 420.4,615.9 419.8,615.7C418.8,615.3 417.7,614.9 416.8,614.3C416.4,614 416.1,613.6 416.3,613.2C416.6,612.8 416.9,613.2 417.2,613.3C419.1,613.8 420.6,614.6 421.9,616.1Z" style="fill-rule:nonzero;"/>
        <path d="M422.1,588.6C422.2,588 422.3,587.5 422.8,587.6C424.6,587.6 426.4,587.4 428.2,588C426.3,588.2 424.3,588.4 422.1,588.6Z" style="fill-rule:nonzero;"/>
        <path d="M435.7,604.4C437.3,604 438.8,603.4 440.7,603.8C439,604.8 437.3,604.6 435.7,604.4Z" style="fill-rule:nonzero;"/>
        <path d="M437.3,696.7C436.7,697.6 436.1,698.4 435.5,699.2C435.8,698.1 435.3,696.7 437.3,696.7Z" style="fill-rule:nonzero;"/>
        <path d="M414.6,535.5C414.7,533 415.5,532.6 417.8,533.8C418.4,534.1 419,534 419.6,534C420.5,534 421.2,534.3 421.3,535.2C421.4,535.9 421.8,536.1 422.3,536.4C422.6,536.5 423,536.7 423.3,536.9C423.8,537.2 424.2,537.7 424,538.3C423.9,538.9 423.4,539.3 422.8,539.4C421,539.5 419.2,539.8 417.3,539.2C415.6,538.4 414.6,537.1 414.6,535.5Z" style="fill-rule:nonzero;"/>
        <path d="M378,731.9C377,731.3 376.1,730.9 375.2,730.4C374.9,730.3 374.7,730 374.8,729.7C375,729.3 375.3,729.6 375.5,729.7C376.6,730 377.4,730.5 378,731.9Z" style="fill-rule:nonzero;"/>
        <path d="M459.6,736.1C460.3,734.6 460.3,732.7 462.3,732.4C462.3,734.3 461.1,736 459.6,736.1Z" style="fill-rule:nonzero;"/>
    </g>
    <g transform="matrix(1.4346,0,0,1,143.924,52.8351)">
        <text x="0px" y="0px" style="font-family:'AgencyFB-Bold', 'Agency FB', sans-serif;font-weight:700;font-stretch:condensed;font-size:45.011px;">N</text>
    </g>
    <g transform="matrix(1.4346,0,0,1,144.828,104.835)">
        <text x="0px" y="0px" style="font-family:'AgencyFB-Bold', 'Agency FB', sans-serif;font-weight:700;font-stretch:condensed;font-size:45.011px;">A</text>
    </g>
    <g transform="matrix(1.4346,0,0,1,141.528,156.835)">
        <text x="0px" y="0px" style="font-family:'AgencyFB-Bold', 'Agency FB', sans-serif;font-weight:700;font-stretch:condensed;font-size:45.011px;">M</text>
    </g>
    <g transform="matrix(1.4346,0,0,1,144.856,221.835)">
        <text x="0px" y="0px" style="font-family:'AgencyFB-Bold', 'Agency FB', sans-serif;font-weight:700;font-stretch:condensed;font-size:45.011px;">P</text>
    </g>
    <g transform="matrix(1.4346,0,0,1,152.604,269.835)">
        <text x="0px" y="0px" style="font-family:'AgencyFB-Bold', 'Agency FB', sans-serif;font-weight:700;font-stretch:condensed;font-size:45.011px;">I</text>
    </g>
</svg>
